<svg width="236" height="272" viewBox="0 0 236 272" fill="none" xmlns="http://www.w3.org/2000/svg">
<path d="M56.9726 221.419C56.4938 220.63 55.9441 220.051 55.2732 219.812C47.9011 217.182 46.2856 211.717 51.1512 205.567C52.4594 203.913 53.9247 202.384 55.5964 200.48C51.3785 198.024 44.1824 198.758 44.8612 192.423C45.3018 188.31 48.944 184.541 51.3399 180.284C47.8972 177.764 40.6565 179.751 40.6201 173.636C40.5974 169.834 43.5981 166.013 45.1088 162.509C43.2843 160.214 39.3905 157.449 39.0396 154.29C38.666 150.926 41.6448 147.19 42.9337 144.149C39.9983 141.988 35.5494 140.156 33.4437 136.837C29.9492 131.329 36.933 129.806 39.4888 126.179C37.5073 125.152 35.7442 124.332 34.0726 123.356C27.9686 119.79 27.7271 114.03 33.3314 109.76C34.6492 108.755 35.5406 107.191 36.6282 105.885C35.0758 105.126 33.5962 104.099 31.9584 103.655C24.9841 101.764 22.9478 95.3373 27.7406 89.8877C29.4435 87.9515 31.2686 86.1227 33.7936 83.4428C27.1961 82.5962 20.9637 82.7499 20.1787 75.01C19.4578 67.9021 25.6654 65.7779 29.9779 61.5143C28.3916 60.2791 27.1204 59.0938 25.6711 58.1958C20.5297 55.01 19.1057 52.0342 20.2158 46.1104C20.4887 44.6544 20.9494 43.2141 21.4877 41.8304C25.3688 31.8537 27.8741 31.166 36.411 37.6462C36.9189 38.0317 37.5261 38.2863 37.6392 38.3499C40.0135 34.6256 41.4923 29.7423 44.7289 27.8224C49.7522 24.8426 51.4007 31.5698 54.9291 33.922C56.3994 32.2071 57.6777 30.5077 59.1661 29.0185C64.0074 24.1742 69.8364 23.0878 75.4526 26.5738C79.6405 29.1733 82.2335 28.4596 85.0083 24.5359C88.4262 19.703 92.1285 19.4759 96.7902 23.4522C99.6746 25.9124 101.21 25.5602 102.53 21.9502C105.929 12.6574 111.302 11.4013 118.865 18.1284C121.934 20.8587 123.896 20.4499 125.845 16.8936C130.594 8.22837 133.474 7.46653 141.982 12.661C145.267 14.6665 147.129 14.7807 148.519 10.5038C150.845 3.34592 157.756 1.56577 163.48 6.82407C167.045 10.0995 168.975 9.15757 171.405 5.84043C176.043 -0.490749 179.967 -1.41806 186.841 1.82328C192.35 4.42069 194.15 8.69223 192.65 15.5935C192.438 16.5675 192.22 17.5415 192.062 18.5248C192.013 18.8275 192.154 19.1609 192.252 19.7345C193.103 19.9314 194.157 19.9523 194.968 20.4062C196.967 21.5249 200.232 22.635 200.457 24.1297C200.778 26.2616 199.404 29.2961 197.756 30.9547C192.98 35.7634 192.805 35.769 198.672 39.0616C204.033 42.0703 205.068 46.5504 201.485 51.5762C200.145 53.4558 198.64 55.2179 196.877 57.4573C198.297 58.2806 199.326 58.9856 200.441 59.5061C206.662 62.4103 207.787 68.0461 203.13 73.1515C198.846 77.8486 198.846 77.8485 204.455 80.2039C209.156 82.1775 210.466 85.6089 208.124 90.2909C207.237 92.0652 206.018 93.6835 204.867 95.314C203.358 97.4511 203.898 98.7872 206.1 100.126C211.031 103.125 211.626 106.225 208.571 111.216C207.653 112.716 206.769 114.236 205.326 116.659C207.8 116.894 209.324 117.166 210.846 117.159C216.194 117.132 218.231 119.447 216.552 124.562C215.7 127.155 213.778 129.42 212.215 131.75C210.328 134.561 210.837 136.715 213.724 138.382C219.981 141.995 221.23 145.855 218.239 152.517C217.636 153.861 216.878 155.135 216.2 156.425C224.791 163.192 224.868 164.322 217.594 175.874C228.233 183.024 228.336 183.552 220.981 193.219C221.114 193.503 221.181 193.948 221.401 194.043C229.887 197.726 230.439 199.084 226.001 207.209C224.614 209.749 224.849 211.546 227.134 213.207C228.479 214.185 229.823 215.178 231.072 216.272C234.414 219.2 236.756 222.597 234.566 227.193C232.511 231.507 229.503 234.714 224.091 233.907C220.748 233.408 218.524 233.888 217.528 237.91C216.572 241.773 213.184 242.451 209.556 240.117C207.65 238.891 205.841 237.511 203.53 235.876C202.702 237.543 202.031 238.617 201.614 239.782C199.409 245.939 195.399 247.716 190.144 244.184C186.063 241.442 183.625 240.287 181.759 246.463C180.339 251.165 175.667 251.904 171.619 248.98C169.803 247.669 167.974 246.376 165.632 244.704C165.13 246.701 164.812 247.921 164.516 249.148C162.915 255.801 158.021 257.497 152.71 253.201C151.679 252.366 150.8 251.346 149.802 250.467C147.541 248.475 145.7 248.47 144.528 251.624C144.181 252.557 143.716 253.45 143.26 254.338C140.38 259.942 136.053 260.841 131.078 256.904C129.244 255.452 127.792 252.887 124.971 255.976C118.329 263.249 117.682 263.214 109.849 257.554C109.458 257.271 108.979 257.108 108.479 256.857C108.068 257.147 107.539 257.336 107.309 257.709C102.452 265.605 100.644 266.113 93.387 260.77C89.8702 258.181 88.7615 260.322 87.6119 263.026C85.8814 267.096 84.1115 270.909 78.6782 271.119C72.0396 271.376 68.2478 268.852 66.7956 262.348C66.1143 259.296 65.8074 256.16 65.3376 253.106C55.2514 252.66 54.4288 249.176 60.8236 237.467C57.9507 235.305 54.2269 233.79 52.7074 231.051C50.5715 227.202 54.3829 224.451 56.9726 221.419ZM215.452 171.779C219.502 167.362 219.981 163.864 216.836 161.68C211.291 157.831 211.452 157.908 214.556 151.405C215.967 148.451 218.09 144.858 213.497 142.494C206.574 138.93 205.609 134.564 210.23 128.09C211.617 126.147 212.488 123.836 213.217 122.426C209.199 120.938 205.416 120.625 203.494 118.571C200.613 115.491 203.372 112.081 205.288 109.139C207.082 106.385 206.955 104.368 203.566 102.839C199.704 101.097 199.49 97.8641 201.159 94.44C202.101 92.5081 203.613 90.8539 204.554 88.9214C205.713 86.5405 205.556 84.7036 202.475 83.4818C194.46 80.3043 193.951 77.2261 200.016 70.9148C203.351 67.4439 202.929 64.8758 198.691 62.8412C192.622 59.9277 192.01 57.4279 196.081 52.1815C201.17 45.6229 201.125 45.3537 194.211 41.0196C188.828 37.6454 188.661 33.7246 193.615 29.4738C194.965 28.3161 196.072 26.8761 197.583 25.2508C187.942 22.6333 187.884 22.6243 189.26 13.672C189.871 9.70316 188.808 6.74564 184.928 5.19645C180.877 3.57871 177.446 3.49588 174.487 7.73911C169.712 14.5891 167.564 14.6623 160.864 9.37857C157.406 6.65183 153.916 7.26444 152.226 10.8951C148.082 19.7945 147.369 20.027 139.192 15.1457C134.075 12.091 132.092 12.6593 129.36 17.9633C125.629 25.2059 121.936 25.8423 115.818 20.2971C111.278 16.1821 108.177 17.0838 106.175 23.1014C104.111 29.3058 99.659 30.8258 94.8639 26.6115C91.5909 23.7351 89.5656 24.4053 87.1905 27.6663C83.1539 33.208 79.942 33.8203 74.042 29.9546C69.518 26.9905 65.8191 28.3268 62.2677 31.3164C60.7616 32.5843 59.6197 34.2951 58.3606 35.844C56.0316 38.7091 53.617 38.4947 51.1533 36.0759C45.2102 30.2415 45.217 30.2342 42.9887 38.1997C42.9441 38.359 42.9556 38.5346 42.9068 38.6921C41.4812 43.2921 39.1339 44.1211 35.24 41.402C33.1154 39.9182 30.992 38.433 28.9273 36.9897C21.7859 45.099 22.2359 50.577 30.1118 56.4646C34.2983 59.594 34.4283 62.9317 30.4466 66.2638C28.7897 67.6505 26.6507 68.668 25.4834 70.3696C24.4871 71.8222 23.8224 74.2937 24.3876 75.7971C24.9223 77.2197 27.1591 78.1565 28.8196 78.9433C29.7976 79.4068 31.1393 79.0262 32.2687 79.26C37.0681 80.2538 38.3787 83.9541 35.2181 87.7163C33.9392 89.2387 32.2919 90.4475 30.9721 91.9403C27.4936 95.8751 28.442 98.953 33.6289 100.06C36.9579 100.77 40.3805 101.864 40.2589 105.549C40.1832 107.843 38.1372 110.546 36.2289 112.21C31.9985 115.898 31.9783 117.938 36.968 120.637C38.1383 121.27 39.3911 121.759 40.5266 122.446C43.9528 124.518 44.2278 127.366 41.2575 130.09C40.4046 130.873 39.3672 131.45 38.4477 132.164C35.5457 134.419 36.2901 136.396 39.1026 137.894C40.3938 138.581 41.9897 138.669 43.389 139.186C45.3002 139.893 47.1556 140.751 49.0349 141.544C48.0563 143.534 47.4416 145.841 46.0331 147.456C41.1954 153.003 41.3429 154.806 47.9828 158.561C51.5635 160.585 51.6713 162.953 49.218 165.787C48.2478 166.908 46.7607 167.618 45.9199 168.805C45.0492 170.035 44.1124 171.696 44.2945 173.018C44.4068 173.833 46.5643 174.355 47.7911 175.031C50.1371 176.324 54.1626 177.362 54.425 178.998C54.8334 181.543 52.7656 184.536 51.5665 187.26C51.1884 188.119 50.1217 188.647 49.5588 189.458C47.6704 192.177 48.2354 193.974 51.5403 195.009C61.1185 198.01 61.4407 199.282 54.8534 206.998C54.7453 207.125 54.6286 207.244 54.5241 207.374C50.7754 212.022 51.4888 214.531 57.0982 216.429C62.3548 218.207 62.9996 220.569 59.3375 224.668C58.4517 225.659 57.3415 226.51 56.6817 227.63C55.4004 229.805 55.7593 231.327 58.6313 231.855C66.5754 233.315 67.1864 235.359 62.3934 242.273C61.2147 243.974 61.0078 246.348 60.2081 248.873C68.2418 248.266 68.8049 248.724 69.7145 255.55C69.9123 257.035 69.8812 258.555 70.1471 260.025C70.7969 263.615 71.9381 266.858 76.2736 267.455C80.5611 268.046 82.4888 265.66 84.0029 262.02C87.0539 254.687 90.3214 253.766 96.3786 258.496C99.2249 260.718 101.013 260.957 103.093 257.551C106.756 251.553 108.089 251.355 113.494 255.72C116.552 258.19 118.697 258.414 121.242 254.882C125.32 249.223 127.602 249.149 133.047 253.597C136.648 256.539 138.25 256.187 140.211 252.023C144.143 243.673 147.181 243.02 153.816 249.099C158.402 253.301 159.632 252.921 161.003 246.88C162.307 241.13 166.156 239.809 170.88 243.505C171.665 244.119 172.38 244.823 173.148 245.462C175.745 247.622 177.531 247.056 178.881 243.971C182.055 236.721 184.122 236.111 190.815 240.213C195.397 243.021 196.288 242.698 198.173 237.542C200.071 232.354 203.737 231.224 208.321 234.438C209.904 235.547 211.448 236.71 213.635 238.305C214.618 232.198 217.47 229.008 223.252 230.098C227.013 230.807 229.446 229.235 230.91 226.056C232.503 222.596 230.297 220.465 227.836 218.488C220.156 212.316 220.177 212.305 223.895 203.446C224.888 201.082 225.431 199.293 221.769 198.373C216.405 197.024 215.508 192.61 219.358 188.622C223.477 184.356 223.239 183.233 217.7 180.779C213.177 178.775 212.455 176.559 215.452 171.779Z" fill="#2E2E2C"/>
<path d="M0.659027 100.92C3.44582 100.856 5.8373 100.856 8.22878 100.856C8.23257 101.394 8.23635 101.932 8.24014 102.471C5.49342 102.471 2.74671 102.471 0 102.471C0.087909 101.975 0.175815 101.479 0.659027 100.92Z" fill="#F0EFE8"/>
<path d="M18.5642 101.799C20.455 101.276 22.3371 101.113 24.2192 100.95C24.2134 101.544 24.2076 102.139 24.2018 102.734C22.3197 102.542 20.4376 102.351 18.5642 101.799Z" fill="#F0EFE8"/>
<path d="M215.194 172.04C212.455 176.559 213.177 178.775 217.7 180.779C223.239 183.233 223.477 184.357 219.358 188.622C215.508 192.61 216.405 197.024 221.769 198.373C225.431 199.294 224.888 201.082 223.895 203.446C220.177 212.305 220.156 212.316 227.836 218.488C230.297 220.466 232.503 222.596 230.91 226.056C229.446 229.235 227.013 230.807 223.252 230.098C217.47 229.008 214.618 232.198 213.635 238.305C211.448 236.71 209.904 235.547 208.321 234.438C203.737 231.224 200.071 232.354 198.173 237.542C196.287 242.698 195.397 243.021 190.815 240.213C184.122 236.112 182.055 236.721 178.881 243.971C177.531 247.056 175.745 247.622 173.148 245.462C172.38 244.823 171.665 244.119 170.879 243.505C166.156 239.809 162.307 241.13 161.003 246.88C159.632 252.921 158.402 253.301 153.816 249.099C147.181 243.02 144.143 243.673 140.211 252.024C138.25 256.187 136.648 256.539 133.047 253.597C127.602 249.149 125.32 249.223 121.242 254.883C118.697 258.414 116.552 258.19 113.493 255.72C108.088 251.356 106.756 251.553 103.093 257.551C101.013 260.957 99.2248 260.718 96.3785 258.496C90.3213 253.766 87.0538 254.687 84.0028 262.02C82.4888 265.66 80.561 268.046 76.2735 267.455C71.938 266.858 70.7968 263.615 70.147 260.025C69.8811 258.555 69.9122 257.035 69.7144 255.55C68.8048 248.724 68.2417 248.266 60.208 248.873C61.0077 246.348 61.2146 243.974 62.3933 242.273C67.1863 235.359 66.5754 233.315 58.6312 231.855C55.7593 231.327 55.4004 229.805 56.6816 227.63C57.3415 226.51 58.4516 225.659 59.3374 224.668C62.9995 220.569 62.3548 218.207 57.0981 216.429C51.4888 214.531 50.7753 212.023 54.524 207.374C54.6285 207.244 54.7452 207.125 54.8534 206.998C61.4406 199.282 61.1184 198.01 51.5403 195.009C48.2354 193.974 47.6704 192.177 49.5587 189.458C50.1216 188.647 51.1883 188.119 51.5665 187.26C52.7655 184.536 54.8333 181.543 54.4249 178.998C54.1625 177.362 50.137 176.324 47.7911 175.031C46.5642 174.355 44.4067 173.833 44.2944 173.018C44.1123 171.696 45.0491 170.035 45.9198 168.805C46.7606 167.618 48.2477 166.908 49.2179 165.787C51.6713 162.953 51.5634 160.585 47.9827 158.561C41.3428 154.806 41.1953 153.003 46.0331 147.456C47.4416 145.841 48.0562 143.534 49.0348 141.544C47.1555 140.751 45.3001 139.893 43.389 139.186C41.9897 138.669 40.3937 138.581 39.1026 137.894C36.29 136.396 35.5456 134.419 38.4477 132.164C39.3671 131.45 40.4045 130.873 41.2574 130.09C44.2277 127.366 43.9528 124.518 40.5265 122.446C39.3911 121.759 38.1383 121.27 36.9679 120.637C31.9782 117.938 31.9984 115.898 36.2289 112.21C38.1371 110.547 40.1831 107.843 40.2588 105.549C40.3804 101.864 36.9578 100.77 33.6288 100.06C28.4419 98.9531 27.4935 95.8751 30.972 91.9404C32.2918 90.4476 33.9391 89.2387 35.218 87.7163C38.3787 83.9542 37.068 80.2538 32.2687 79.2601C31.1392 79.0262 29.7976 79.4069 28.8196 78.9434C27.159 78.1566 24.9223 77.2197 24.3875 75.7971C23.8223 74.2938 24.487 71.8223 25.4834 70.3696C26.6506 68.668 28.7897 67.6505 30.4466 66.2639C34.4282 62.9318 34.2982 59.5941 30.1118 56.4646C22.2359 50.577 21.7858 45.099 28.9272 36.9898C30.992 38.433 33.1154 39.9183 35.2399 41.402C39.1338 44.1211 41.4811 43.2922 42.9068 38.6921C42.9555 38.5347 42.9441 38.3591 42.9886 38.1998C45.217 30.2342 45.2101 30.2415 51.1532 36.0759C53.617 38.4947 56.0316 38.7091 58.3605 35.844C59.6196 34.2952 60.7615 32.5844 62.2676 31.3165C65.819 28.3269 69.5179 26.9905 74.0419 29.9547C79.9419 33.8203 83.1539 33.2081 87.1904 27.6663C89.5655 24.4053 91.5909 23.7351 94.8638 26.6116C99.6589 30.8259 104.111 29.3059 106.175 23.1014C108.177 17.0839 111.278 16.1821 115.818 20.2971C121.936 25.8424 125.629 25.2059 129.36 17.9633C132.092 12.6593 134.075 12.091 139.192 15.1458C147.369 20.027 148.082 19.7945 152.226 10.8951C153.916 7.26448 157.406 6.65187 160.864 9.37862C167.564 14.6624 169.712 14.5892 174.487 7.73915C177.445 3.49592 180.877 3.57875 184.928 5.19649C188.808 6.74568 189.871 9.7032 189.26 13.672C187.884 22.6243 187.942 22.6333 197.583 25.2509C196.072 26.8762 194.965 28.3162 193.615 29.4738C188.661 33.7247 188.828 37.6455 194.211 41.0197C201.125 45.3537 201.17 45.6229 196.081 52.1815C192.01 57.4279 192.622 59.9277 198.691 62.8412C202.929 64.8758 203.35 67.444 200.016 70.9148C193.951 77.2261 194.46 80.3043 202.475 83.4819C205.556 84.7036 205.713 86.5405 204.554 88.9215C203.613 90.854 202.101 92.5081 201.159 94.4401C199.489 97.8642 199.704 101.097 203.566 102.839C206.955 104.368 207.082 106.386 205.288 109.139C203.372 112.081 200.613 115.491 203.494 118.571C205.415 120.625 209.199 120.938 213.217 122.426C212.488 123.836 211.617 126.147 210.23 128.09C205.609 134.564 206.574 138.93 213.497 142.494C218.09 144.858 215.967 148.451 214.556 151.406C211.452 157.908 211.291 157.831 216.836 161.68C219.981 163.864 219.502 167.362 215.194 172.04ZM82.9553 202.578C83.0458 203.304 83.1364 204.03 83.0478 205.495C83.3787 206.926 83.7095 208.356 84.0229 210.606C83.9633 211.671 83.9037 212.736 83.1477 213.866C72.539 219.485 69.346 226.681 73.5708 237.061C74.6202 239.64 77.226 242.382 79.7666 243.36C83.168 244.671 87.2027 244.337 91.8884 244.845C107.31 244.041 122.746 243.427 138.148 242.339C144.187 241.912 144.647 240.566 143.178 234.535C143.909 232.933 144.64 231.33 146.017 230.052C148.605 232.566 151.1 235.186 153.826 237.541C154.934 238.498 156.638 239.584 157.907 239.41C174.855 237.089 192.063 235.531 207.271 225.005C209.18 223.441 211.398 222.133 212.941 220.266C218.454 213.596 216.669 207.18 208.491 204.41C205.398 203.362 202.042 203.089 198.26 201.879C193.127 179.252 175.31 170.624 156.467 164.714C163.42 162.049 170.387 159.416 177.321 156.699C179.315 155.918 181.214 154.894 182.89 154.107C183.248 150.417 183.651 146.269 184.052 142.134C186.513 142.35 188.732 142.545 190.952 142.741C191.097 142.236 191.242 141.731 191.387 141.226C186.314 140.666 181.484 139.699 178.918 134.177C178.943 133.765 178.969 133.354 179.907 132.956C183.626 132.703 187.345 132.449 191.065 132.195C191.002 131.413 190.94 130.631 190.878 129.849C186.864 130.256 182.85 130.662 178.08 131.078C175.431 128.301 172.782 125.524 170.033 121.875C169.789 119.856 169.545 117.836 169.654 115.213C169.643 114.753 169.633 114.293 169.946 113.133C170.098 111.211 170.61 109.23 170.307 107.383C169.948 105.199 168.838 103.219 165.418 105.023C164.909 105.263 164.401 105.503 163.149 105.701C161.71 105.994 160.272 106.287 158.079 106.402C157.054 106.46 156.029 106.519 154.305 106.302C151.519 105.709 148.734 105.117 145.949 104.524C146.639 101.528 147.184 99.1598 148.16 96.0946C151.439 76.7665 144.098 64.603 125.47 58.4007C124.198 57.9772 123.051 57.1803 122.544 56.6612C127.109 52.6428 131.878 48.8228 136.101 44.4726C137.215 43.3251 137.552 39.7501 136.633 38.6922C135.236 37.085 132.493 36.3802 130.196 35.9338C129.005 35.7023 127.546 36.849 127.243 36.968C125.138 35.1336 123.547 32.5539 121.762 32.4115C116.117 31.9613 116.088 37.502 114.756 40.3994C111.891 38.2033 109.41 35.8793 106.491 34.4517C105.965 34.1945 103.635 37.6262 102.04 39.4682C96.6216 36.978 92.1906 38.0719 89.7244 42.8323C87.9593 46.2394 89.8922 49.5186 95.9001 52.5459C99.4888 54.3542 103.301 55.7199 108.049 57.7215C102.332 57.6089 98.106 58.2675 96.5369 63.4625C95.2716 67.6515 97.5812 69.9378 99.8208 70.6989C100.92 74.3189 100.973 77.6558 102.654 79.1078C104.206 80.4484 107.687 80.4137 109.975 79.7676C111.729 79.2724 113.418 77.1135 114.314 75.2905C116.906 70.0186 117.402 64.5097 115.035 58.8958C114.788 58.3098 115.618 57.2695 116.09 57.2224C117.149 57.8396 118.148 58.6073 119.276 59.0477C124.194 60.9688 129.558 62.1131 134.011 64.7873C145.836 71.8889 148.365 83.047 145.873 96.6413C145.257 98.8248 144.642 101.008 143.837 103.865C141.416 102.715 139.227 102.176 137.714 100.861C133.36 97.0761 129.1 93.145 125.149 88.9449C122.295 85.9096 120.94 85.6448 119.278 88.8841C114.879 97.4586 109.126 99.5224 99.8327 95.1393C97.2804 91.6065 94.728 88.0738 92.1756 84.541C91.608 84.9708 91.0403 85.4007 90.4727 85.8306C92.9607 89.1608 95.4488 92.491 98.05 96.5811C94.7376 98.2868 91.4251 99.9926 87.8402 101.076C84.8898 98.7874 82.2859 95.5854 76.9414 97.1324C80.3352 98.9823 82.9956 100.432 86.1643 102.583C83.1884 109.031 82.2093 115.798 82.1447 122.832C79.8296 123.471 77.5144 124.109 75.1992 124.748C75.3318 125.258 75.4643 125.767 75.5969 126.277C78.7315 126.047 81.8662 125.816 85.2475 126.26C87.6899 130.512 90.1323 134.764 92.6322 139.116C86.5131 147.567 84.5395 157.482 83.2637 168.453C83.1043 178.932 82.9448 189.411 82.5933 200.554C82.7313 200.985 82.8694 201.416 82.9553 202.578ZM177.918 85.1334C177.537 83.7265 177.156 82.3195 176.775 80.9126C176.525 81.0079 176.276 81.1033 176.026 81.1986C174.736 87.0475 173.446 92.8964 172.442 97.4478C176.429 102.121 179.857 106.139 182.995 109.819C184.623 103.92 186.181 98.2739 187.703 92.7603C184.714 90.648 181.362 88.2794 177.918 85.1334Z" fill="#F6F5EC"/>
<path d="M82.9262 122.836C82.2094 115.798 83.1885 109.031 86.3193 102.197C87.0204 101.773 87.5666 101.736 88.1128 101.698C91.4252 99.9926 94.7377 98.2868 98.3188 96.2187C99.0215 95.8503 99.4556 95.8443 99.8897 95.8382C109.126 99.5224 114.879 97.4586 119.278 88.8841C120.94 85.6448 122.295 85.9096 125.149 88.9449C129.1 93.145 133.36 97.0761 137.714 100.861C139.227 102.176 141.416 102.715 143.837 103.865C144.642 101.009 145.258 98.8249 146.185 96.3358C146.909 96.284 147.319 96.5378 147.73 96.7916C147.185 99.1598 146.639 101.528 145.949 104.524C148.734 105.117 151.52 105.709 154.621 106.833C154.931 108.154 154.927 108.943 154.516 109.804C140.934 108.855 130.656 102.45 122.273 92.0598C118.111 100.373 111.696 102.628 103.27 100.736C102.332 101.061 101.629 101.44 100.561 101.596C89.4487 102.153 83.7959 112.152 87.3395 120.955C89.7664 126.984 93.0226 133.213 97.5051 137.788C116.257 156.927 139.864 161.405 165.441 158.034C169.363 157.517 172.991 154.757 177.739 152.584C174.777 150.752 173.235 149.797 171.692 148.843C171.841 148.501 171.991 148.158 172.14 147.816C174.235 148.477 176.33 149.139 179.323 150.083C179.489 147.535 180.333 144.909 179.515 142.993C179.076 141.964 175.795 141.972 173.775 141.835C171.107 141.654 168.418 141.791 165.738 141.791C165.705 141.325 165.671 140.859 165.637 140.394C169.521 139.962 173.404 139.53 177.592 139.064C176.64 137.449 175.971 136.315 175.762 135.095C177.152 134.936 178.083 134.864 179.015 134.791C181.484 139.699 186.314 140.666 191.388 141.226C191.243 141.731 191.098 142.236 190.952 142.741C188.733 142.545 186.513 142.35 184.052 142.134C183.651 146.269 183.248 150.417 182.89 154.107C181.214 154.894 179.315 155.918 177.321 156.699C170.387 159.416 163.42 162.049 156.467 164.714C175.31 170.624 193.127 179.252 198.561 202.473C198.901 203.672 198.941 204.277 198.941 205.314C199.441 212.223 199.98 218.701 200.542 225.463C201.876 225.059 203.25 224.642 205.126 224.437C205.962 224.795 206.295 224.94 206.629 225.084C192.063 235.531 174.855 237.089 157.907 239.41C156.638 239.584 154.934 238.498 153.826 237.541C151.101 235.186 148.605 232.566 145.684 229.91C145.351 229.768 145.318 229.785 145.236 229.606C144.805 229.214 144.456 229 143.958 228.476C137.454 222.897 131.962 216.978 129.003 209.058C125.454 199.557 127.083 190.409 133.584 185.257C135.184 183.989 137.317 183.393 139.745 182.23C139.88 184.185 139.862 184.838 139.981 185.466C140.326 187.289 140.727 189.101 141.105 190.917C143.521 190.073 146.343 189.715 148.182 188.18C149.096 187.417 148.861 184.135 148.022 182.612C144.463 176.15 135.007 175.264 129.517 180.607C122.369 187.563 119.822 204.422 125.293 212.837C129.259 218.939 134.198 224.408 138.79 230.441C139.531 231.434 140.185 232.144 140.892 233.126C141.438 233.924 141.933 234.45 142.427 234.976C144.647 240.566 144.187 241.912 138.148 242.339C122.746 243.427 107.31 244.041 91.596 244.528C92.1508 243.739 92.9981 243.268 94.2515 242.773C95.738 242.737 96.8184 242.725 98.0864 242.934C98.7419 242.941 99.2097 242.726 99.6775 242.511C99.0211 242.009 98.3646 241.508 97.421 240.834C90.4298 234.235 87.474 225.946 85.5546 216.838C85.656 216.009 85.667 215.529 86.0452 214.986C86.9065 214.889 87.4005 214.856 87.9524 215.038C88.0102 215.253 87.9775 215.698 88.0038 216.012C88.6379 217.152 89.2458 217.978 89.8423 219.182C91.4001 223.405 92.8547 227.301 94.5644 231.082C97.4379 237.437 102.383 241.086 109.445 240.854C119.336 240.528 129.212 239.781 140.495 239.134C138.255 236.157 137.022 234.485 135.754 232.839C131.691 227.563 127.479 222.395 123.573 217.005C115.749 206.209 117.841 186.511 127.628 177.359C135.263 170.221 148.314 172.955 152.356 182.568C153.984 186.44 153.414 189.975 149.589 192.036C147.043 193.409 143.886 194.902 141.268 194.521C138.885 194.173 136.861 191.369 134.382 189.413C131.61 192.858 130.49 196.971 131.074 201.639C131.978 208.876 135.208 214.985 140.383 219.977C145.636 225.045 151.13 229.867 156.6 234.705C157.227 235.26 158.431 235.552 159.276 235.413C169.126 233.79 179.038 232.42 188.766 230.24C195.657 228.696 197.559 224.365 195.915 216.514C195.963 215.484 196.003 214.799 196.023 213.679C195.678 210.779 195.391 208.308 195.023 205.849C192.959 192.067 185.737 181.959 173.295 175.679C172.008 175.03 170.367 175.083 168.579 174.8C167.852 174.804 167.437 174.818 167.071 174.439C162.819 172.012 158.665 169.545 154.19 168.022C133.87 161.103 111.885 158.123 95.3013 142.01C89.5482 150.095 88.7985 159.165 86.4263 167.82C85.2216 167.785 84.4186 167.756 83.6156 167.727C84.5396 157.482 86.5132 147.567 92.6323 139.116C90.1324 134.764 87.69 130.512 85.0984 125.622C84.2749 124.268 83.6006 123.552 82.9262 122.836Z" fill="#2E2E2C"/>
<path d="M115.949 56.44C115.619 57.2695 114.788 58.3098 115.035 58.8958C117.403 64.5096 116.906 70.0186 114.315 75.2904C113.418 77.1135 111.729 79.2723 109.975 79.7676C107.687 80.4137 104.207 80.4484 102.654 79.1078C100.973 77.6557 100.92 74.3188 99.8209 70.6989C97.5813 69.9377 95.2717 67.6515 96.5369 63.4625C98.106 58.2675 102.332 57.6089 108.049 57.7215C103.301 55.7198 99.4889 54.3542 95.9002 52.5459C89.8923 49.5185 87.9594 46.2394 89.7245 42.8322C92.1907 38.0718 96.6217 36.9779 102.04 39.4681C103.635 37.6262 105.965 34.1945 106.491 34.4517C109.411 35.8793 111.892 38.2033 114.756 40.3994C116.088 37.502 116.117 31.9613 121.762 32.4115C123.547 32.5539 125.138 35.1336 127.243 36.968C127.547 36.8489 129.005 35.7022 130.197 35.9337C132.493 36.3802 135.236 37.085 136.633 38.6921C137.552 39.7501 137.215 43.3251 136.101 44.4726C131.878 48.8228 127.109 52.6428 122.066 56.2701C121.589 51.6161 121.589 47.3532 121.589 43.0903C121.274 43.032 120.96 42.9736 120.646 42.9153C119.08 47.4236 117.515 51.9318 115.949 56.44Z" fill="#1E1E1E"/>
<path d="M83.4397 168.09C84.4186 167.756 85.2216 167.785 86.4689 168.24C88.0192 169.356 89.1975 170.73 90.2193 170.622C96.0052 170.012 101.741 168.941 107.521 168.251C109.993 167.955 112.53 168.201 115.038 168.201C115.156 168.763 115.274 169.324 115.392 169.885C108.736 177.012 97.682 174.135 90.4359 180.315C95.7888 179.729 101.142 179.142 106.495 178.556C106.638 179.145 106.781 179.735 106.924 180.325C101.958 182.746 96.9917 185.166 92.0254 187.587C92.1964 187.899 92.3675 188.212 92.5385 188.524C96.9994 188.524 101.46 188.524 105.921 188.524C106.036 188.978 106.15 189.432 106.265 189.886C104.79 190.597 103.382 191.626 101.826 191.953C98.4138 192.671 94.9412 193.221 91.4661 193.492C87.3122 193.816 85.4022 195.679 85.7216 199.907C84.4631 199.902 83.6243 199.896 82.7854 199.89C82.9449 189.411 83.1043 178.932 83.4397 168.09Z" fill="#272525"/>
<path d="M116.02 56.8312C117.515 51.9318 119.08 47.4236 120.646 42.9153C120.96 42.9736 121.274 43.032 121.589 43.0903C121.589 47.3532 121.589 51.6162 121.717 56.218C123.051 57.1802 124.198 57.9772 125.47 58.4007C144.098 64.603 151.439 76.7665 147.945 96.4431C147.319 96.5378 146.908 96.284 146.269 95.9479C148.365 83.0469 145.836 71.8889 134.011 64.7873C129.558 62.113 124.194 60.9688 119.276 59.0477C118.148 58.6073 117.149 57.8396 116.02 56.8312Z" fill="#4F4D4C"/>
<path d="M177.965 85.5222C181.362 88.2794 184.714 90.6479 187.703 92.7603C186.182 98.2739 184.623 103.92 182.996 109.819C179.857 106.139 176.429 102.121 172.442 97.4478C173.446 92.8964 174.736 87.0475 176.026 81.1986C176.276 81.1033 176.526 81.0079 176.775 80.9126C177.156 82.3195 177.537 83.7265 177.965 85.5222ZM183.77 97.2814C184.232 96.0918 184.694 94.9022 185.22 93.5469C182.46 92.2959 179.859 91.1166 177.13 89.8796C176.283 92.3913 175.496 94.7242 174.709 97.0571C175.236 96.5493 175.763 96.0414 176.29 95.5336C178.153 98.1664 180.016 100.799 182.048 103.67C182.567 101.748 183.066 99.9001 183.77 97.2814Z" fill="#4F4D4C"/>
<path d="M93.8455 242.797C92.9982 243.268 92.1509 243.739 91.1346 244.46C87.2029 244.337 83.1681 244.671 79.7667 243.36C77.2261 242.382 74.6203 239.64 73.5709 237.061C69.3462 226.681 72.5391 219.485 83.7558 213.937C84.8019 214.355 85.24 214.702 85.6781 215.049C85.6671 215.529 85.6561 216.009 85.2234 216.699C76.4236 218.119 72.5674 225.894 75.3672 235.716C76.3489 239.16 78.4917 241.112 81.9895 241.534C85.9349 242.009 89.8929 242.38 93.8455 242.797Z" fill="#4F4D4C"/>
<path d="M206.95 225.045C206.295 224.94 205.962 224.795 205.358 224.221C206.575 222.741 208.652 222.006 209.427 220.569C210.989 217.671 213.055 214.194 212.588 211.335C212.242 209.215 208.41 207.316 205.783 206.031C203.801 205.063 201.268 205.224 198.981 204.882C198.941 204.277 198.901 203.672 198.834 202.765C202.042 203.089 205.398 203.362 208.491 204.409C216.669 207.18 218.454 213.596 212.941 220.266C211.398 222.133 209.18 223.441 206.95 225.045Z" fill="#4F4D4C"/>
<path d="M169.301 115.817C169.545 117.836 169.789 119.856 169.757 122.349C168.631 123.664 167.78 124.504 166.57 125.52C163.958 126.344 161.989 127.015 162.042 130.121C162.062 131.336 160.664 132.575 159.912 133.384C160.24 130.068 160.567 127.17 161.355 124.316C163.295 124.112 164.775 123.864 166.117 123.64C166.117 120.601 166.117 118.208 166.437 115.821C167.604 115.824 168.452 115.82 169.301 115.817Z" fill="#2E2E2C"/>
<path d="M166.93 125.345C167.78 124.504 168.631 123.664 169.807 122.785C172.782 125.524 175.431 128.301 178.441 131.388C178.865 132.112 178.93 132.527 178.994 132.942C178.969 133.354 178.944 133.765 178.967 134.484C178.083 134.864 177.152 134.936 175.425 134.983C173.767 134.695 172.904 134.434 172.062 134.007C172.082 133.84 171.948 133.532 171.906 133.258C171.831 132.803 171.797 132.621 171.72 132.119C170.094 129.648 168.512 127.496 166.93 125.345Z" fill="#272525"/>
<path d="M166.002 105.054C168.839 103.219 169.948 105.199 170.307 107.383C170.61 109.23 170.098 111.211 169.451 113.481C168.065 113.831 167.174 113.832 166.237 113.48C166.378 111.714 166.567 110.302 167.019 108.715C166.856 107.377 166.429 106.216 166.002 105.054Z" fill="#2E2E2C"/>
<path d="M99.8612 95.4887C99.4556 95.8442 99.0215 95.8503 98.2621 95.8388C95.4488 92.491 92.9608 89.1608 90.4728 85.8306C91.0404 85.4007 91.608 84.9708 92.1756 84.541C94.728 88.0738 97.2804 91.6065 99.8612 95.4887Z" fill="#5D5C5B"/>
<path d="M179.45 132.949C178.93 132.527 178.865 132.112 178.818 131.383C182.85 130.662 186.864 130.256 190.879 129.849C190.941 130.631 191.003 131.413 191.065 132.195C187.345 132.449 183.626 132.703 179.45 132.949Z" fill="#5D5C5B"/>
<path d="M87.9765 101.387C87.5666 101.736 87.0204 101.773 86.0651 101.846C82.9957 100.432 80.3353 98.9822 76.9415 97.1324C82.2859 95.5854 84.8898 98.7874 87.9765 101.387Z" fill="#5D5C5B"/>
<path d="M82.5354 122.834C83.6005 123.552 84.2748 124.268 84.975 125.285C81.8662 125.816 78.7316 126.047 75.5969 126.277C75.4643 125.767 75.3318 125.258 75.1992 124.748C77.5144 124.109 79.8296 123.471 82.5354 122.834Z" fill="#5D5C5B"/>
<path d="M86.0453 214.986C85.24 214.702 84.8019 214.355 84.104 213.904C83.9038 212.736 83.9634 211.671 84.3083 209.918C84.7885 208.745 84.9834 208.262 85.629 207.658C86.6846 209.966 87.2896 212.394 87.8946 214.822C87.4006 214.856 86.9065 214.889 86.0453 214.986Z" fill="#272525"/>
<path d="M158.834 106.58C160.272 106.287 161.711 105.994 163.526 106.128C163.907 107.368 163.909 108.181 163.618 109.22C161.855 109.548 160.385 109.65 158.919 109.354C158.894 108.165 158.864 107.372 158.834 106.58Z" fill="#2E2E2C"/>
<path d="M163.912 108.994C163.909 108.181 163.906 107.368 163.898 106.15C164.401 105.503 164.909 105.263 165.71 105.039C166.429 106.216 166.856 107.377 166.662 108.687C165.331 108.888 164.621 108.941 163.912 108.994Z" fill="#272525"/>
<path d="M158.457 106.491C158.864 107.372 158.894 108.165 158.527 109.454C157.062 109.878 155.992 109.805 154.923 109.733C154.927 108.943 154.931 108.154 154.97 106.971C156.029 106.519 157.054 106.46 158.457 106.491Z" fill="#272525"/>
<path d="M83.2268 204.756C83.1363 204.03 83.0458 203.304 83.3956 202.193C84.663 201.748 85.4901 201.688 86.4409 202.11C86.0664 203.914 85.5683 205.237 84.985 206.217C84.3422 205.501 83.7845 205.128 83.2268 204.756Z" fill="#272525"/>
<path d="M83.1375 205.125C83.7846 205.128 84.3423 205.501 84.9261 206.15C84.9523 206.426 85.0249 206.273 84.8934 206.533C84.8601 207.311 84.9583 207.829 84.9989 208.185C84.9412 208.024 85.1783 207.778 85.1783 207.778C84.9834 208.262 84.7885 208.745 84.3171 209.508C83.7097 208.356 83.3788 206.926 83.1375 205.125Z" fill="#4F4D4C"/>
<path d="M142.803 234.756C141.933 234.45 141.438 233.924 141.261 233.058C142.825 231.74 144.072 230.762 145.318 229.785C145.318 229.785 145.351 229.768 145.361 229.748C144.64 231.33 143.909 232.933 142.803 234.756Z" fill="#E2E2DA"/>
<path d="M166.284 113.834C167.174 113.832 168.065 113.831 169.289 113.831C169.633 114.293 169.643 114.753 169.477 115.515C168.452 115.82 167.604 115.824 166.394 115.487C166.115 114.709 166.2 114.271 166.284 113.834Z" fill="#272525"/>
<path d="M86.3173 201.629C85.4902 201.688 84.6631 201.748 83.4218 201.827C82.8695 201.416 82.7314 200.985 82.6893 200.222C83.6242 199.896 84.4631 199.902 85.8744 200.173C86.4036 200.835 86.3605 201.232 86.3173 201.629Z" fill="#4F4D4C"/>
<path d="M86.4409 202.11C86.3605 201.232 86.4036 200.835 86.294 200.172C85.4022 195.679 87.3122 193.816 91.4661 193.492C94.9412 193.221 98.4138 192.671 101.826 191.953C103.382 191.626 104.79 190.597 106.265 189.886C106.15 189.432 106.036 188.978 105.921 188.524C101.46 188.524 96.9993 188.524 92.5385 188.524C92.3675 188.212 92.1964 187.899 92.0254 187.587C96.9917 185.166 101.958 182.746 106.924 180.325C106.781 179.735 106.638 179.145 106.495 178.556C101.142 179.142 95.7888 179.729 90.4359 180.315C97.682 174.135 108.736 177.012 115.392 169.885C115.274 169.324 115.156 168.763 115.038 168.201C112.53 168.201 109.993 167.955 107.521 168.251C101.741 168.941 96.0052 170.012 90.2193 170.622C89.1974 170.73 88.0192 169.356 86.8706 168.246C88.7985 159.165 89.5482 150.094 95.3012 142.01C111.884 158.123 133.87 161.103 154.19 168.022C158.665 169.545 162.819 172.012 166.808 174.766C166.726 181.02 165.873 186.872 167.395 192.023C171.422 205.661 182.623 217.684 195.908 216.858C197.559 224.365 195.657 228.696 188.766 230.24C179.038 232.42 169.125 233.79 159.276 235.413C158.431 235.552 157.227 235.26 156.599 234.705C151.13 229.867 145.636 225.045 140.383 219.977C135.208 214.985 131.978 208.876 131.073 201.639C130.49 196.971 131.61 192.858 134.382 189.413C136.861 191.369 138.885 194.173 141.268 194.521C143.886 194.902 147.043 193.409 149.589 192.036C153.414 189.975 153.984 186.44 152.356 182.568C148.314 172.955 135.263 170.221 127.628 177.359C117.841 186.51 115.749 206.209 123.573 217.005C127.478 222.395 131.691 227.563 135.754 232.839C137.022 234.485 138.255 236.157 140.495 239.134C129.212 239.781 119.335 240.528 109.445 240.854C102.383 241.086 97.4378 237.437 94.5643 231.082C92.8547 227.301 91.4 223.405 90.2332 219.16C94.1493 217.686 97.6629 216.613 101.14 215.551C100.565 217.822 100.114 219.605 99.6632 221.388C101.823 221.35 104.04 221.607 106.129 221.201C108.883 220.665 111.491 219.324 114.25 218.89C115.76 218.652 117.451 219.571 120.248 220.261C121.951 218.927 121.091 217.05 118.204 216.455C116.071 216.016 113.619 216.67 111.401 217.213C108.422 217.943 105.532 219.036 102.604 219.972C102.103 219.348 101.602 218.725 101.101 218.101C103.771 216.617 106.441 215.132 109.111 213.648C108.592 212.866 108.072 212.085 107.553 211.303C104.657 212.05 101.778 212.876 98.8607 213.524C95.2501 214.326 91.6067 214.98 87.9774 215.698C87.9774 215.698 88.0101 215.253 87.9523 215.038C87.2895 212.394 86.6845 209.966 85.6289 207.658C85.1782 207.778 84.9412 208.024 85.4042 207.66C85.5864 206.955 85.3056 206.614 85.0249 206.273C85.0249 206.273 84.9523 206.426 85.0113 206.493C85.5684 205.237 86.0664 203.914 86.4409 202.11Z" fill="#EEEBE6"/>
<path d="M166.237 113.48C166.2 114.271 166.115 114.709 166.074 115.481C166.117 118.208 166.117 120.601 166.117 123.64C164.775 123.864 163.295 124.112 161.151 123.99C155.015 118.901 148.945 121.151 142.871 121.807C139.997 122.117 135.097 121.895 134.315 120.323C130.086 111.816 121.804 111.091 114.395 108.598C113.657 108.349 112.057 108.645 111.87 109.102C110.484 112.502 108.113 116.164 108.527 119.43C108.87 122.142 112.155 125.672 114.903 126.622C119.578 128.238 124.855 128.112 129.917 129.074C128.278 131.57 126.602 133.708 124.56 135.943C121.021 136.398 117.817 137.101 114.696 136.834C114.066 136.78 113.751 133.054 112.969 129.602C111.846 132.161 110.313 133.974 110.64 135.341C111.035 136.992 112.741 138.923 114.349 139.574C118.713 141.342 122.808 140.156 126.683 137.066C127.263 137.474 127.653 137.851 127.692 138.261C128.329 144.924 136.396 150.54 142.8 148.745C146.86 147.606 147.857 145.188 145.633 141.868C143.602 146.724 141.036 147.81 136.268 145.829C130.002 143.226 128.773 140.333 130.863 133.576C131.385 131.889 133.898 129.536 129.567 128.448C132.488 122.436 132.488 122.436 135.664 124.102C133.801 130.298 134.049 131.204 140.058 133.859C143.503 135.38 147.197 136.433 150.869 137.322C154.543 138.211 157.741 137.142 159.912 133.802C160.664 132.575 162.062 131.336 162.042 130.121C161.989 127.015 163.958 126.344 166.57 125.52C168.512 127.496 170.094 129.648 171.48 132.135C171.284 132.471 170.87 132.713 170.485 132.682C166.86 133.982 163.62 135.314 160.381 136.646C160.619 137.161 160.858 137.675 161.096 138.19C164.745 136.851 168.393 135.512 172.042 134.173C172.904 134.434 173.767 134.695 174.966 135.069C175.971 136.315 176.64 137.449 177.592 139.064C173.404 139.53 169.521 139.962 165.637 140.394C165.671 140.859 165.705 141.325 165.738 141.791C168.418 141.791 171.107 141.654 173.775 141.835C175.795 141.972 179.076 141.964 179.515 142.993C180.333 144.909 179.489 147.535 179.323 150.083C176.33 149.139 174.235 148.477 172.14 147.816C171.991 148.158 171.841 148.5 171.692 148.843C173.235 149.797 174.777 150.752 177.739 152.584C172.991 154.757 169.363 157.517 165.441 158.034C139.864 161.405 116.257 156.927 97.5051 137.788C93.0226 133.213 89.7664 126.984 87.3395 120.955C83.7959 112.152 89.4487 102.153 100.591 101.978C102.233 106.3 103.48 110.02 104.727 113.739C105.3 113.575 105.873 113.412 106.446 113.248C105.466 109.095 104.486 104.941 103.506 100.788C111.696 102.628 118.111 100.373 122.273 92.0598C130.656 102.45 140.934 108.855 154.516 109.804C155.992 109.805 157.061 109.878 158.523 109.85C160.385 109.65 161.855 109.548 163.618 109.22C164.622 108.941 165.331 108.888 166.398 108.863C166.567 110.302 166.378 111.714 166.237 113.48Z" fill="#F0EFE8"/>
<path d="M168.891 174.811C170.367 175.083 172.008 175.03 173.295 175.679C185.737 181.959 192.959 192.067 195.023 205.849C195.391 208.308 195.678 210.779 195.59 213.821C188.938 214.724 183.693 212.243 179.564 207.906C170.758 198.656 165.911 187.948 168.891 174.811Z" fill="#EEEBE6"/>
<path d="M138.703 230.16C134.198 224.408 129.259 218.939 125.293 212.837C119.822 204.422 122.369 187.563 129.517 180.607C135.007 175.264 144.463 176.15 148.022 182.612C148.861 184.135 149.096 187.417 148.182 188.18C146.343 189.715 143.521 190.073 141.105 190.917C140.726 189.101 140.326 187.289 139.981 185.466C139.862 184.838 139.88 184.185 139.745 182.23C137.317 183.393 135.184 183.989 133.584 185.257C127.083 190.409 125.454 199.557 129.003 209.058C131.962 216.978 137.454 222.897 143.531 228.497C141.736 229.272 140.219 229.716 138.703 230.16Z" fill="#E2E2DA"/>
<path d="M94.2515 242.773C89.8929 242.38 85.9348 242.009 81.9894 241.534C78.4916 241.112 76.3488 239.16 75.3671 235.716C72.5673 225.894 76.4235 218.119 85.1329 217.048C87.4739 225.946 90.4297 234.235 97.472 241.115C97.8397 241.951 97.8692 242.332 97.8987 242.713C96.8183 242.725 95.738 242.737 94.2515 242.773Z" fill="#73B879"/>
<path d="M198.941 205.314C201.268 205.224 203.801 205.063 205.783 206.031C208.41 207.316 212.242 209.215 212.588 211.335C213.055 214.194 210.989 217.671 209.427 220.569C208.652 222.006 206.575 222.741 204.855 224.009C203.249 224.642 201.876 225.059 200.542 225.463C199.98 218.701 199.441 212.223 198.941 205.314Z" fill="#73B879"/>
<path d="M88.0037 216.012C91.6066 214.98 95.25 214.326 98.8607 213.524C101.778 212.876 104.657 212.05 107.553 211.303C108.072 212.085 108.591 212.866 109.111 213.648C106.441 215.132 103.771 216.617 101.101 218.101C101.602 218.725 102.103 219.348 102.604 219.972C105.532 219.036 108.422 217.943 111.401 217.213C113.619 216.67 116.071 216.016 118.204 216.455C121.091 217.05 121.951 218.927 120.248 220.261C117.451 219.571 115.76 218.652 114.25 218.89C111.491 219.324 108.883 220.665 106.129 221.201C104.04 221.607 101.823 221.35 99.6631 221.388C100.114 219.605 100.565 217.822 101.139 215.551C97.6629 216.613 94.1493 217.686 90.2446 218.782C89.2457 217.978 88.6378 217.152 88.0037 216.012ZM102.918 215.323C102.718 215.19 102.518 215.056 102.318 214.923C102.352 215.223 102.385 215.523 102.918 215.323Z" fill="#4F4D4C"/>
<path d="M168.579 174.8C165.911 187.948 170.758 198.656 179.564 207.906C183.693 212.243 188.938 214.724 195.61 214.255C196.003 214.799 195.963 215.484 195.915 216.514C182.623 217.684 171.422 205.661 167.395 192.023C165.873 186.872 166.726 181.02 166.759 175.16C167.437 174.818 167.852 174.804 168.579 174.8Z" fill="#4F4D4C"/>
<path d="M103.27 100.736C104.486 104.941 105.466 109.095 106.446 113.248C105.873 113.412 105.3 113.575 104.727 113.739C103.48 110.02 102.233 106.3 100.957 102.2C101.629 101.44 102.332 101.061 103.27 100.736Z" fill="#5D5C5B"/>
<path d="M138.79 230.441C140.22 229.716 141.736 229.272 143.679 228.807C144.456 229 144.805 229.214 145.236 229.606C144.072 230.762 142.825 231.74 141.209 232.786C140.185 232.144 139.531 231.434 138.79 230.441Z" fill="#F6F5EC"/>
<path d="M183.667 97.6667C183.066 99.9001 182.567 101.748 182.048 103.67C180.016 100.799 178.153 98.1664 176.29 95.5336C175.763 96.0414 175.236 96.5493 174.709 97.0571C175.496 94.7242 176.283 92.3913 177.13 89.8796C179.859 91.1166 182.46 92.2959 185.22 93.5469C184.694 94.9022 184.232 96.0918 183.667 97.6667Z" fill="#E7E6DE"/>
<path d="M129.879 128.718C124.855 128.112 119.578 128.238 114.903 126.622C112.155 125.671 108.87 122.142 108.527 119.43C108.113 116.164 110.484 112.502 111.87 109.102C112.057 108.645 113.657 108.349 114.395 108.598C121.804 111.091 130.087 111.816 134.315 120.323C135.097 121.895 139.997 122.117 142.871 121.807C148.945 121.151 155.015 118.9 160.69 123.947C160.567 127.17 160.24 130.068 159.912 133.384C157.741 137.142 154.543 138.211 150.869 137.322C147.197 136.433 143.504 135.38 140.058 133.858C134.049 131.204 133.801 130.298 135.664 124.102C132.488 122.436 132.488 122.436 129.609 128.462C129.891 128.804 129.879 128.718 129.879 128.718Z" fill="#272525"/>
<path d="M172.062 134.007C168.393 135.512 164.745 136.851 161.096 138.19C160.858 137.675 160.619 137.161 160.381 136.646C163.62 135.314 166.86 133.982 170.596 132.903C171.291 133.477 171.576 133.602 171.947 133.532C171.947 133.532 172.082 133.84 172.062 134.007Z" fill="#4F4D4C"/>
<path d="M171.906 133.258C171.576 133.602 171.291 133.477 170.981 132.934C170.87 132.713 171.284 132.471 171.524 132.455C171.797 132.621 171.831 132.803 171.906 133.258Z" fill="#2E2E2C"/>
<path d="M84.8933 206.533C85.3056 206.614 85.5863 206.955 85.4618 207.821C84.9582 207.829 84.86 207.311 84.8933 206.533Z" fill="#272525"/>
<path d="M129.849 128.79C133.898 129.536 131.385 131.889 130.863 133.576C128.773 140.333 130.002 143.226 136.268 145.829C141.036 147.81 143.602 146.724 145.633 141.868C147.857 145.188 146.86 147.606 142.8 148.745C136.396 150.54 128.329 144.924 127.692 138.261C127.653 137.851 127.263 137.474 126.393 136.933C125.476 136.472 125.201 136.16 124.926 135.847C126.602 133.708 128.278 131.57 129.917 129.074C129.879 128.718 129.891 128.804 129.849 128.79Z" fill="#4F4D4C"/>
<path d="M124.56 135.943C125.201 136.16 125.476 136.472 126.04 136.917C122.809 140.156 118.713 141.342 114.349 139.574C112.741 138.923 111.035 136.992 110.64 135.341C110.313 133.974 111.846 132.161 112.969 129.602C113.751 133.054 114.066 136.78 114.696 136.834C117.817 137.101 121.021 136.398 124.56 135.943Z" fill="#5D5C5B"/>
<path d="M102.668 215.573C102.385 215.523 102.352 215.223 102.318 214.923C102.518 215.056 102.718 215.19 102.668 215.573Z" fill="#EEEBE6"/>
</svg>
