<svg width="222" height="180" viewBox="0 0 222 180" fill="none" xmlns="http://www.w3.org/2000/svg">
<path d="M181.846 23.4277C183.183 26.7212 185.095 25.28 187.179 23.7516C193.896 20.4551 194.932 20.8959 198.94 26.3539C199.824 27.5574 202.583 28.3251 204.125 27.9263C208.636 26.7597 212.647 26.9644 216.384 29.9091C220.732 33.3348 221.09 35.9766 217.776 40.4892C216.916 41.6601 216.101 42.8642 215.074 44.3252C216.258 45.1792 217.184 45.8133 218.074 46.4941C222.061 49.5442 222.363 53.0614 218.167 55.7043C214.359 58.1028 214.722 60.0522 216.943 63.2634C220.084 67.8051 219.378 70.5014 214.529 73.5399C212.118 75.0509 210.583 76.3329 212.297 79.4048C214.252 82.9088 212.568 85.8239 210.121 88.3636C208.435 90.1136 207.47 91.6596 209.698 93.8119C213.182 97.1779 212.194 100.495 208.799 103.129C205.487 105.699 204.612 108.418 206.776 112.143C209.311 116.505 208.264 120.179 204.079 122.854C201.084 124.77 200.168 126.576 203.201 129.395C205.893 131.899 204.736 134.551 202.604 136.837C201.293 138.242 199.807 139.482 198.244 140.941C200.92 144.426 208.186 144.844 205.228 150.501C203.613 153.59 199.207 155.221 196.327 157.315C198.255 160.471 201.42 164.135 202.587 168.352C203.016 169.905 199.04 173.224 196.527 174.932C190.761 178.852 187.394 177.359 181.806 168.808C180.513 170.78 179.334 172.631 178.101 174.447C173.807 180.775 170.83 180.658 166.772 174.059C165.889 172.624 164.877 171.267 163.713 169.564C158.335 179.558 154.89 178.895 146.236 166.392C145.155 168.009 144.129 169.304 143.359 170.737C140.17 176.674 135.461 177.204 131.162 172.021C130.314 170.999 129.702 169.767 128.787 168.818C126.808 166.765 125.178 166.375 123.404 169.419C119.49 176.137 115.526 175.86 111.58 168.845C108.384 163.164 107.413 163.115 103.66 168.443C99.8858 173.8 94.7785 173.371 91.5855 167.427C88.5848 161.841 88.3352 161.81 84.3736 166.507C80.7212 170.838 76.0607 170.139 73.9016 164.928C73.3006 163.478 72.7397 162.011 72.2932 160.886C68.7954 163.206 65.7006 166.809 62.4891 166.916C59.7625 167.007 56.9014 163.063 54.5999 161.29C52.158 163.082 48.7791 167.422 46.1015 167.026C43.1764 166.593 40.9001 161.777 37.8113 158.269C36.8186 159.025 34.9494 160.487 33.0388 161.893C29.255 164.678 25.6124 164.321 23.9339 160.306C22.0202 155.728 19.6462 156.866 16.5641 158.59C9.74517 162.404 4.31222 160.981 1.80248 153.92C0.731351 150.906 1.96775 147.073 2.23425 142.161C-1.05428 137.696 -1.00331 136.475 4.34984 130.74C5.58073 129.343 6.33576 128.332 7.1922 126.97C6.06589 123.878 3.47327 120.855 3.9656 118.467C4.54469 115.66 7.79988 113.404 9.88463 110.92C4.08273 103.9 4.15445 103.595 10.0277 96.8177C10.8557 95.8623 11.4333 93.5306 10.8649 92.7133C7.26507 87.536 9.15638 83.8326 13.2641 80.1454C14.3409 79.1787 15.3395 76.2846 14.7815 75.6269C10.0936 70.1015 12.306 65.6662 16.6286 60.9521C12.4687 54.2868 13.8785 49.1031 20.151 45.1591C15.3995 39.4864 15.3995 39.4864 21.6312 32.1678C17.4628 24.0451 17.4628 24.0451 23.3821 17.3656C20.3596 12.5815 16.0733 7.61686 20.6168 1.77177C23.0614 -1.37319 28.6425 -0.0429904 32.7921 3.50034C36.4343 3.50034 40.1117 2.44035 42.2505 3.80027C44.3644 5.14433 44.9237 8.93327 45.7797 10.8066C48.6307 8.60673 51.6164 4.55906 55.1989 3.9343C61.0444 2.91483 59.0914 10.4294 61.6961 12.8343C65.4 10.0878 68.4304 6.30436 72.1435 5.434C78.2869 3.99394 77.7246 10.8439 79.8584 14.7274C83.2938 12.014 83.2688 5.73789 89.0114 7.07804C93.5627 8.14018 96.3609 11.0329 96.4852 16.6844C100.067 13.0946 101.228 6.26096 106.619 8.67881C110.009 10.1996 111.83 15.2193 114.641 19.0599C115.548 17.7389 116.539 16.2933 117.895 14.6301C125.745 9.77726 126.955 18.6029 130.141 20.1172C134.207 17.5044 137.37 14.0184 140.968 13.4906C146.762 12.6407 145.922 19.4441 148.781 22.9906C155.1 17.9544 161.633 13.5266 166.667 24.0956C176.505 17.0775 177.664 17.0513 181.846 23.4277ZM49.0861 14.359C43.8738 17.2512 41.5153 16.1052 41.2085 10.6627C41.133 9.32188 40.5155 6.8812 40.149 6.88157C38.5011 6.88316 36.7856 7.42222 35.231 8.08665C34.2423 8.50938 33.4926 9.49143 32.1596 10.6291C31.2357 9.15312 30.7484 7.60594 29.6945 6.86698C28.0203 5.69328 25.9677 5.05931 24.0752 4.197C23.7776 6.11027 23.229 8.03092 23.2845 9.93388C23.3138 10.9398 24.3401 11.9538 25.0101 12.8976C28.6242 17.9884 28.5556 18.4952 23.7535 22.6111C23.0279 23.2331 22.4508 24.0284 21.4853 25.0976C28.032 30.3929 26.3063 35.2408 20.1837 39.3866C22.9987 42.119 25.6912 45.0444 22.3188 47.7647C17.4662 51.679 17.606 55.3666 20.9447 59.8396C21.213 60.199 21.158 60.7995 20.8726 61.884C19.7726 63.319 18.297 64.61 17.676 66.2287C17.0285 67.9164 16.4378 70.3115 17.1551 71.7171C20.0937 77.4753 19.9207 78.6978 15.4999 83.5175C14.2019 84.9327 12.8885 88.2276 13.6057 89.2742C16.9792 94.1968 15.4032 97.616 11.3909 100.877C9.20397 102.654 8.88147 104.258 11.182 106.591C15.2636 110.73 15.0299 112.6 10.3148 116.238C7.62979 118.309 6.22556 120.046 9.3782 122.871C12.5319 125.697 12.1422 128.57 9.14618 131.401C7.13868 133.298 5.32287 135.398 3.16176 137.681C8.07621 140.564 7.72729 143.773 5.74838 147.812C4.94353 149.455 5.3765 152.321 6.30205 154.072C8.53866 158.305 11.8258 156.978 15.2134 155.136C21.8773 151.513 23.7114 152.163 27.3239 158.79C27.5442 159.195 28.0269 159.456 28.7582 160.121C30.6792 158.661 32.5981 157.154 34.5673 155.716C38.7578 152.656 42.0289 153.736 43.7541 158.677C44.3737 160.451 45.0947 162.19 46.2526 165.202C47.8106 162.768 48.481 161.304 49.5243 160.189C51.0116 158.6 52.9098 155.986 54.3818 156.144C56.2567 156.346 58.3737 158.581 59.5118 160.467C61.9072 164.436 62.8083 164.515 65.8651 161.032C67.4434 159.233 70.08 156.954 71.9336 157.199C73.8329 157.45 75.9873 160.251 76.9068 162.414C78.3926 165.908 79.5802 166.301 82.0154 163.385C87.0439 157.363 90.723 157.732 94.3841 164.512C97.1506 169.636 98.1769 169.703 101.328 164.965C105.228 159.1 109.933 159.118 113.775 165.006C114.972 166.841 116.197 168.657 117.463 170.563C118.458 169.791 118.942 169.564 119.212 169.185C124.957 161.13 126.909 161.091 133.57 168.937C133.785 169.192 133.984 169.46 134.197 169.716C136.362 172.313 138.289 172.351 139.89 169.167C140.486 167.982 140.916 166.69 141.65 165.602C144.187 161.84 148.649 162.015 150.911 165.953C151.654 167.247 152.034 168.754 152.814 170.02C154.862 173.346 157.123 173.26 158.875 169.885C161.557 164.719 165.475 164.523 168.628 169.422C169.839 171.304 170.969 173.239 172.526 175.79C175.108 171.933 177.067 168.668 179.368 165.664C181.496 162.887 183.734 162.748 185.39 166.294C185.883 167.35 186.318 168.436 186.86 169.465C189.103 173.73 191.253 174.253 195.195 171.334C196.736 170.192 198.051 168.744 199.785 167.144C197.795 165.292 195.963 164.038 194.75 162.342C193.313 160.333 191.097 157.529 191.632 155.83C192.209 153.997 195.568 153.029 197.731 151.712C199.048 150.91 200.398 150.162 201.734 149.39C200.63 148.348 199.669 147.065 198.396 146.306C193.745 143.533 193.292 139.968 197.294 136.343C198.499 135.252 199.708 134.166 200.869 133.119C195.855 125.529 195.763 125.426 202.414 119.483C204.692 117.447 204.54 115.676 203.211 113.415C200.299 108.46 201.012 104.255 205.787 100.814C206.679 100.171 207.255 99.0913 208.197 97.9461C203.575 93.6744 203.418 89.4822 207.891 84.9997C208.785 84.1038 208.859 81.5336 208.277 80.1806C206.465 75.9709 207.414 73.0562 211.485 71.1518C215.152 69.4361 215.246 67.3436 213.06 64.0738C209.794 59.1899 210.491 56.898 215.303 53.2231C216.034 52.665 216.565 51.8451 217.183 51.1527C210.514 44.8824 210.342 44.2334 213.873 39.2783C216.759 35.2293 216.06 32.618 211.21 31.494C208.968 30.9743 206.324 31.6216 203.985 32.2176C200.464 33.1145 197.42 32.6574 195.956 29.2001C194.004 24.5919 191.541 25.2095 188.293 27.6147C184.734 30.2507 181.091 30.0743 178.965 26.0698C176.622 21.6551 174.676 21.8795 171.679 25.264C169.159 28.11 166.043 29.0762 163.097 25.8405C158.655 20.9616 158.737 20.8867 152.905 24.8189C148.699 27.6552 145.358 26.4477 143.555 21.6758C142.911 19.9717 141.662 18.4962 140.689 16.9163C139.246 18.3359 137.518 19.5645 136.416 21.2118C133.382 25.7455 130.469 26.1133 126.852 22.0716C125.236 20.2664 123.696 18.3933 121.84 16.2213C120.502 17.8546 119.587 19.0025 118.639 20.1227C114.793 24.6686 111.235 24.0719 109.109 18.5953C108.202 16.2608 107.111 13.9985 105.602 10.5627C103.597 13.5439 102.719 15.6214 101.186 16.9298C99.3221 18.52 96.9053 19.462 94.7278 20.6844C93.9067 18.8932 92.6033 17.1618 92.3721 15.2975C91.9776 12.1169 90.2495 10.5621 87.5089 11.2998C86.1619 11.6624 85.3606 14.0426 84.3068 15.5058C81.6168 19.2406 77.7639 18.9638 75.7552 14.8935C72.4085 8.11192 72.4092 8.11246 67.5081 13.6649C67.1781 14.0389 66.8534 14.4241 66.4817 14.7538C62.3297 18.4362 58.1962 17.1229 56.9076 11.7511C56.5503 10.2614 56.0425 8.80778 55.6038 7.33763C55.1418 7.26042 54.6798 7.18327 54.2179 7.10612C53.0718 8.98301 51.9258 10.8599 50.3706 12.8904C50.1682 13.2569 49.9657 13.6235 49.0861 14.359Z" fill="#2E2E2C"/>
<path d="M50.7798 12.7368C51.9258 10.8599 53.0718 8.98303 54.2178 7.10614C54.6798 7.18329 55.1418 7.26044 55.6038 7.33765C56.0425 8.8078 56.5503 10.2614 56.9076 11.7511C58.1962 17.1229 62.3297 18.4362 66.4817 14.7538C66.8534 14.4241 67.178 14.0389 67.5081 13.6649C72.4092 8.11249 72.4085 8.11194 75.7552 14.8935C77.7639 18.9638 81.6168 19.2407 84.3068 15.5058C85.3606 14.0427 86.1619 11.6624 87.5089 11.2998C90.2494 10.5621 91.9776 12.1169 92.3721 15.2975C92.6033 17.1619 93.9067 18.8932 94.7278 20.6844C96.9053 19.462 99.3221 18.52 101.186 16.9299C102.719 15.6214 103.597 13.5439 105.602 10.5627C107.111 13.9985 108.202 16.2609 109.109 18.5953C111.235 24.072 114.793 24.6686 118.639 20.1227C119.587 19.0026 120.502 17.8546 121.84 16.2213C123.696 18.3933 125.236 20.2664 126.852 22.0716C130.469 26.1133 133.382 25.7455 136.416 21.2118C137.518 19.5645 139.246 18.3359 140.689 16.9163C141.662 18.4962 142.911 19.9717 143.555 21.6758C145.358 26.4478 148.699 27.6552 152.905 24.819C158.737 20.8867 158.654 20.9616 163.097 25.8405C166.043 29.0762 169.158 28.11 171.679 25.264C174.676 21.8795 176.622 21.6551 178.965 26.0698C181.091 30.0743 184.734 30.2507 188.293 27.6147C191.541 25.2095 194.004 24.5919 195.956 29.2001C197.42 32.6575 200.464 33.1145 203.985 32.2177C206.324 31.6216 208.968 30.9744 211.21 31.494C216.06 32.618 216.759 35.2294 213.873 39.2783C210.342 44.2334 210.514 44.8824 217.183 51.1527C216.565 51.8451 216.034 52.665 215.303 53.2231C210.491 56.8981 209.794 59.1899 213.06 64.0739C215.246 67.3436 215.152 69.4362 211.485 71.1519C207.414 73.0562 206.465 75.9709 208.277 80.1807C208.859 81.5336 208.784 84.1038 207.891 84.9998C203.418 89.4822 203.575 93.6744 208.197 97.9461C207.255 99.0913 206.678 100.171 205.787 100.814C201.012 104.255 200.299 108.46 203.211 113.415C204.54 115.677 204.692 117.447 202.414 119.483C195.763 125.426 195.855 125.529 200.869 133.119C199.708 134.166 198.499 135.252 197.294 136.343C193.292 139.968 193.745 143.533 198.396 146.306C199.669 147.065 200.63 148.348 201.734 149.39C200.398 150.162 199.048 150.91 197.731 151.712C195.568 153.029 192.209 153.997 191.632 155.83C191.097 157.529 193.313 160.333 194.75 162.342C195.963 164.038 197.795 165.292 199.785 167.144C198.051 168.744 196.736 170.192 195.195 171.334C191.253 174.253 189.103 173.73 186.86 169.465C186.318 168.436 185.883 167.35 185.39 166.294C183.734 162.748 181.496 162.887 179.368 165.664C177.067 168.668 175.108 171.933 172.526 175.79C170.969 173.239 169.839 171.304 168.628 169.422C165.475 164.523 161.557 164.719 158.875 169.885C157.123 173.26 154.862 173.346 152.814 170.02C152.034 168.754 151.654 167.247 150.911 165.953C148.649 162.015 144.187 161.84 141.65 165.602C140.916 166.69 140.486 167.982 139.89 169.167C138.289 172.351 136.362 172.313 134.197 169.716C133.984 169.46 133.785 169.192 133.57 168.938C126.909 161.091 124.957 161.13 119.212 169.185C118.942 169.564 118.458 169.791 117.463 170.563C116.197 168.657 114.972 166.841 113.775 165.006C109.933 159.118 105.228 159.1 101.328 164.965C98.1769 169.703 97.1506 169.636 94.384 164.512C90.723 157.732 87.0438 157.363 82.0154 163.385C79.5801 166.301 78.3926 165.908 76.9068 162.414C75.9873 160.251 73.8328 157.45 71.9335 157.199C70.08 156.954 67.4434 159.233 65.8651 161.032C62.8083 164.515 61.9072 164.436 59.5118 160.467C58.3736 158.581 56.2567 156.346 54.3818 156.144C52.9098 155.986 51.0116 158.6 49.5243 160.189C48.481 161.304 47.8105 162.768 46.2526 165.202C45.0947 162.19 44.3737 160.451 43.7541 158.677C42.0289 153.736 38.7578 152.656 34.5672 155.716C32.5981 157.154 30.6792 158.661 28.7582 160.121C28.0269 159.456 27.5442 159.195 27.3238 158.79C23.7113 152.163 21.8773 151.513 15.2134 155.136C11.8258 156.978 8.53864 158.305 6.30202 154.072C5.37648 152.321 4.9435 149.455 5.74836 147.812C7.72726 143.773 8.07619 140.564 3.16174 137.681C5.32285 135.398 7.13866 133.298 9.14616 131.401C12.1422 128.57 12.5319 125.697 9.37818 122.871C6.22554 120.046 7.62977 118.309 10.3147 116.238C15.0299 112.6 15.2636 110.73 11.182 106.591C8.88145 104.258 9.20395 102.654 11.3909 100.877C15.4032 97.616 16.9792 94.1968 13.6057 89.2742C12.8885 88.2276 14.2019 84.9327 15.4999 83.5175C19.9207 78.6978 20.0937 77.4753 17.1551 71.7172C16.4378 70.3115 17.0284 67.9164 17.6759 66.2288C18.297 64.61 19.7726 63.319 21.2919 61.4694C22.1598 60.8074 22.6084 60.5599 23.3503 60.6023C27.4623 60.6986 31.281 60.5051 35.4689 60.3126C36.5767 60.313 37.3152 60.3124 38.3484 60.6005C40.1134 61.0329 41.5823 61.2834 43.0542 61.3025C50.0742 61.3938 50.078 61.3715 50.0798 68.5851C50.0832 82.0332 50.0809 95.4814 50.0839 108.93C50.0844 111.073 49.6437 113.53 53.2489 113.734C52.8368 118.518 52.2671 122.884 51.4299 127.297C51.1597 128.007 51.1571 128.67 51.1599 129.791C50.1048 141.379 50.6181 142.203 61.0419 145.843C62.769 146.446 64.503 147.08 66.2843 147.47C91.2646 152.93 116.554 155.685 142.115 155.593C150.253 155.564 153.082 152.359 153.816 143.827C155.227 127.405 156.572 110.978 158 94.5585C159.282 79.831 157.166 77.4611 142.622 77.5748C142.46 77.5761 142.296 77.512 141.878 77.1697C139.096 77.0471 136.57 77.233 133.583 77.4949C128.115 77.3517 123.107 77.1326 118.096 76.4777C118.09 73.7419 118.041 71.441 118.091 69.1423C118.221 63.0906 118.864 62.48 124.818 62.2913C126.05 62.2523 127.275 61.9669 129.274 61.6872C125.855 60.3723 123.474 59.4568 121.43 58.373C131.107 54.7289 140.375 51.0374 149.819 47.8736C154.183 46.412 153.57 43.3304 152.352 40.8984C148.026 32.2622 141.968 29.5454 132.656 32.9604C111.763 40.6234 91.1889 49.1603 70.2584 56.7146C62.5154 59.5093 57.4743 62.9614 58.689 72.0662C59.0093 74.4668 58.312 77.0273 57.9372 79.4924C56.4675 89.1567 54.9398 98.8123 53.0827 108.207C52.5121 106.167 52.1039 104.39 52.1013 102.613C52.0599 75.0622 52.1031 47.5115 52.0141 19.9612C52.0063 17.5518 51.2099 15.1449 50.7798 12.7368ZM32.3621 128.209C34.0407 128.209 35.7193 128.209 37.3979 128.209C37.42 127.689 37.4421 127.17 37.4642 126.651C35.7903 126.492 34.1165 126.333 32.7782 125.543C38.7765 117.379 38.935 114.086 33.5166 106.004C30.8756 109.483 28.2934 112.886 25.1253 116.415C25.2858 117.364 25.4462 118.313 25.9506 119.94C27.7844 122.659 29.6182 125.378 32.3621 128.209ZM184.239 46.242C184.063 46.2317 183.887 46.2214 183.712 46.2112C183.902 46.3936 184.093 46.576 183.799 47.1977C179.368 51.3379 174.938 55.4781 169.937 60.1511C178.083 63.1649 176.397 71.4001 178.889 78.581C181.461 74.547 183.012 71.6141 185.044 69.0649C187.198 66.3634 190.055 64.2062 192.083 61.4303C192.767 60.4949 192.123 58.2991 191.614 56.8441C190.601 53.9437 189.261 51.1573 188.604 47.8401C188.678 47.6943 188.845 47.5222 188.813 47.4064C188.266 45.4656 187.726 43.5208 187.054 41.6229C187.012 41.5035 185.354 41.7972 185.357 41.8436C185.462 43.5757 185.675 45.3013 185.348 47.0571C185.054 46.903 184.76 46.7488 184.239 46.242ZM134.486 60.3241C134.168 60.5847 133.85 60.8453 133.532 61.106C133.679 61.1602 133.825 61.2614 133.972 61.2617C137.632 61.2705 141.292 61.2686 144.952 61.2686C144.955 60.9517 144.957 60.6348 144.959 60.3179C141.732 60.3179 138.506 60.3179 134.486 60.3241ZM43.6746 127.695C45.1236 127.926 46.5726 128.156 48.0216 128.387C48.0538 127.934 48.086 127.482 48.1181 127.029C46.6199 127.029 45.1216 127.029 43.6746 127.695ZM166.571 61.008C167.107 61.3401 167.642 61.6722 168.178 62.0043C168.31 61.7357 168.442 61.4671 168.574 61.1985C168.05 60.9974 167.526 60.7964 166.571 61.008ZM56.352 61.2795C56.5505 61.0355 56.7491 60.7914 56.9476 60.5472C56.3639 60.5526 55.7802 60.5579 55.1965 60.5632C55.4059 60.8029 55.6153 61.0425 56.352 61.2795Z" fill="#F6F5EC"/>
<path d="M23.057 60.3124C22.6084 60.5599 22.1598 60.8074 21.4822 61.1714C21.158 60.7996 21.213 60.199 20.9448 59.8397C17.606 55.3666 17.4662 51.679 22.3188 47.7647C25.6912 45.0444 22.9987 42.119 20.1837 39.3866C26.3063 35.2408 28.032 30.3929 21.4853 25.0977C22.4508 24.0284 23.0279 23.2331 23.7535 22.6111C28.5556 18.4952 28.6242 17.9885 25.0101 12.8976C24.3401 11.9539 23.3138 10.9398 23.2845 9.9339C23.2291 8.03094 23.7776 6.11029 24.0752 4.19702C25.9677 5.05933 28.0203 5.6933 29.6945 6.867C30.7484 7.60596 31.2357 9.15314 32.1596 10.6291C33.4926 9.49146 34.2423 8.5094 35.231 8.08667C36.7857 7.42224 38.5011 6.88318 40.149 6.88159C40.5155 6.88123 41.133 9.3219 41.2085 10.6627C41.5153 16.1052 43.8738 17.2512 49.4935 14.7365C49.9593 26.2274 50.0434 37.3406 50.0693 48.454C50.097 60.3206 50.0731 60.3206 38.0538 60.3119C37.3153 60.3124 36.5768 60.313 35.0055 60.3127C30.4676 60.3121 26.7623 60.3123 23.057 60.3124Z" fill="#F7F6EE"/>
<path d="M38.3484 60.6005C50.0731 60.3206 50.097 60.3206 50.0693 48.454C50.0433 37.3406 49.9593 26.2274 49.832 14.552C49.9657 13.6235 50.1682 13.257 50.5752 12.8136C51.2099 15.1449 52.0063 17.5518 52.0141 19.9612C52.1031 47.5115 52.0599 75.0622 52.1013 102.613C52.104 104.39 52.5121 106.167 53.049 108.611C53.2747 110.623 53.183 111.969 53.0913 113.315C49.6438 113.53 50.0844 111.073 50.084 108.93C50.081 95.4814 50.0832 82.0332 50.0798 68.5851C50.078 61.3715 50.0742 61.3938 43.0542 61.3025C41.5823 61.2834 40.1134 61.0329 38.3484 60.6005Z" fill="#E9E8E0"/>
<path d="M14.9808 61.1031C14.8295 61.1342 14.557 60.9445 14.1652 60.5323C14.3171 60.5006 14.5883 60.6914 14.9808 61.1031Z" fill="#E7E6DE"/>
<path d="M53.2489 113.734C53.183 111.969 53.2747 110.623 53.4001 108.874C54.9399 98.8123 56.4675 89.1568 57.9372 79.4925C58.3121 77.0274 59.0093 74.4668 58.689 72.0662C57.4744 62.9614 62.5154 59.5093 70.2584 56.7146C91.1889 49.1604 111.763 40.6234 132.656 32.9604C141.968 29.5454 148.026 32.2622 152.352 40.8985C153.57 43.3305 154.183 46.412 149.819 47.8736C140.375 51.0374 131.107 54.729 121.075 58.4132C106.643 64.0059 92.904 69.3899 79.1648 74.7739C79.2653 75.4871 79.3658 76.2002 79.4663 76.9134C92.3439 76.9134 105.221 76.9134 118.099 76.9135C123.107 77.1326 128.115 77.3517 133.902 77.693C137.165 77.7028 139.649 77.5906 142.133 77.4783C142.296 77.512 142.46 77.5761 142.622 77.5748C157.166 77.4611 159.282 79.831 158 94.5585C156.572 110.978 155.227 127.405 153.816 143.827C153.082 152.359 150.253 155.564 142.115 155.593C116.554 155.685 91.2646 152.93 66.2843 147.47C64.5031 147.08 62.7691 146.446 61.0419 145.843C50.6182 142.203 50.1048 141.379 51.3745 129.597C51.6217 128.381 51.6596 127.816 51.6974 127.251C52.2671 122.884 52.8368 118.518 53.2489 113.734ZM153.953 82.6857C152.617 82.2543 151.281 81.8229 149.149 81.3031C144.821 80.1479 140.77 79.9635 137.434 83.8661C137.273 83.1418 137.097 81.7827 136.953 81.786C133.315 81.8704 129.68 82.098 125.521 82.2318C125.171 82.2294 124.821 82.2269 124.323 81.3818C121.441 81.3805 118.558 81.3792 114.98 81.1876C114.315 80.9108 113.65 80.634 112.076 80.4346C108.122 80.4148 104.167 80.395 99.4828 80.3336C98.9953 80.3361 98.5077 80.3385 97.1421 80.2107C94.121 80.5795 91.0999 80.9485 87.166 81.2759C86.8615 81.2862 86.5571 81.2965 86.1926 80.6126C80.8892 80.1377 75.5936 79.5291 70.2806 79.2176C61.0534 78.6766 61.0479 78.7536 60.8307 88.176C60.8274 88.3187 60.9594 88.4644 61.3297 89.2404C66.3433 90.2111 71.7477 91.5331 77.2311 92.1388C78.7342 92.3048 80.4743 90.3253 82.6042 89.6419C82.834 89.9589 83.0638 90.276 83.2456 91.3053C83.6547 92.6247 84.0639 93.944 84.0378 95.8713C76.163 95.1084 68.2882 94.3455 60.2175 93.5637C58.4522 106.236 56.7443 118.745 54.9562 131.242C53.8249 139.149 54 139.949 61.9081 142.185C88.3826 149.67 115.568 151.482 142.912 151.852C148.142 151.923 149.734 148.686 150.094 144.192C150.757 135.901 151.477 127.615 152.156 119.325C152.71 112.574 153.238 105.82 153.831 98.3943C147.241 97.9703 141.162 97.5792 135.08 96.574C135.079 96.1645 135.078 95.755 135.942 95.4039C139.307 94.5003 142.672 93.5968 146.511 93.3238C148.911 93.9248 151.311 94.5258 154.086 95.2209C154.289 92.2949 154.541 90.3244 154.526 88.3557C154.513 86.7154 154.187 85.0774 153.953 82.6857ZM143.438 46.1875C145.5 45.4155 147.563 44.6436 149.764 43.8198C142.358 33.3825 139.596 32.6951 129.598 38.2055C131.816 41.5532 134.042 44.9143 136.454 48.5545C138.316 47.9044 140.488 47.1461 143.438 46.1875ZM111.492 50.3291C112.846 52.3728 114.199 54.4165 115.633 56.5831C119.114 55.227 122.291 53.9891 125.512 52.734C119.145 41.768 116.599 40.7597 108.651 45.9893C109.468 47.2216 110.285 48.4541 111.492 50.3291ZM78.4188 71.2232C79.3694 70.74 80.3201 70.2568 81.3303 69.7433C73.4922 59.2033 71.873 58.6235 65.2406 63.699C67.642 66.8382 70.0434 69.9773 72.6245 73.3513C74.3611 72.689 76.031 72.0521 78.4188 71.2232ZM101.234 59.773C100.523 58.8544 99.7928 57.9497 99.1035 57.0149C94.3911 50.6239 94.3917 50.6171 87.2126 53.8454C86.963 53.9577 86.8457 54.364 86.4738 54.9235C88.484 57.2032 90.6112 59.4991 92.6054 61.9054C95.3774 65.2501 99.3577 64.5894 101.234 59.773ZM65.3577 69.5214C64.6219 68.8722 63.8861 68.2229 62.9241 67.374C61.4971 75.3283 62.2738 76.217 68.9093 74.4874C67.8338 72.9572 66.8234 71.5194 65.3577 69.5214Z" fill="#272525"/>
<path d="M118.096 76.4776C105.221 76.9134 92.3439 76.9134 79.4663 76.9134C79.3658 76.2002 79.2653 75.4871 79.1648 74.7739C92.904 69.3898 106.643 64.0059 120.738 58.5817C123.474 59.4568 125.855 60.3723 129.275 61.6872C127.275 61.9669 126.05 62.2523 124.818 62.2913C118.864 62.48 118.221 63.0906 118.091 69.1423C118.041 71.441 118.09 73.7419 118.096 76.4776Z" fill="#EDECE3"/>
<path d="M188.056 48.3239C189.261 51.1573 190.601 53.9437 191.615 56.8441C192.123 58.2991 192.767 60.4949 192.083 61.4303C190.055 64.2062 187.198 66.3634 185.044 69.0649C183.012 71.6141 181.461 74.547 178.889 78.581C176.397 71.4001 178.083 63.1649 169.937 60.1511C174.938 55.4781 179.368 51.3379 184.051 46.897C184.303 46.5964 184.466 46.5948 184.466 46.5948C184.76 46.7488 185.054 46.903 185.646 47.3195C186.647 47.8292 187.352 48.0765 188.056 48.3239ZM182.711 51.1806C180.173 54.232 177.635 57.2834 175.193 60.2182C176.692 63.2979 178.666 67.3525 180.438 70.9927C183.509 67.3751 186.956 63.3143 190.142 59.5611C188.346 55.9968 186.623 52.5768 184.507 48.377C184.034 49.1987 183.627 49.9061 182.711 51.1806Z" fill="#4F4D4C"/>
<path d="M25.7112 116.288C28.2934 112.886 30.8755 109.483 33.5165 106.004C38.935 114.086 38.7765 117.379 32.4394 126.07C31.8843 127.097 31.6681 127.596 31.4519 128.096C29.6182 125.378 27.7844 122.659 26.1005 119.476C27.8228 120.614 29.3952 122.215 30.9782 123.827C35.1948 120.351 37.1501 116.328 33.0566 110.96C31.3218 112.819 29.63 114.754 27.7706 116.511C27.4451 116.819 26.4155 116.381 25.7112 116.288Z" fill="#4F4D4C"/>
<path d="M25.4183 116.352C26.4156 116.381 27.4451 116.819 27.7706 116.511C29.63 114.754 31.3218 112.819 33.0566 110.96C37.1501 116.328 35.1948 120.351 30.9783 123.827C29.3952 122.215 27.8229 120.614 25.9286 119.137C25.4462 118.313 25.2858 117.364 25.4183 116.352Z" fill="#E7E6DE"/>
<path d="M188.33 48.082C187.352 48.0765 186.647 47.8292 185.908 47.3048C185.675 45.3013 185.462 43.5757 185.357 41.8436C185.354 41.7972 187.012 41.5035 187.054 41.6229C187.726 43.5208 188.266 45.4656 188.813 47.4064C188.845 47.5222 188.678 47.6943 188.33 48.082Z" fill="#EEEBE6"/>
<path d="M141.878 77.1698C139.649 77.5906 137.165 77.7028 134.362 77.617C136.57 77.233 139.096 77.0471 141.878 77.1698Z" fill="#EDECE3"/>
<path d="M134.882 60.321C138.506 60.3179 141.732 60.3179 144.959 60.3179C144.957 60.6348 144.955 60.9517 144.952 61.2686C141.292 61.2686 137.632 61.2705 133.972 61.2617C133.825 61.2614 133.679 61.1602 133.532 61.106C133.85 60.8453 134.168 60.5847 134.882 60.321Z" fill="#EDECE3"/>
<path d="M31.9071 128.152C31.6682 127.596 31.8844 127.097 32.2717 126.385C34.1165 126.333 35.7904 126.492 37.4642 126.651C37.4421 127.17 37.42 127.689 37.3979 128.209C35.7193 128.209 34.0407 128.209 31.9071 128.152Z" fill="#F0EFE8"/>
<path d="M23.3503 60.6023C26.7623 60.3123 30.4676 60.3121 34.6363 60.3118C31.2811 60.5051 27.4623 60.6986 23.3503 60.6023Z" fill="#E9E8E0"/>
<path d="M43.649 127.362C45.1217 127.029 46.6199 127.029 48.1182 127.029C48.086 127.482 48.0539 127.934 48.0217 128.387C46.5727 128.156 45.1237 127.926 43.649 127.362Z" fill="#F0EFE8"/>
<path d="M166.786 60.8017C167.526 60.7964 168.05 60.9974 168.574 61.1985C168.442 61.4671 168.31 61.7357 168.178 62.0043C167.642 61.6722 167.107 61.3401 166.786 60.8017Z" fill="#EDECE3"/>
<path d="M51.4299 127.297C51.6595 127.816 51.6216 128.381 51.3691 129.14C51.1571 128.67 51.1597 128.007 51.4299 127.297Z" fill="#D4D4CC"/>
<path d="M56.0883 61.2809C55.6152 61.0425 55.4059 60.8029 55.1965 60.5631C55.7802 60.5579 56.3639 60.5526 56.9476 60.5472C56.7491 60.7914 56.5505 61.0355 56.0883 61.2809Z" fill="#E9E8E0"/>
<path d="M184.293 46.6775C184.093 46.576 183.902 46.3936 183.712 46.2112C183.887 46.2214 184.063 46.2317 184.353 46.4184C184.466 46.5948 184.303 46.5964 184.293 46.6775Z" fill="#EEEBE6"/>
<path d="M135.084 97.1882C141.162 97.5792 147.241 97.9703 153.831 98.3943C153.238 105.82 152.71 112.574 152.156 119.325C151.477 127.615 150.757 135.901 150.094 144.192C149.734 148.686 148.142 151.923 142.912 151.852C115.568 151.482 88.3826 149.67 61.9082 142.185C54 139.949 53.8249 139.149 54.9562 131.242C56.7443 118.745 58.4522 106.236 60.2175 93.5637C68.2882 94.3455 76.163 95.1084 84.3428 95.5246C84.6479 95.1779 84.833 95.238 85.0353 95.5952C86.3206 96.3262 87.4014 97.0184 88.4871 97.026C104.019 97.1342 119.551 97.15 135.084 97.1882ZM90.1078 121.944C89.8287 124.071 89.5729 126.201 89.2655 128.324C88.6696 132.439 90.0829 134.039 93.7517 132.484C101.658 129.134 109.499 125.56 117.08 121.538C120.993 119.462 120.764 117.077 116.616 115.22C110.125 112.315 103.353 110.041 96.7763 107.317C93.5408 105.977 92.0911 107.163 91.6315 110.261C91.0988 113.851 90.6532 117.455 90.1078 121.944Z" fill="#D9AECC"/>
<path d="M135.082 96.8811C119.551 97.15 104.019 97.1342 88.4871 97.026C87.4015 97.0184 86.3206 96.3262 85.4312 95.4977C90.759 94.3621 95.5586 93.2184 96.733 87.0394C97.1575 84.8057 97.5909 82.5737 98.0202 80.3409C98.5078 80.3385 98.9953 80.3361 99.7843 80.7419C99.0443 85.0917 98.0029 89.0333 96.8553 93.3766C99.0549 93.5092 101.162 93.7584 103.265 93.7247C104.992 93.697 107.84 93.8735 108.247 93.0263C110.189 88.9775 111.469 84.6108 112.985 80.3571C113.65 80.634 114.315 80.9108 115.24 81.6716C113.814 86.1804 112.129 90.2053 110.362 94.4263C114.032 96.4908 116.388 95.6827 118.298 92.3489C119.715 89.8744 121.5 87.6107 123.219 85.6581C122.578 88.4807 121.839 90.8983 120.745 94.4787C125.339 93.6763 129.216 92.9991 133.35 92.4863C133.843 92.9835 134.078 93.3163 134.389 93.8702C134.669 94.5093 134.873 94.9274 135.077 95.3454C135.078 95.7549 135.079 96.1644 135.082 96.8811Z" fill="#2E2E2C"/>
<path d="M82.1057 89.3303C80.4743 90.3252 78.7342 92.3047 77.2311 92.1388C71.7477 91.5331 66.3434 90.211 61.3297 89.2403C60.9594 88.4644 60.8274 88.3186 60.8307 88.176C61.0479 78.7536 61.0534 78.6765 70.2806 79.2176C75.5936 79.5291 80.8892 80.1377 86.0213 81.1817C84.6019 84.2774 83.3538 86.8039 82.1057 89.3303Z" fill="#D1ACC6"/>
<path d="M143.049 46.2876C140.488 47.146 138.316 47.9043 136.454 48.5544C134.042 44.9142 131.816 41.5531 129.598 38.2054C139.596 32.695 142.358 33.3825 149.764 43.8197C147.563 44.6436 145.5 45.4155 143.049 46.2876Z" fill="#E9E8E0"/>
<path d="M112.53 80.3959C111.469 84.6108 110.189 88.9775 108.247 93.0263C107.84 93.8735 104.992 93.697 103.265 93.7247C101.162 93.7584 99.0549 93.5092 96.8552 93.3766C98.0028 89.0333 99.0442 85.0917 100.149 80.7627C104.167 80.395 108.122 80.4147 112.53 80.3959Z" fill="#D1ACC6"/>
<path d="M97.5811 80.2758C97.5909 82.5737 97.1575 84.8057 96.733 87.0394C95.5586 93.2184 90.759 94.3621 85.2288 95.1405C84.833 95.238 84.6478 95.1779 84.5604 95.2206C84.0639 93.944 83.6547 92.6246 83.5336 90.7227C85.2406 87.1993 86.6597 84.2583 88.0788 81.3174C91.0999 80.9485 94.121 80.5795 97.5811 80.2758Z" fill="#E2E2DA"/>
<path d="M133.092 92.3219C129.216 92.9991 125.339 93.6763 120.745 94.4787C121.839 90.8983 122.578 88.4807 123.207 85.6953C123.097 85.3276 123.019 85.32 123.359 85.3947C124.481 84.4132 125.263 83.3568 126.045 82.3005C129.68 82.098 133.315 81.8704 136.953 81.786C137.097 81.7827 137.273 83.1418 137.744 84.1267C138.055 84.3873 138.133 84.3784 137.792 84.1728C135.998 86.7521 134.545 89.537 133.092 92.3219Z" fill="#D1ACC6"/>
<path d="M135.509 95.3746C134.873 94.9273 134.669 94.5093 134.653 93.6343C135.938 90.2443 137.035 87.3114 138.133 84.3784C138.133 84.3784 138.055 84.3872 138.055 84.4263C140.77 79.9634 144.821 80.1479 149.557 81.7195C149.232 83.9306 148.456 85.709 147.78 87.5249C147.133 89.2646 146.59 91.0433 146.038 92.7857C146.075 92.7666 146.037 92.6932 146.037 92.6932C142.672 93.5967 139.307 94.5003 135.509 95.3746Z" fill="#E2E2DA"/>
<path d="M111.297 50.0078C110.285 48.4541 109.468 47.2216 108.651 45.9893C116.599 40.7597 119.145 41.768 125.512 52.734C122.291 53.9891 119.114 55.227 115.633 56.5831C114.199 54.4165 112.846 52.3728 111.297 50.0078Z" fill="#E7E6DE"/>
<path d="M78.0598 71.3192C76.031 72.0521 74.3611 72.689 72.6245 73.3513C70.0434 69.9772 67.642 66.8381 65.239 63.699C71.873 58.6235 73.4922 59.2032 81.3304 69.7433C80.3201 70.2568 79.3694 70.74 78.0598 71.3192Z" fill="#EDECE3"/>
<path d="M101.48 60.0454C99.3577 64.5894 95.3775 65.2501 92.6055 61.9053C90.6113 59.4991 88.4841 57.2032 86.4739 54.9235C86.8457 54.364 86.963 53.9577 87.2126 53.8454C94.3918 50.6171 94.3912 50.6239 99.1036 57.0149C99.7928 57.9497 100.523 58.8544 101.48 60.0454Z" fill="#E7E6DE"/>
<path d="M123.109 85.2904C121.5 87.6107 119.715 89.8744 118.298 92.3489C116.388 95.6827 114.032 96.4908 110.362 94.4263C112.129 90.2053 113.814 86.1804 115.588 81.7667C118.558 81.3791 121.441 81.3804 124.278 82.1304C123.829 83.6926 123.424 84.5063 123.019 85.3199C123.019 85.3199 123.097 85.3276 123.109 85.2904Z" fill="#E7E6DE"/>
<path d="M146.274 93.0085C146.037 92.6932 146.075 92.7666 146.402 92.707C148.069 90.6633 149.328 88.6164 150.781 86.718C151.705 85.5107 152.917 84.524 154 83.4384C154.187 85.0774 154.513 86.7154 154.525 88.3557C154.541 90.3243 154.289 92.2949 154.086 95.2209C151.311 94.5258 148.911 93.9247 146.274 93.0085Z" fill="#D1ACC6"/>
<path d="M65.5853 69.8015C66.8234 71.5193 67.8338 72.9572 68.9092 74.4874C62.2738 76.217 61.4971 75.3283 62.9241 67.374C63.8861 68.2229 64.6219 68.8722 65.5853 69.8015Z" fill="#C6C6BE"/>
<path d="M153.977 83.062C152.917 84.524 151.705 85.5107 150.781 86.718C149.328 88.6164 148.069 90.6633 146.365 92.7261C146.59 91.0433 147.133 89.2646 147.78 87.5249C148.456 85.709 149.232 83.9306 149.955 81.7636C151.281 81.8229 152.617 82.2543 153.977 83.062Z" fill="#4F4D4C"/>
<path d="M87.6224 81.2966C86.6597 84.2583 85.2406 87.1993 83.5576 90.3667C83.0638 90.276 82.834 89.9589 82.3549 89.4861C83.3538 86.8039 84.6019 84.2775 86.0513 81.5289C86.5571 81.2965 86.8616 81.2861 87.6224 81.2966Z" fill="#4F4D4C"/>
<path d="M123.359 85.3947C123.424 84.5063 123.828 83.6926 124.352 82.5517C124.821 82.2269 125.171 82.2294 125.783 82.2661C125.263 83.3568 124.481 84.4132 123.359 85.3947Z" fill="#4F4D4C"/>
<path d="M182.966 50.897C183.627 49.9061 184.034 49.1987 184.507 48.377C186.623 52.5768 188.346 55.9968 190.142 59.5611C186.956 63.3143 183.509 67.3751 180.438 70.9927C178.666 67.3525 176.692 63.2979 175.193 60.2182C177.635 57.2834 180.173 54.232 182.966 50.897Z" fill="#EEEBE6"/>
<path d="M90.1388 121.498C90.6532 117.455 91.0988 113.851 91.6315 110.261C92.0911 107.163 93.5408 105.977 96.7764 107.317C103.353 110.041 110.125 112.315 116.616 115.22C120.764 117.077 120.993 119.462 117.08 121.538C109.499 125.56 101.658 129.134 93.7517 132.484C90.0829 134.039 88.6696 132.439 89.2655 128.324C89.5729 126.201 89.8287 124.071 90.1388 121.498Z" fill="#F3F2EA"/>
<path d="M137.792 84.1728C137.035 87.3114 135.938 90.2443 134.577 93.4133C134.078 93.3163 133.843 92.9835 133.35 92.4863C134.545 89.537 135.998 86.7521 137.792 84.1728Z" fill="#4F4D4C"/>
</svg>
