<svg width="166" height="153" viewBox="0 0 166 153" fill="none" xmlns="http://www.w3.org/2000/svg">
<path d="M106.632 148.504C101.777 153.508 100.087 153.707 95.2157 149.352C93.0592 147.424 91.7378 147.825 89.7823 149.616C84.9667 154.027 82.5122 154.002 77.9595 149.474C75.9839 147.51 74.5704 147.564 72.4353 149.167C66.3557 153.73 65.1782 153.454 59.8774 148.24C58.9437 147.322 56.4779 146.784 55.4165 147.358C46.6183 152.118 46.6679 152.209 39.5259 144.495C37.9324 146.086 36.4442 147.777 34.7462 149.222C31.7803 151.744 28.2121 152.231 26.0756 148.818C22.9302 143.795 19.9396 145.439 16.2243 147.687C10.189 151.341 6.6405 150.497 2.63809 144.877C-1.11459 139.607 -0.690825 136.623 4.36682 132.587C5.26343 131.871 6.12479 131.111 6.70145 130.625C4.20599 127.023 -0.00216616 123.607 8.36596e-07 120.194C0.00210684 116.866 4.30927 113.541 6.76709 110.159C-1.23132 102.195 -1.20966 100.701 8.27698 96.8596C7.09445 95.2496 6.27191 93.6092 4.9953 92.484C0.157319 88.2201 -0.163298 84.1554 4.90234 80.0272C8.6102 77.0056 8.48236 75.2782 4.57126 72.6245C-0.716857 69.0366 -0.377166 64.74 4.98798 61.2539C6.20331 60.4642 7.40097 59.6474 8.97156 58.5997C8.20694 57.9056 7.83017 57.391 7.32297 57.1289C-0.15921 53.2613 -1.01947 49.9015 4.4559 43.2563C7.14038 39.9983 7.6962 37.8415 4.27338 34.6023C1.16367 31.6591 1.66251 27.6423 4.98538 24.9681C8.83987 21.8661 8.14014 18.8961 6.60764 14.9033C5.61621 12.3203 5.38577 8.33877 6.76007 6.28768C7.96048 4.49612 12.054 3.5361 14.5617 3.97335C18.8868 4.72744 22.9731 6.8511 27.2548 8.43527C33.9441 0.681972 34.339 0.586878 43.4842 6.0715C46.0349 7.60122 47.9948 8.04757 50.4571 5.51876C54.2982 1.574 57.0169 1.74575 61.0205 5.8749C63.1703 8.09207 64.6309 8.1011 66.7387 5.87802C72.6169 -0.321507 74.5812 -0.184484 80.1439 6.33383C80.4536 6.6968 80.8985 6.9443 81.2499 7.22146C84.1495 5.39016 86.9976 2.18557 89.837 2.19326C92.6812 2.20089 95.5168 5.41592 98.4272 7.27035C104.94 -0.376562 107.703 -0.744359 117.019 5.29586C120.123 7.30831 122.764 7.05795 125.548 4.5082C132.318 -1.69242 134.333 -1.45664 140.646 4.96768C141.582 5.92013 143.95 6.21194 145.341 5.78579C147.158 5.22927 148.618 3.58004 150.311 2.52822C155.132 -0.468175 159.237 0.348781 162.963 4.96517C166.223 9.00381 165.802 12.7097 161.598 16.8092C160.776 17.611 159.902 18.36 159.109 19.0815C161.088 22.0206 164.234 24.7215 164.46 27.6475C164.643 30.0252 161.324 32.673 159.365 35.4768C164.82 43.1822 164.82 43.1822 157.805 50.5413C158.437 51.2044 159.009 51.9687 159.734 52.5393C164.31 56.1413 164.772 59.719 160.457 63.6956C157.556 66.3685 157.331 68.3379 160.148 71.0362C163.831 74.5639 163.032 78.2523 159.787 81.5196C157.71 83.6123 156.772 85.2447 159.367 87.6834C162.688 90.8039 162.009 94.3941 159.373 97.4926C156.872 100.433 156.354 102.436 159.971 105.081C163.988 108.017 163.777 111.318 160.122 114.656C159.05 115.635 157.896 116.524 156.527 117.664C157.513 118.709 158.237 119.559 159.046 120.319C163.331 124.347 163.297 127.759 158.869 131.582C157.314 132.924 154.896 133.713 156.578 136.648C158.216 139.507 159.308 142.68 156.304 145.294C152.71 148.42 148.586 151.21 143.653 148.909C139.955 147.183 137.221 146.223 134.135 150.072C133.428 150.953 129.239 150.339 127.855 149.086C125.645 147.084 124.555 147.087 122.645 149.14C118.259 153.856 116.889 153.733 111.905 149.71C110.66 148.705 108.6 148.71 106.632 148.504ZM115.274 147.521C116.529 147.569 118.219 148.17 118.971 147.579C125.446 142.482 125.395 142.418 132.125 147.412C135.353 142.274 139.282 142.441 144.491 144.933C146.582 145.932 150.225 144.056 152.982 143.014C153.623 142.772 154.186 140.16 153.668 139.372C150.525 134.585 152.112 131.469 156.404 128.504C157.319 127.872 157.672 124.651 156.919 123.673C151.994 117.267 151.877 117.367 157.898 111.487C158.346 111.05 158.618 110.433 159.343 109.338C151.927 105.19 151.868 99.9339 157.04 93.8807C157.593 93.2325 157.118 90.8761 156.338 90.0583C152.638 86.1811 153.092 82.703 156.781 79.26C158.779 77.3949 159.165 75.6546 157.296 73.2457C152.758 67.3946 152.849 66.6435 157.936 61.0346C159.501 59.3095 160.215 58.0244 158.204 56.0359C152.555 50.4506 152.647 49.9316 158.623 44.4198C159.188 43.8981 159.555 43.1607 159.772 42.8601C157.75 39.815 154.319 36.9143 154.624 34.4815C154.94 31.9533 158.868 29.8773 161.226 27.5948C160.817 27.0235 160.587 26.5654 160.237 26.2348C153.714 20.0757 153.659 19.8236 159.663 13.5258C161.806 11.2768 161.825 9.27822 159.804 6.9869C156.543 3.29049 153.61 4.55764 150.282 7.06692C144.276 11.5965 140.848 11.4697 137.3 7.10049C133.783 2.76852 132.897 2.72201 128.686 6.64907C123.366 11.6106 120.092 11.8581 114.082 7.75265C107.915 3.5397 105.95 3.72927 101.829 9.59811C99.4071 13.0477 97.2123 12.8382 94.642 9.98641C93.2254 8.41494 91.7627 6.88497 90.2763 5.28848C89.3708 5.88351 88.7643 6.1755 88.2886 6.61044C81.8112 12.5323 81.7727 12.5813 75.7288 6.68191C73.2061 4.21957 71.7604 5.764 70.0414 7.68228C65.5572 12.6861 63.4825 12.6449 58.3563 8.50296C57.2185 7.58371 54.1142 7.12301 53.523 7.8182C49.1761 12.9307 44.7747 11.6876 40.3199 8.40493C36.5204 5.60519 33.524 5.37698 31.0502 10.0492C29.5423 12.8972 27.23 13.2929 24.2979 11.7389C21.3758 10.1902 18.3246 8.73385 15.1581 7.85867C13.4662 7.39102 11.4118 8.23477 9.52109 8.4866C9.77072 10.3096 9.63525 12.2993 10.3391 13.9257C12.8738 19.7823 12.6121 22.6161 8.1879 26.8827C5.68326 29.2981 5.72238 31.3611 8.29178 33.5641C11.9839 36.7297 11.5854 40.1333 8.82428 43.6482C7.89911 44.8261 6.89136 45.946 6.04541 47.1776C4.31021 49.7038 4.43668 51.4578 7.62668 53.0362C14.0327 56.2058 14.0722 60.057 8.06155 63.8083C3.73181 66.5106 3.68942 67.3935 7.74139 70.4769C12.9705 74.4559 13.1805 77.3352 8.5639 81.7522C3.97345 86.1441 3.97345 86.1529 8.59049 90.4205C13.1947 94.6764 12.5176 99.0957 6.91831 101.614C6.13422 101.967 5.48517 102.62 4.67542 103.205C13.086 109.681 13.1273 111.186 5.31006 117.373C1.73987 120.198 3.80148 122.075 6.28433 124.016C12.5899 128.945 12.674 130.843 6.40399 135.724C3.93387 137.646 3.47934 139.378 5.20242 142.013C8.20252 146.601 9.93747 147.037 14.9471 144.029C20.6715 140.592 24.4484 140.332 26.9338 144.08C29.6921 148.239 31.5582 147.572 34.4043 144.275C38.3474 139.706 41.606 139.782 44.8151 144.722C47.2207 148.425 48.9191 147.923 51.7435 145.329C56.2469 141.193 59.4415 141.37 63.0388 146.098C65.4947 149.325 67.3002 148.706 69.9404 146.509C74.6649 142.579 76.4264 142.647 80.5355 146.889C82.9575 149.389 84.7952 149.257 87.2633 146.945C91.8674 142.634 93.228 142.672 98.0842 147.125C100.042 148.919 101.257 148.711 103.066 146.943C107.897 142.223 109.155 142.314 115.274 147.521Z" fill="#2E2E2C"/>
<path d="M114.995 147.269C109.155 142.314 107.897 142.223 103.066 146.943C101.257 148.711 100.042 148.919 98.0842 147.125C93.2279 142.672 91.8674 142.634 87.2633 146.945C84.7951 149.257 82.9574 149.389 80.5354 146.889C76.4264 142.647 74.6649 142.579 69.9404 146.509C67.3001 148.706 65.4947 149.325 63.0387 146.098C59.4415 141.37 56.2469 141.193 51.7435 145.329C48.9191 147.923 47.2207 148.425 44.8151 144.722C41.606 139.782 38.3474 139.706 34.4042 144.275C31.5582 147.572 29.6921 148.239 26.9338 144.08C24.4484 140.332 20.6715 140.592 14.9471 144.029C9.93745 147.037 8.20249 146.601 5.2024 142.013C3.47932 139.377 3.93385 137.646 6.40397 135.724C12.674 130.843 12.5899 128.945 6.28431 124.016C3.80146 122.075 1.73985 120.198 5.31004 117.373C13.1273 111.186 13.086 109.681 4.67539 103.205C5.48515 102.62 6.13419 101.967 6.91828 101.614C12.5176 99.0956 13.1946 94.6763 8.59046 90.4204C3.97343 86.1529 3.97343 86.1441 8.56388 81.7521C13.1805 77.3351 12.9705 74.4558 7.74137 70.4768C3.6894 67.3935 3.73179 66.5105 8.06153 63.8083C14.0722 60.0569 14.0327 56.2057 7.62666 53.0362C4.43665 51.4577 4.31019 49.7037 6.04539 47.1776C6.89134 45.946 7.89909 44.826 8.82426 43.6481C11.5853 40.1332 11.9839 36.7297 8.29176 33.564C5.72236 31.3611 5.68324 29.298 8.18787 26.8827C12.6121 22.6161 12.8738 19.7823 10.3391 13.9257C9.63523 12.2993 9.7707 10.3095 9.52107 8.48655C11.4118 8.23472 13.4662 7.39097 15.1581 7.85862C18.3245 8.7338 21.3758 10.1902 24.2979 11.7388C27.23 13.2928 29.5422 12.8971 31.0502 10.0491C33.524 5.37693 36.5204 5.60514 40.3198 8.40488C44.7747 11.6875 49.1761 12.9306 53.523 7.81815C54.1141 7.12296 57.2185 7.58366 58.3562 8.50291C63.4824 12.6449 65.5571 12.6861 70.0413 7.68223C71.7604 5.76395 73.2061 4.21952 75.7287 6.68186C81.7727 12.5813 81.8112 12.5323 88.2886 6.61039C88.7643 6.17545 89.3707 5.88346 90.2763 5.28843C91.7626 6.88493 93.2253 8.41489 94.6419 9.98637C97.2123 12.8381 99.4071 13.0476 101.829 9.59806C105.95 3.72922 107.915 3.53965 114.082 7.7526C120.092 11.858 123.366 11.6105 128.686 6.64902C132.897 2.72196 133.783 2.76847 137.3 7.10044C140.848 11.4696 144.276 11.5964 150.282 7.06687C153.61 4.55759 156.543 3.29044 159.804 6.98685C161.825 9.27818 161.806 11.2768 159.663 13.5258C153.659 19.8235 153.714 20.0757 160.237 26.2348C160.587 26.5653 160.817 27.0234 161.226 27.5948C158.868 29.8773 154.94 31.9532 154.624 34.4815C154.319 36.9143 157.75 39.8149 159.772 42.8601C159.555 43.1607 159.188 43.898 158.623 44.4198C152.647 49.9316 152.555 50.4505 158.204 56.0358C160.215 58.0243 159.501 59.3095 157.936 61.0346C152.848 66.6435 152.758 67.3946 157.296 73.2456C159.165 75.6546 158.779 77.3948 156.781 79.2599C153.092 82.7029 152.638 86.1811 156.338 90.0583C157.118 90.876 157.593 93.2325 157.04 93.8807C151.868 99.9339 151.927 105.19 159.343 109.338C158.618 110.433 158.346 111.05 157.898 111.487C151.877 117.367 151.994 117.267 156.919 123.673C157.672 124.651 157.319 127.872 156.404 128.503C152.112 131.469 150.525 134.585 153.668 139.372C154.186 140.16 153.623 142.772 152.982 143.014C150.225 144.056 146.582 145.932 144.491 144.933C139.282 142.441 135.353 142.274 132.125 147.412C125.395 142.418 125.446 142.482 118.971 147.579C118.219 148.17 116.529 147.569 114.995 147.269ZM130.745 27.3213C132.024 28.3833 133.303 29.4454 134.581 30.5074C134.893 30.2289 135.205 29.9505 135.517 29.672C134.849 28.3902 134.181 27.1084 133.521 25.8429C134.378 25.1555 135.189 24.5056 135.542 24.2224C134.19 22.3659 133.129 20.909 131.841 19.14C131.154 19.974 130.379 20.9165 128.853 21.8141C127.853 21.4916 126.055 20.7524 125.973 20.9102C125.019 22.7339 124.324 24.6934 123.561 26.6169C125.038 26.7326 126.513 26.8943 127.992 26.9457C128.801 26.9738 129.618 26.8154 130.745 27.3213ZM120.656 57.6005C116.882 57.6159 113.109 57.6314 109.687 57.0076C114.797 51.3272 114.12 44.7588 112.092 38.2887C110.19 32.221 105.196 29.5321 99.2182 28.8428C95.6167 28.4276 91.8816 28.2216 88.3083 28.6932C78.6137 29.9726 68.9959 31.8333 59.302 33.1208C54.3538 33.778 49.3077 33.6996 44.0028 33.969C46.0236 37.6636 47.6803 40.6926 49.2678 44.5599C48.9609 47.5411 48.6541 50.5224 47.8973 54.0096C46.0935 56.5002 44.2898 58.9908 41.6499 61.2856C32.6385 62.2788 30.3609 63.9777 28.5497 71.1188C28.5497 71.1188 28.4993 71.1131 28.0017 71.865C27.032 78.2674 26.301 84.6509 29.691 91.4521C29.8845 92.7342 30.199 94.0127 30.2369 95.2994C30.2734 96.5342 29.5366 97.9919 29.9739 98.9838C34.405 109.036 34.3541 118.917 29.7512 128.942C26.6185 135.765 27.7152 137.432 35.3129 137.743C42.6339 138.042 49.9763 138.202 57.2986 138.01C80.5941 137.402 103.883 136.548 127.178 135.918C131.984 135.788 134.983 133.233 135.728 129.031C137.167 120.914 138.432 112.676 138.622 104.461C138.732 99.7033 136.14 95.1886 131.4 92.0309C131.157 90.7083 131.379 88.924 130.597 88.1383C125.645 83.1635 125.013 77.1352 125.824 70.6687C126.347 66.4999 126.933 62.3391 127.548 57.7488C125.117 57.7488 123.346 57.7488 120.656 57.6005ZM19.3956 52.617C18.9577 54.7013 18.9577 54.7013 23.7724 58.5928C25.6047 57.4153 27.1615 56.4148 28.5155 55.5447C28.1582 52.9352 27.7402 49.8825 27.3014 46.678C24.5946 47.3529 21.5968 48.1003 18.6511 48.8347C19.2278 50.3522 19.6291 51.4083 19.3956 52.617Z" fill="#F4F4EB"/>
<path d="M131.407 92.6831C136.14 95.1887 138.732 99.7033 138.622 104.462C138.431 112.676 137.167 120.914 135.728 129.031C134.983 133.233 131.984 135.789 127.178 135.918C103.883 136.548 80.594 137.402 57.2985 138.01C49.9762 138.202 42.6338 138.042 35.3129 137.743C27.7151 137.432 26.6184 135.765 29.7512 128.942C34.3541 118.917 34.405 109.036 29.9738 98.9839C29.5365 97.9919 30.2733 96.5343 30.2369 95.2994C30.1989 94.0128 29.8845 92.7342 29.7526 90.832C30.1294 89.968 30.4446 89.724 30.9594 89.7374C31.9043 91.2895 32.6496 92.5841 33.6481 94.2395C49.1264 93.9503 64.3513 93.3004 79.9058 92.7638C80.6868 92.7931 81.1383 92.7091 82.0512 92.6925C89.5293 92.4046 96.546 92.0492 104.001 91.7646C106.574 91.6015 108.72 91.0947 110.84 91.1849C117.486 91.4677 124.123 91.9757 130.821 92.5188C130.879 92.6413 131.137 92.7428 131.137 92.7428L131.407 92.6831ZM32.7827 125.927C32.6782 126.435 32.5737 126.944 32.1726 128.229C31.8268 129.288 31.4809 130.348 30.9827 131.874C33.782 132.246 36.2119 132.637 38.6563 132.883C64.8567 135.521 90.9094 133.25 116.943 130.471C130.526 129.02 132.066 127.3 132.418 113.278C132.468 111.284 132.431 109.271 132.22 107.29C131.091 96.7157 130.297 96.0781 118.642 96.5079C99.6292 96.9278 80.6162 97.3476 60.9052 97.6053C59.7832 97.9132 58.6611 98.221 56.6222 98.4917C52.9702 98.6836 49.3182 98.8756 44.7648 98.8744C41.0567 99.4682 37.3487 100.062 33.6179 101.46C34.1956 104.542 34.7732 107.624 35.1774 111.575C34.5404 116.282 33.9034 120.989 32.7827 125.927Z" fill="#272525"/>
<path d="M130.764 92.3963C124.123 91.9756 117.487 91.4677 110.84 91.1849C108.72 91.0947 106.574 91.6015 103.718 91.4557C96.6343 90.9417 90.2719 90.739 83.9102 90.7608C83.1346 90.7635 82.3632 91.9742 81.5899 92.6249C81.1384 92.709 80.6869 92.793 79.6072 92.4702C64.3069 92.2972 49.6347 92.5197 34.9638 92.8109C34.434 92.8214 33.9176 93.5074 33.395 93.8786C32.6497 92.584 31.9044 91.2895 30.9503 89.32C30.4219 84.0898 30.1761 79.5276 29.7366 74.9841C29.6092 73.6662 28.9272 72.4019 28.4994 71.1131C28.4994 71.1131 28.5497 71.1188 28.8729 71.3947C32.5648 67.0816 36.2974 63.0818 43.0953 63.3598C52.2023 62.8198 60.8813 62.2746 69.7288 61.8923C70.4479 61.9066 70.9984 61.758 72.0111 61.6198C80.8265 61.2827 89.1797 60.935 97.8813 60.6901C98.6962 60.6924 99.1627 60.5917 100.028 60.5058C101.75 60.4304 103.074 60.34 104.852 60.3769C110.73 60.1859 116.153 59.8674 121.981 59.6218C123.094 60.7972 124.391 61.9031 124.385 63.0018C124.372 65.2386 123.657 67.4714 122.95 69.6428C122.501 69.4868 122.333 69.3939 122.239 68.9189C120.906 67.8956 119.485 66.6734 118.09 66.7028C104.647 66.9849 91.2038 67.3598 77.7706 67.9451C65.6455 68.4733 53.527 69.2119 41.4231 70.0963C39.838 70.212 37.1295 71.6375 37.0401 72.643C36.66 76.9156 36.6809 81.3249 37.4008 85.5399C37.6573 87.0418 40.3363 89.2731 41.8635 89.2369C56.1127 88.8985 70.3518 88.1385 85.0375 87.5263C97.8402 86.4484 110.199 85.3452 122.942 84.2234C125.805 86.9355 128.284 89.666 130.764 92.3963Z" fill="#D1ACC6"/>
<path d="M97.5329 60.5872C89.1797 60.935 80.8264 61.2827 71.8566 61.4162C70.68 61.3778 70.1201 61.5535 69.5602 61.7295C60.8812 62.2746 52.2022 62.8198 43.0673 63.0473C42.5696 62.3136 42.5278 61.8974 42.4861 61.4814C44.2898 58.9908 46.0935 56.5002 48.5926 53.8117C49.6015 53.6505 49.915 53.6871 50.141 54.1386C50.9262 55.2619 51.8377 56.63 52.6661 56.5814C68.5985 55.6479 84.5239 54.5849 100.442 53.4245C101.994 53.3114 104.725 52.5233 104.804 51.8145C105.272 47.6 105.731 43.1853 104.856 39.1258C104.538 37.6478 100.524 36.0111 98.2351 36.0662C82.3269 36.4495 66.429 37.259 50.0203 37.9533C50.7761 40.4746 51.2435 42.0337 51.316 43.628C50.3932 43.6826 49.8651 43.7022 49.3371 43.7216C47.6803 40.6926 46.0236 37.6636 44.0028 33.9691C49.3077 33.6996 54.3538 33.778 59.302 33.1208C68.9958 31.8333 78.6137 29.9727 88.3083 28.6932C91.8816 28.2216 95.6167 28.4276 99.2182 28.8429C105.196 29.5321 110.19 32.2211 112.092 38.2888C114.12 44.7589 114.797 51.3272 109.131 57.2856C98.952 57.8284 89.3295 58.0932 79.707 58.358C82.6146 59.5312 85.5091 59.3941 88.3847 59.5686C91.4434 59.7545 94.4842 60.2353 97.5329 60.5872Z" fill="#272525"/>
<path d="M123.231 69.7059C123.657 67.4714 124.372 65.2386 124.385 63.0018C124.391 61.9031 123.094 60.7972 121.982 59.3218C121.576 58.549 121.576 58.149 121.575 57.7488C123.346 57.7488 125.117 57.7488 127.548 57.7488C126.933 62.3392 126.347 66.4999 125.824 70.6688C125.013 77.1352 125.645 83.1635 130.597 88.1384C131.379 88.924 131.157 90.7083 131.404 92.357C131.407 92.683 131.137 92.7427 131.137 92.7427C131.137 92.7427 130.879 92.6413 130.821 92.5187C128.284 89.666 125.805 86.9355 123.079 83.968C123.048 83.2048 123.263 82.6786 123.47 81.7366C123.466 79.6491 123.471 77.9777 123.696 76.3444C124.017 76.273 124.195 76.1636 124.196 76.054C124.196 75.9448 124.027 75.763 123.913 75.746C123.798 75.7288 123.659 75.8752 123.194 75.6811C116.759 75.4667 110.659 75.5211 104.239 75.4759C102.132 75.4741 100.346 75.5715 98.1002 75.5737C83.4923 75.4786 69.3449 75.4786 55.1975 75.4786C62.8616 74.4763 70.5188 73.6763 78.1945 73.4095C92.3338 72.9179 106.483 72.6824 120.63 72.4903C122.856 72.4601 123.731 71.9194 123.231 69.7059Z" fill="#4F4D4C"/>
<path d="M49.3025 44.1407C49.8652 43.7021 50.3933 43.6826 51.7337 43.6494C53.5317 43.5424 54.5187 43.4616 55.5026 43.3538C67.1525 42.0784 78.7893 40.6515 90.4624 39.6464C92.7682 39.4478 95.2133 40.8679 97.5942 41.5415C97.5202 42.2587 97.4461 42.9759 97.3721 43.6931C95.4255 44.2486 93.51 45.0062 91.5248 45.3128C88.4555 45.7871 85.3385 45.9534 82.4361 45.8499C86.1028 44.4388 89.5751 43.428 93.0473 42.4172C92.9993 42.1122 92.9514 41.8073 92.9034 41.5023C87.7992 41.9916 82.6951 42.4809 77.1374 43.0015C68.668 44.0319 60.6522 45.0308 53.0027 45.9841C51.9915 48.8052 51.1101 51.2645 50.2287 53.7237C49.9151 53.6871 49.6016 53.6504 48.8177 53.5588C48.6542 50.5225 48.961 47.5411 49.3025 44.1407Z" fill="#4F4D4C"/>
<path d="M19.7131 52.5407C19.6292 51.4083 19.2278 50.3522 18.6511 48.8347C21.5969 48.1003 24.5946 47.3529 27.3014 46.678C27.7402 49.8825 28.1582 52.9352 28.5155 55.5447C27.1615 56.4149 25.6048 57.4153 23.7725 58.5928C18.9577 54.7014 18.9577 54.7014 19.7131 52.5407Z" fill="#4F4D4C"/>
<path d="M121.116 57.6747C121.576 58.149 121.576 58.549 121.576 59.249C116.153 59.8674 110.73 60.1859 104.77 60.0563C102.698 59.9026 101.164 60.1968 99.6292 60.491C99.1627 60.5917 98.6962 60.6924 97.8813 60.6901C94.4843 60.2353 91.4435 59.7545 88.3848 59.5685C85.5092 59.3941 82.6147 59.5312 79.707 58.358C89.3295 58.0932 98.952 57.8284 108.955 57.6053C113.109 57.6314 116.882 57.6159 121.116 57.6747Z" fill="#5D5C5B"/>
<path d="M42.0681 61.3835C42.5279 61.8974 42.5696 62.3135 42.6394 63.0422C36.2974 63.0818 32.5648 67.0816 28.8528 71.3791C30.3609 63.9777 32.6385 62.2789 42.0681 61.3835Z" fill="#5D5C5B"/>
<path d="M129.604 21.8589C130.379 20.9165 131.155 19.9741 131.841 19.14C133.129 20.9091 134.19 22.366 135.543 24.2224C135.189 24.5056 134.379 25.1555 133.521 25.8429C134.181 27.1084 134.849 28.3902 135.517 29.6721C135.205 29.9505 134.893 30.2289 134.581 30.5074C133.303 29.4454 132.024 28.3833 130.87 26.8749C130.531 24.9054 130.067 23.3821 129.604 21.8589Z" fill="#5D5C5B"/>
<path d="M28.2506 71.4891C28.9272 72.4019 29.6092 73.6662 29.7366 74.9841C30.1761 79.5276 30.4219 84.0898 30.7507 89.0624C30.4447 89.7239 30.1295 89.968 29.654 90.468C26.301 84.6509 27.032 78.2674 28.2506 71.4891Z" fill="#4F4D4C"/>
<path d="M129.229 21.8365C130.067 23.3822 130.531 24.9054 130.713 26.5849C129.618 26.8154 128.801 26.9738 127.992 26.9457C126.513 26.8943 125.038 26.7326 123.561 26.6169C124.324 24.6934 125.019 22.7339 125.973 20.9102C126.055 20.7524 127.853 21.4916 129.229 21.8365Z" fill="#1E1E1E"/>
<path d="M119.555 96.7487C130.297 96.078 131.092 96.7156 132.22 107.29C132.431 109.271 132.468 111.284 132.418 113.277C132.066 127.3 130.527 129.02 116.944 130.47C90.9095 133.25 64.8568 135.521 38.6564 132.883C36.212 132.637 33.7821 132.246 30.9828 131.874C31.481 130.348 31.8269 129.288 32.7787 127.902C42.7924 127.867 52.205 128.483 61.606 128.34C67.974 128.243 74.3258 127.078 81.1374 126.45C84.7231 126.268 87.8845 126.215 90.983 125.745C96.9002 124.849 102.782 123.715 108.632 122.666C108.587 122.653 108.569 122.746 108.835 122.647C109.252 122.242 109.402 121.938 109.75 121.352C110.551 120.774 111.154 120.478 111.757 120.182C111.559 119.679 111.361 119.176 111.163 118.673C99.436 118.673 87.709 118.657 75.9829 118.756C75.6566 118.759 75.3407 119.992 74.6535 120.598C72.5634 120.587 70.8398 120.63 69.2247 120.121C65.7745 119.363 62.2158 119.158 58.287 118.855C52.2879 119.192 46.6589 119.626 41.0299 120.06C40.9848 119.387 40.9398 118.714 40.8947 118.041C43.1099 117.836 45.3222 117.497 47.5409 117.448C64.1131 117.085 80.6981 117.043 97.2533 116.314C103.226 116.051 109.128 114.182 115.385 112.912C115.537 110.359 115.147 110.287 111.53 109.691C109.956 109.431 106.905 111.409 107.435 107.363C110.503 106.693 113.283 106.417 115.799 105.451C116.939 105.013 117.554 103.207 118.466 101.636C118.869 99.75 119.212 98.2494 119.555 96.7487Z" fill="#EEEBE6"/>
<path d="M119.098 96.6284C119.212 98.2495 118.869 99.7501 118.01 101.598C93.8507 102.853 70.2086 103.766 46.5659 104.659C44.7415 104.728 42.8768 104.457 41.1031 104.763C40.4355 104.879 39.9734 106.185 39.4685 107.273C39.6138 108.022 39.7082 108.448 39.5637 109.031C38.6058 109.759 37.8871 110.329 36.7159 110.831C35.9594 110.745 35.6552 110.726 35.351 110.706C34.7733 107.624 34.1957 104.542 34.0796 101.034C38.2496 100.095 41.958 99.5814 45.6664 99.0676C49.3183 98.8755 52.9703 98.6835 57.2925 98.7665C59.1763 98.6168 60.3898 98.1921 61.6034 97.7675C80.6163 97.3476 99.6293 96.9278 119.098 96.6284Z" fill="#F6F5EC"/>
<path d="M35.2643 111.141C35.6552 110.726 35.9594 110.745 36.8368 111.111C40.7841 115.148 44.8335 112.367 49.0008 112.669C51.4693 112.722 53.5033 112.728 55.5228 113.037C55.5186 113.746 55.5288 114.152 55.0938 114.65C50.5105 114.987 46.3215 114.934 42.2613 115.632C40.7992 115.883 39.6466 117.936 38.3527 119.167C39.8452 120.29 41.366 122.402 42.825 122.36C48.0898 122.209 53.3338 121.333 59.0504 120.792C62.7155 120.794 65.9158 120.733 69.1161 120.673C70.8398 120.63 72.5634 120.587 75.1467 120.711C84.3209 120.904 92.6365 120.869 100.949 121.02C102.38 121.046 103.796 121.867 104.784 122.356C96.4392 123.193 88.5298 123.994 80.1794 124.724C69.0133 124.657 58.2867 124.56 47.5637 124.713C42.7943 124.781 38.032 125.352 33.2665 125.696C33.9035 120.989 34.5405 116.282 35.2643 111.141Z" fill="#E7E6DE"/>
<path d="M33.0246 125.811C38.0319 125.353 42.7942 124.781 47.5637 124.713C58.2867 124.56 69.0133 124.657 80.1865 125.123C80.6513 125.859 80.668 126.125 80.6847 126.39C74.3257 127.078 67.9739 128.243 61.6059 128.34C52.2049 128.483 42.7924 127.867 32.9269 127.513C32.5737 126.944 32.6782 126.435 33.0246 125.811Z" fill="#5D5C5B"/>
<path d="M33.6482 94.2394C33.9176 93.5074 34.434 92.8213 34.9638 92.8108C49.6346 92.5197 64.3068 92.2972 79.2775 92.3568C64.3513 93.3003 49.1264 93.9502 33.6482 94.2394Z" fill="#E2E2DA"/>
<path d="M82.0513 92.6926C82.3632 91.9742 83.1346 90.7635 83.9102 90.7608C90.2719 90.739 96.6343 90.9417 103.28 91.3851C96.5461 92.0491 89.5294 92.4046 82.0513 92.6926Z" fill="#E2E2DA"/>
<path d="M45.2156 98.971C41.9579 99.5814 38.2496 100.095 34.0909 100.632C37.3488 100.062 41.0568 99.4682 45.2156 98.971Z" fill="#C6C6BE"/>
<path d="M61.2543 97.6865C60.3898 98.1921 59.1763 98.6168 57.751 98.7851C58.6612 98.221 59.7833 97.9131 61.2543 97.6865Z" fill="#C6C6BE"/>
<path d="M122.95 69.6428C123.731 71.9194 122.856 72.4601 120.631 72.4903C106.483 72.6824 92.3338 72.9179 78.1945 73.4095C70.5188 73.6763 62.8616 74.4763 55.1975 75.4786C69.3449 75.4786 83.4924 75.4786 98.0999 75.8723C98.5661 76.4649 98.5722 76.6639 98.209 77.0358C92.4315 77.728 87.0232 78.2469 81.1741 78.7031C69.6787 79.1061 58.6242 79.5722 47.5696 80.0381C47.5561 80.4894 47.5427 80.9407 47.5292 81.392C50.3828 81.642 53.2524 82.2191 56.0871 82.0806C64.628 81.6635 73.1552 80.968 82.1373 80.4748C88.8214 79.9842 95.0646 79.4732 101.283 78.7463C102.374 78.6187 103.361 77.5861 104.445 76.6235C104.517 76.0421 104.538 75.8087 104.56 75.5753C110.659 75.5211 116.759 75.4667 123.175 75.7691C123.492 76.1258 123.475 76.3062 123.475 76.3062C123.471 77.9777 123.466 79.6491 123.099 81.7966C121.988 82.3262 121.24 82.3801 120.271 82.2053C118.882 82.4029 117.714 82.8292 116.084 83.2856C105.277 84.1236 94.9323 84.9313 84.173 85.6669C82.36 85.5977 80.9612 85.601 79.4709 85.2324C77.1984 84.3271 75.0175 83.7935 72.8365 83.2599C72.787 83.5207 72.7376 83.7814 72.6882 84.0421C74.3203 84.5965 75.9523 85.1508 77.1667 85.8105C71.6844 86.1859 66.62 86.456 61.4817 86.353C59.5515 85.3838 57.6951 84.7881 55.8387 84.1924C55.7584 84.4416 55.678 84.6909 55.5976 84.94C56.6133 85.5801 57.6289 86.2204 58.2584 86.9963C53.7439 87.0504 49.6157 86.9686 45.5822 86.5837C45.3598 85.747 45.0426 85.2134 44.7255 84.68C44.0053 85.3506 43.2852 86.0214 42.1377 86.7302C40.9875 86.0344 39.6813 85.3318 39.6396 84.5611C39.4273 80.6266 39.5416 76.6745 39.5416 72.3028C46.2153 71.9809 52.6409 71.5958 59.0721 71.3746C80.1018 70.6511 101.134 69.9875 122.165 69.3007C122.333 69.3939 122.501 69.4868 122.95 69.6428Z" fill="#F0EFE8"/>
<path d="M122.239 68.9189C101.134 69.9875 80.1018 70.6511 59.0721 71.3746C52.6409 71.5958 46.2153 71.9809 39.5416 72.3028C39.5416 76.6745 39.4273 80.6267 39.6397 84.5611C39.6813 85.3319 40.9875 86.0344 42.4924 86.8418C44.0121 86.9057 44.7498 86.8963 45.4874 86.8869C49.6157 86.9686 53.7439 87.0504 58.6199 87.081C60.0969 86.9286 60.8262 86.8275 61.5555 86.7263C66.62 86.456 71.6844 86.1859 77.4969 85.8769C78.6841 85.7602 79.1233 85.6822 79.5624 85.6042C80.9612 85.601 82.36 85.5977 84.1672 85.9605C84.5817 86.7179 84.5878 87.1093 84.5938 87.5007C70.3517 88.1385 56.1126 88.8985 41.8635 89.2369C40.3363 89.2732 37.6573 87.0418 37.4008 85.5399C36.6808 81.3249 36.6599 76.9156 37.04 72.643C37.1295 71.6375 39.8379 70.212 41.4231 70.0963C53.527 69.2119 65.6455 68.4734 77.7706 67.9452C91.2037 67.3598 104.647 66.985 118.09 66.7029C119.485 66.6734 120.905 67.8956 122.239 68.9189Z" fill="#4F4D4C"/>
<path d="M85.0374 87.5263C84.5877 87.1093 84.5817 86.7178 84.5814 86.0329C94.9323 84.9313 105.277 84.1236 116.446 83.4091C118.344 83.1464 119.417 82.7902 120.491 82.4339C121.24 82.3801 121.988 82.3262 123.108 82.2126C123.263 82.6786 123.048 83.2048 122.695 83.9863C110.199 85.3452 97.8401 86.4484 85.0374 87.5263Z" fill="#2E2E2C"/>
<path d="M100.028 60.5057C101.163 60.1968 102.698 59.9026 104.315 59.929C103.074 60.34 101.75 60.4303 100.028 60.5057Z" fill="#272525"/>
<path d="M69.7288 61.8922C70.1201 61.5535 70.68 61.3777 71.3943 61.4057C70.9983 61.758 70.4478 61.9065 69.7288 61.8922Z" fill="#5D5C5B"/>
<path d="M50.141 54.1386C51.11 51.2645 51.9914 48.8052 53.0026 45.9841C60.652 45.0308 68.6678 44.0319 77.1296 43.3801C79.131 44.5682 80.6862 45.4092 82.2415 46.2501C85.3384 45.9534 88.4553 45.7871 91.5247 45.3128C93.5098 45.0062 95.4253 44.2487 97.372 43.6931C97.446 42.9759 97.5201 42.2587 97.5941 41.5415C95.2132 40.8679 92.768 39.4478 90.4622 39.6464C78.7892 40.6516 67.1524 42.0784 55.5025 43.3538C54.5185 43.4616 53.5316 43.5424 52.1284 43.6143C51.2434 42.0337 50.7761 40.4746 50.0203 37.9533C66.429 37.259 82.3269 36.4495 98.2351 36.0662C100.524 36.0111 104.538 37.6478 104.856 39.1257C105.731 43.1853 105.272 47.6 104.804 51.8145C104.725 52.5233 101.994 53.3114 100.442 53.4245C84.5239 54.5849 68.5985 55.6479 52.6661 56.5814C51.8376 56.63 50.9262 55.2619 50.141 54.1386ZM85.5979 50.372C86.3476 49.904 87.0972 49.436 87.8468 48.9681C87.6944 48.482 87.5419 47.9959 87.3895 47.5098C78.3301 49.8331 68.6617 42.4663 59.9226 50.372C68.1743 50.372 76.4261 50.372 85.5979 50.372Z" fill="#E9E8E0"/>
<path d="M98.5782 76.8628C98.5722 76.6639 98.5661 76.4649 98.5603 75.9675C100.346 75.5715 102.132 75.4741 104.239 75.4759C104.538 75.8087 104.517 76.0421 104.031 76.573C101.905 76.8679 100.242 76.8653 98.5782 76.8628Z" fill="#E9E8E0"/>
<path d="M123.696 76.3445C123.475 76.3063 123.492 76.1258 123.511 76.0378C123.659 75.8752 123.798 75.7289 123.913 75.7461C124.027 75.763 124.196 75.9448 124.196 76.0541C124.195 76.1637 124.017 76.273 123.696 76.3445Z" fill="#E9E8E0"/>
<path d="M82.436 45.8499C80.6863 45.4092 79.131 44.5682 77.5833 43.3487C82.695 42.4809 87.7991 41.9916 92.9033 41.5023C92.9513 41.8073 92.9992 42.1122 93.0472 42.4172C89.575 43.428 86.1027 44.4388 82.436 45.8499Z" fill="#C6C6BE"/>
<path d="M58.5856 120.731C53.3337 121.333 48.0897 122.209 42.825 122.36C41.3659 122.402 39.8451 120.29 38.3527 119.167C39.6465 117.936 40.7991 115.883 42.2612 115.632C46.3215 114.934 50.5104 114.987 55.5604 114.714C74.8434 113.999 93.2146 113.315 112.025 112.621C113.33 112.757 114.196 112.902 115.062 113.047C109.128 114.182 103.226 116.051 97.2532 116.314C80.698 117.043 64.113 117.085 47.5409 117.448C45.3222 117.497 43.1099 117.836 40.8946 118.041C40.9397 118.714 40.9848 119.387 41.0299 120.06C46.6588 119.626 52.2878 119.192 58.2671 119.3C58.6068 120.138 58.5962 120.435 58.5856 120.731Z" fill="#4F4D4C"/>
<path d="M39.4176 106.948C39.9734 106.185 40.4355 104.879 41.1031 104.763C42.8768 104.457 44.7415 104.728 46.5659 104.659C70.2086 103.766 93.8507 102.853 117.95 101.983C117.554 103.207 116.939 105.013 115.799 105.451C113.283 106.417 110.503 106.693 107.465 107.391C107.099 107.531 107.124 107.61 106.758 107.506C106.139 107.376 105.886 107.351 105.654 107.062C105.652 106.449 105.629 106.098 105.82 105.692C106.034 105.637 106.47 105.57 106.76 105.601C107.322 105.503 107.594 105.374 107.866 105.245C107.37 105.082 106.874 104.919 105.921 104.745C87.8403 105.434 70.2167 106.135 52.1362 106.733C47.5921 106.736 43.5049 106.842 39.4176 106.948Z" fill="#2E2E2C"/>
<path d="M107.124 107.61C107.124 107.61 107.099 107.531 107.07 107.503C106.905 111.409 109.956 109.431 111.53 109.691C115.147 110.287 115.537 110.359 115.385 112.912C114.196 112.902 113.33 112.757 111.791 112.259C92.5914 112.181 74.0643 112.457 55.5372 112.733C53.5032 112.728 51.4692 112.722 48.988 112.284C48.5698 110.827 48.5989 109.802 48.9534 108.777C49.7052 108.729 50.1318 108.681 50.9471 108.773C54.2546 109.054 57.1758 109.351 60.0916 109.305C66.1902 109.208 72.2859 108.932 78.2138 109.059C76.3254 109.6 74.606 109.811 72.8866 110.022C72.9052 110.115 72.9237 110.208 72.9423 110.301C78.1824 110.301 83.4225 110.301 89.1126 110.346C94.6965 110.213 99.837 110.126 104.958 109.762C105.727 109.707 106.404 108.36 107.124 107.61Z" fill="#201F1B"/>
<path d="M105.22 122.32C103.796 121.866 102.38 121.046 100.949 121.02C92.6365 120.869 84.3208 120.904 75.5131 120.764C75.3406 119.992 75.6565 118.759 75.9828 118.756C87.7089 118.657 99.436 118.673 111.163 118.673C111.361 119.176 111.559 119.679 111.757 120.182C111.154 120.478 110.551 120.774 109.524 121.474C108.922 122.167 108.746 122.457 108.569 122.746C108.569 122.746 108.586 122.653 108.199 122.616C106.948 122.493 106.084 122.407 105.22 122.32Z" fill="#5D5C5B"/>
<path d="M104.784 122.356C106.084 122.407 106.948 122.493 108.245 122.63C102.782 123.715 96.9002 124.849 90.9829 125.745C87.8845 126.215 84.723 126.268 81.1374 126.45C80.6681 126.125 80.6513 125.859 80.6274 125.194C88.5298 123.994 96.4392 123.193 104.784 122.356Z" fill="#2E2E2C"/>
<path d="M59.0503 120.792C58.5962 120.435 58.6068 120.138 58.6372 119.397C62.2157 119.158 65.7744 119.363 69.2246 120.121C65.9157 120.733 62.7154 120.794 59.0503 120.792Z" fill="#2E2E2C"/>
<path d="M108.835 122.647C108.746 122.457 108.923 122.167 109.325 121.755C109.402 121.938 109.252 122.242 108.835 122.647Z" fill="#2E2E2C"/>
<path d="M48.6281 108.778C48.5989 109.802 48.5698 110.827 48.5534 112.236C44.8334 112.367 40.7841 115.148 37.2891 111.178C37.887 110.329 38.6058 109.759 40.0008 109.05C43.3274 108.867 45.9777 108.822 48.6281 108.778Z" fill="#4F4D4C"/>
<path d="M48.9535 108.777C45.9778 108.822 43.3275 108.867 40.2399 108.893C39.7083 108.448 39.6138 108.022 39.4685 107.272C43.5049 106.842 47.5921 106.736 51.9507 106.939C51.6674 107.71 51.1129 108.172 50.5584 108.634C50.1319 108.681 49.7054 108.729 48.9535 108.777Z" fill="#AFAFAB"/>
<path d="M55.5227 113.037C74.0643 112.457 92.5914 112.181 111.352 112.267C93.2146 113.315 74.8434 113.999 56.0056 114.621C55.5287 114.152 55.5185 113.746 55.5227 113.037Z" fill="#C6C6BE"/>
<path d="M81.6877 80.3809C73.1552 80.968 64.6279 81.6635 56.0871 82.0806C53.2524 82.2191 50.3828 81.642 47.5292 81.392C47.5426 80.9407 47.5561 80.4894 47.5696 80.0382C58.6241 79.5722 69.6787 79.1061 81.1708 79.1077C81.6349 79.8438 81.6613 80.1124 81.6877 80.3809Z" fill="#5D5C5B"/>
<path d="M82.1373 80.4748C81.6614 80.1124 81.6349 79.8438 81.6117 79.1706C87.0232 78.2469 92.4315 77.728 98.209 77.0358C100.242 76.8653 101.905 76.8679 103.982 76.921C103.361 77.5861 102.374 78.6187 101.283 78.7463C95.0646 79.4732 88.8214 79.9842 82.1373 80.4748Z" fill="#272525"/>
<path d="M79.4709 85.2324C79.1233 85.6822 78.6841 85.7602 77.9147 85.7717C75.9524 85.1508 74.3203 84.5965 72.6882 84.0421C72.7376 83.7814 72.7871 83.5207 72.8365 83.2599C75.0175 83.7935 77.1985 84.3271 79.4709 85.2324Z" fill="#E9E8E0"/>
<path d="M61.4817 86.353C60.8262 86.8275 60.0969 86.9285 59.0061 86.9451C57.629 86.2204 56.6133 85.5801 55.5977 84.94C55.678 84.6909 55.7584 84.4416 55.8388 84.1924C57.6951 84.7881 59.5515 85.3838 61.4817 86.353Z" fill="#E9E8E0"/>
<path d="M120.271 82.2053C119.418 82.7902 118.344 83.1464 116.908 83.3791C117.714 82.8292 118.882 82.4029 120.271 82.2053Z" fill="#E9E8E0"/>
<path d="M45.5822 86.5837C44.7497 86.8963 44.012 86.9057 42.9197 86.8036C43.2851 86.0214 44.0053 85.3506 44.7254 84.68C45.0426 85.2134 45.3598 85.747 45.5822 86.5837Z" fill="#E9E8E0"/>
<path d="M85.1379 50.372C76.4261 50.372 68.1744 50.372 59.9226 50.372C68.6618 42.4663 78.3301 49.8331 87.3895 47.5098C87.5419 47.9959 87.6944 48.482 87.8468 48.9681C87.0972 49.4361 86.3476 49.904 85.1379 50.372Z" fill="#5D5C5B"/>
<path d="M50.9471 108.773C51.1128 108.172 51.6674 107.71 52.4074 107.042C70.2167 106.135 87.8403 105.434 105.981 104.945C106.497 105.155 106.47 105.57 106.47 105.57C106.47 105.57 106.034 105.637 105.368 105.61C98.0168 105.956 91.3319 106.328 84.2568 106.656C82.0386 107.317 80.2108 108.023 78.3829 108.729C72.286 108.932 66.1902 109.208 60.0916 109.305C57.1759 109.351 54.2547 109.054 50.9471 108.773Z" fill="#E2E2DA"/>
<path d="M84.6471 106.7C91.332 106.328 98.0168 105.956 105.154 105.665C105.629 106.098 105.652 106.449 105.267 107.243C99.4571 108.056 94.0539 108.425 88.269 108.717C86.8073 107.993 85.7272 107.346 84.6471 106.7Z" fill="#5D5C5B"/>
<path d="M88.6506 108.795C94.0539 108.425 99.4571 108.056 105.247 107.506C105.886 107.351 106.139 107.376 106.758 107.506C106.404 108.36 105.727 109.707 104.958 109.762C99.837 110.126 94.6966 110.213 89.1275 110.094C88.6785 109.464 88.6646 109.129 88.6506 108.795Z" fill="#E2E2DA"/>
<path d="M106.76 105.601C106.47 105.57 106.497 105.155 106.438 104.956C106.874 104.92 107.37 105.082 107.866 105.245C107.594 105.374 107.322 105.503 106.76 105.601Z" fill="#5D5C5B"/>
<path d="M88.2691 108.717C88.6646 109.129 88.6786 109.464 88.6776 110.05C83.4226 110.301 78.1825 110.301 72.9424 110.301C72.9239 110.208 72.9053 110.115 72.8867 110.022C74.6061 109.811 76.3255 109.6 78.214 109.059C80.2108 108.023 82.0387 107.317 84.2569 106.656C85.7272 107.346 86.8073 107.993 88.2691 108.717Z" fill="#AFAFAB"/>
</svg>
