<svg width="210" height="165" viewBox="0 0 210 165" fill="none" xmlns="http://www.w3.org/2000/svg">
<path d="M145.848 68.3749C146.567 69.9208 147.112 71.5676 148.188 72.0625C155.707 75.5231 155.912 75.9794 151.753 83.2253C151.597 83.4973 151.596 83.8589 151.452 84.4919C152.253 84.8385 153.071 85.3354 153.958 85.5538C160.121 87.0722 161.443 89.6952 158.168 95.1314C156.01 98.7139 158.764 99.8428 160.644 101.504C166.536 106.712 166.843 112.434 160.819 116.952C158.849 118.429 155.611 118.697 152.963 118.664C149.822 118.625 147.979 118.784 147.919 122.714C147.851 127.139 144.809 128.646 140.674 128.098C138.726 127.841 136.796 127.444 134.842 127.108C133.924 134.378 131.357 136.433 124.458 134.993C121.164 134.306 119.769 134.704 118.979 138.321C117.952 143.026 114.406 144.496 109.759 142.963C108.675 142.605 107.6 142.215 106.741 141.916C104.961 145.209 104.001 149.425 101.409 151.069C98.9923 152.601 94.8407 151.396 90.9058 151.396C86.2698 160.795 85.535 161.076 76.7095 155.978C73.2242 163.663 71.8316 163.888 65.2607 157.314C63.1362 158.885 60.9383 160.533 58.7174 162.149C54.3327 165.34 51.49 165.115 46.1072 161.206C42.8491 158.839 42.6943 155.82 44.0649 152.348C44.4658 151.332 44.4002 150.132 43.3597 150.029C40.4449 147.526 36.7891 145.456 34.9593 142.321C34.164 140.958 37.1225 137.404 38.6184 134.351C35.9507 132.767 31.0819 131.461 29.4069 128.404C27.9309 125.711 30.0229 121.062 30.6099 116.759C27.2429 116.856 21.2663 118.598 20.789 112.395C20.4928 108.544 23.1735 104.464 24.7105 99.917C23.3614 99.6363 21.3009 99.3146 19.3008 98.7708C13.6596 97.2376 12.3322 93.4803 15.6997 88.7674C16.2801 87.9549 17.0936 87.2376 17.4255 86.3383C17.7821 85.3718 17.9603 84.1634 17.6765 83.2236C17.5638 82.8501 15.9742 82.7029 15.1027 82.8132C8.49848 83.6492 6.54884 81.9145 7.09419 75.4103C2.71931 74.4056 -0.379265 71.5568 0.0375453 67.1338C0.2855 64.5029 2.93531 62.0984 5.04179 59.9042C5.79331 51.5096 8.30796 49.9042 18.6926 51.9454C18.9291 51.7278 19.3232 51.5372 19.3719 51.2809C21.1279 42.0329 21.1101 42.1038 30.5694 43.8546C31.4842 44.0239 33.0788 42.8264 33.6708 41.8478C34.4041 40.6355 34.2532 38.9265 34.775 37.5417C37.0328 31.5497 41.5094 31.2098 47.8594 36.9261C52.0697 33.186 54.1804 22.9368 62.976 31.418C63.6744 30.1091 64.2831 29.3395 64.5186 28.4689C66.4415 21.3608 67.9277 20.6011 75.1469 22.6017C76.2297 22.9018 78.3936 22.3794 78.7857 21.5987C81.5288 16.1368 85.5347 15.8122 90.5346 18.5947C91.6265 17.0209 92.4461 15.5821 93.5114 14.357C95.8407 11.6783 98.6917 10.3718 101.731 13.0031C104.033 14.9966 105.295 14.3596 107.635 12.8013C109.959 11.254 113.443 10.3801 116.114 10.8697C117.465 11.1175 117.998 15.1092 119.184 17.2513C119.912 18.5652 121.005 20.333 122.226 20.6107C130.21 22.4264 131.854 24.6521 129.718 32.3329C128.877 35.3609 129.539 36.987 132.574 38.018C138.094 39.8929 139.46 42.2192 137.853 47.7538C136.587 52.1101 136.025 55.0912 142.218 55.3008C146.319 55.4395 147.516 58.8547 147.12 62.5896C146.929 64.3962 146.332 66.1598 145.848 68.3749ZM125.804 25.5152C124.019 25.1573 121.862 25.3037 120.536 24.3244C118.512 22.8288 116.836 20.7016 115.449 18.5595C114.578 17.2125 114.505 15.3479 114.074 13.7156C112.405 14.6068 110.823 15.7968 109.046 16.3168C106.581 17.0378 102.974 18.5192 101.611 17.4459C97.8999 14.5242 96.671 16.0752 94.8739 19.2021C93.381 21.7997 90.9585 23.671 87.8142 21.6365C84.7427 19.6492 83.4684 21.081 82.0883 23.7037C80.3624 26.9834 77.4476 28.1312 74.1005 26.3405C70.2263 24.2678 68.8832 25.5309 68.1301 29.5177C67.1501 34.706 64.1828 35.824 59.3627 33.3595C58.5006 32.9186 57.6088 32.5358 56.7857 32.1518C54.3802 34.8711 52.5477 38.5915 49.7294 39.6258C47.3194 40.5103 43.7787 38.3138 39.5599 37.157C39.2163 37.952 38.0915 39.8411 37.5757 41.884C36.0991 47.7322 33.7763 49.1983 28.3426 46.8921C24.9734 45.462 23.5331 45.9069 23.3045 49.8857C22.9735 55.6463 20.6239 56.9198 15.0703 55.2619C13.6917 54.8503 11.434 54.7482 10.6899 55.5428C9.84519 56.4448 9.73075 58.6963 10.2075 60.0384C11.3845 63.3522 12.5812 66.0295 7.02271 64.7374C6.01045 64.502 4.71742 65.4742 3.61518 65.8672C4.9441 71.6988 5.15077 71.7673 10.2057 70.4777C11.3596 70.1833 12.6905 70.5825 13.9399 70.6624C13.713 72.0284 13.716 73.4903 13.197 74.7346C12.6296 76.0952 11.5796 77.2545 10.2554 79.2212C15.0334 79.4039 20.4397 76.9731 21.3247 82.3844C21.8928 85.8584 19.4736 89.8209 18.2391 94.0998C17.9148 93.6597 18.0596 94.0837 18.3056 94.1542C20.3472 94.7378 22.4237 95.2015 24.4589 95.8052C29.5266 97.3086 30.7079 101.245 27.3267 105.293C26.7947 105.93 25.8851 106.389 25.6387 107.099C25.0835 108.7 24.4638 110.453 24.6615 112.045C24.7309 112.604 27.1183 112.863 28.4402 113.28C30.6625 113.983 34.2555 114.183 34.7679 115.54C35.4927 117.46 34.4031 120.49 33.2597 122.595C31.3077 126.188 31.5976 127.767 35.5885 128.474C39.3416 129.139 42.8571 130.566 42.9243 134.593C42.9638 136.956 40.6195 139.358 38.8972 142.586C39.6313 142.936 41.1723 143.944 42.8632 144.425C48.6539 146.07 49.2333 147.199 47.9937 152.903C47.6173 154.634 47.8996 157.485 49.0212 158.359C51.2083 160.064 54.0729 161.864 57 158.851C58.4937 157.314 60.357 156.134 62.0587 154.8C64.5935 152.812 66.9078 153.025 69.0656 155.442C69.764 156.224 70.6114 156.873 71.5173 157.699C73.9926 151.213 75.579 150.303 79.4929 152.779C84.9601 156.237 84.9601 156.237 87.0572 150.175C88.5773 145.78 90.4043 145.077 94.4995 147.308C98.8547 149.682 100.386 149.002 101.354 144.266C102.677 137.788 104.199 136.834 110.651 139.338C113.483 140.436 114.613 139.478 115.523 137.079C118.187 130.057 118.205 130.074 125.425 131.376C128.291 131.892 130.607 132.145 130.588 127.788C130.582 126.37 133.074 124.32 134.829 123.694C136.512 123.094 138.754 124.282 140.685 124.074C141.924 123.941 143.84 122.907 144.09 121.928C145.869 114.987 146.575 114.509 153.918 114.981C155.67 115.093 157.981 114.456 159.204 113.291C162.306 110.336 161.846 107.422 158.473 104.501C152.185 99.055 152.258 98.6544 155.83 91.6106C156.014 91.2488 155.78 90.6753 155.744 90.2457C146.303 86.9314 146.303 86.9314 149.915 78.5076C147.076 75.4514 144.073 73.0859 142.349 70.0046C141.458 68.4109 143.225 65.518 143.053 63.2685C142.936 61.7362 141.84 59.3461 140.668 58.9777C132.802 56.5067 132.091 55.5704 134.168 47.3326C134.997 44.0461 134.411 42.2231 130.726 41.1538C125.644 39.6787 124.554 36.6737 125.964 31.5181C126.417 29.8596 126.196 28.0167 125.804 25.5152Z" fill="#2E2E2C"/>
<path d="M197.179 15.3438C190.268 17.5665 183.61 19.4683 177.023 21.5918C170.407 23.7248 163.344 25.1826 157.435 28.5948C151.817 31.839 147.437 37.2272 142.155 41.9955C142.738 40.5327 143.119 38.9451 143.936 37.6285C150.195 27.5481 160.399 23.5791 171.073 20.5214C175.037 19.386 179.163 18.7966 183.231 18.0507C192.885 16.2808 200.458 11.4045 205.878 3.17926C206.744 1.86493 207.923 0.756713 209.502 0C207.287 6.4657 202.682 11.0338 197.179 15.3438Z" fill="#4F4D4C"/>
<path d="M201.103 49.6818C202.66 48.4924 203.906 47.5248 205.152 46.5573C205.477 46.8246 205.803 47.092 206.128 47.3593C205.323 48.5052 204.754 50.2747 203.671 50.6843C199.892 52.113 195.739 54.4732 192.079 53.9631C177.161 51.8839 166.727 58.0411 158.901 70.1413C158.51 69.9775 158.119 69.8136 157.728 69.6498C158.307 68.084 158.505 66.1895 159.526 65.0049C167.051 56.2768 175.587 49.8201 188.217 51.2692C192.302 51.738 196.594 50.4097 201.103 49.6818Z" fill="#5D5C5B"/>
<path d="M173.572 38.2714C178.336 37.1213 183.053 35.6845 187.876 34.8889C194.921 33.7268 201.479 31.8737 206.193 26.0086C206.412 25.7359 207.063 25.8103 209.167 25.4022C207.156 27.9001 206.142 29.6042 204.723 30.8459C197.921 36.8002 189.314 37.2889 180.943 38.4472C178.975 38.7195 177.009 39.0084 174.561 39.1351C173.911 38.7439 173.741 38.5076 173.572 38.2714Z" fill="#5D5C5B"/>
<path d="M173.291 37.9308C173.741 38.5076 173.911 38.7439 174.134 39.1163C164.472 41.6302 156.18 46.2505 150.28 55.0018C149.121 48.5342 161.312 39.5043 173.291 37.9308Z" fill="#4F4D4C"/>
<path d="M126.044 25.8867C126.197 28.0167 126.417 29.8596 125.964 31.5181C124.554 36.6737 125.644 39.6787 130.726 41.1538C134.411 42.2231 134.997 44.0461 134.168 47.3326C132.091 55.5704 132.802 56.5067 140.668 58.9777C141.84 59.3461 142.936 61.7362 143.053 63.2685C143.225 65.518 141.458 68.4109 142.349 70.0046C144.073 73.0859 147.076 75.4514 149.915 78.5076C146.303 86.9314 146.303 86.9314 155.744 90.2457C155.78 90.6754 156.014 91.2488 155.83 91.6106C152.258 98.6544 152.185 99.055 158.473 104.501C161.846 107.422 162.306 110.336 159.204 113.291C157.981 114.456 155.67 115.093 153.918 114.981C146.575 114.509 145.869 114.987 144.09 121.928C143.84 122.907 141.924 123.941 140.685 124.074C138.754 124.282 136.512 123.094 134.829 123.694C133.074 124.32 130.583 126.37 130.589 127.788C130.607 132.145 128.292 131.892 125.425 131.376C118.205 130.074 118.187 130.057 115.523 137.079C114.613 139.478 113.483 140.436 110.651 139.338C104.199 136.834 102.677 137.788 101.354 144.266C100.386 149.002 98.8548 149.682 94.4995 147.308C90.4044 145.077 88.5774 145.78 87.0573 150.175C84.9602 156.237 84.9602 156.237 79.493 152.779C75.5791 150.303 73.9926 151.213 71.5173 157.699C70.6114 156.873 69.7641 156.224 69.0656 155.442C66.9078 153.025 64.5936 152.812 62.0587 154.8C60.3571 156.134 58.4938 157.314 57 158.851C54.0729 161.864 51.2083 160.065 49.0213 158.359C47.8996 157.485 47.6173 154.634 47.9937 152.903C49.2333 147.199 48.654 146.07 42.8633 144.425C41.1723 143.944 39.6314 142.936 38.8973 142.586C40.6195 139.358 42.9638 136.956 42.9244 134.593C42.8571 130.566 39.3416 129.139 35.5885 128.474C31.5976 127.767 31.3078 126.188 33.2598 122.595C34.4032 120.49 35.4927 117.46 34.7679 115.54C34.2555 114.183 30.6625 113.983 28.4403 113.28C27.1183 112.863 24.7309 112.604 24.6616 112.045C24.4638 110.453 25.0835 108.7 25.6387 107.099C25.8852 106.389 26.7948 105.93 27.3268 105.293C30.7079 101.245 29.5266 97.3086 24.459 95.8052C22.4238 95.2015 20.3472 94.7379 18.3056 94.1542C18.0596 94.0837 17.9148 93.6597 18.2391 94.0998C19.4737 89.8209 21.8929 85.8584 21.3247 82.3844C20.4397 76.9731 15.0334 79.4039 10.2554 79.2212C11.5797 77.2545 12.6297 76.0952 13.1971 74.7346C13.716 73.4904 13.713 72.0284 13.94 70.6624C12.6905 70.5825 11.3597 70.1833 10.2057 70.4777C5.15082 71.7673 4.94415 71.6989 3.61523 65.8672C4.71747 65.4742 6.0105 64.502 7.02277 64.7374C12.5813 66.0295 11.3846 63.3522 10.2075 60.0385C9.7308 58.6964 9.84525 56.4448 10.6899 55.5428C11.4341 54.7482 13.6917 54.8503 15.0704 55.2619C20.624 56.9198 22.9736 55.6463 23.3045 49.8857C23.5331 45.9069 24.9734 45.462 28.3426 46.8921C33.7764 49.1983 36.0991 47.7322 37.5757 41.884C38.0915 39.8411 39.2164 37.952 39.5599 37.157C43.7787 38.3138 47.3195 40.5103 49.7295 39.6259C52.5478 38.5916 54.3803 34.8712 56.7857 32.1519C57.6088 32.5358 58.5006 32.9186 59.3628 33.3595C64.1829 35.824 67.1501 34.706 68.1301 29.5178C68.8832 25.5309 70.2264 24.2678 74.1006 26.3405C77.4477 28.1312 80.3624 26.9835 82.0884 23.7037C83.4684 21.0811 84.7428 19.6492 87.8142 21.6365C90.9586 23.671 93.3811 21.7997 94.8739 19.2021C96.6711 16.0752 97.9 14.5242 101.611 17.4459C102.974 18.5192 106.581 17.0378 109.046 16.3168C110.823 15.7968 112.405 14.6068 114.074 13.7156C114.505 15.348 114.578 17.2125 115.45 18.5595C116.836 20.7017 118.512 22.8288 120.536 24.3244C121.862 25.3037 124.019 25.1573 126.044 25.8867ZM84.4507 132.879C91.2077 136.572 97.5306 135.881 104.189 132.012C118.429 123.736 132.928 115.903 147.365 107.971C149.897 106.58 151.106 105.293 149.659 102.16C140.944 83.2936 132.343 64.3745 123.858 45.4038C121.779 40.7536 118.37 38.5192 113.596 39.4067C106.602 40.7069 99.4917 42.0041 92.8541 44.4507C81.7353 48.5492 71.4954 54.9675 65.3388 65.1342C49.5902 91.1408 59.9195 121.459 84.4507 132.879ZM48.5067 58.2489C50.1679 60.4146 51.8291 62.5801 53.308 64.5081C51.5829 65.949 50.4207 66.9196 49.2586 67.8903C49.7719 68.4312 50.3561 69.4838 50.7862 69.4243C52.6579 69.1649 54.9785 69.0939 56.1666 67.9487C57.0622 67.0853 57.1974 64.2438 56.4459 63.0619C52.7276 57.2144 48.6303 51.6053 44.5673 45.9841C44.2311 45.519 42.7275 45.2233 42.5041 45.4832C41.9355 46.1447 41.446 47.1976 41.525 48.0374C41.9102 52.1326 42.4921 56.2093 43.0044 60.2925C42.5239 60.0406 42.0435 59.7888 41.563 59.537C39.7064 61.7504 36.9587 63.7225 36.2737 66.253C35.7202 68.2972 36.958 72.1642 38.637 73.1797C41.5925 74.9677 44.5172 72.968 45.515 69.639C46.3122 66.9796 46.3603 64.1022 46.8491 61.3407C47.0699 60.093 47.5537 58.8919 48.5067 58.2489ZM51.3698 111.312C53.9282 107.797 51.9532 104.789 49.85 102.279C46.014 97.7008 41.8106 93.4239 37.644 89.1345C36.7548 88.2191 35.3685 87.7867 34.2112 87.1318C34.425 88.5573 34.1562 90.3763 34.9397 91.3375C37.729 94.759 40.8764 97.8887 43.9692 101.216C40.8994 104.462 39.3555 107.921 42.4408 111.566C44.9215 114.497 47.9735 114.091 51.3698 111.312Z" fill="#F3F2EA"/>
<path d="M84.115 132.699C59.9194 121.459 49.5902 91.1408 65.3388 65.1342C71.4953 54.9676 81.7352 48.5492 92.8541 44.4507C99.4916 42.0041 106.602 40.7069 113.596 39.4068C118.37 38.5193 121.779 40.7536 123.858 45.4038C132.343 64.3745 140.944 83.2936 149.659 102.16C151.106 105.293 149.896 106.58 147.365 107.971C132.928 115.903 118.429 123.736 104.189 132.012C97.5306 135.881 91.2076 136.572 84.115 132.699ZM127.003 83.1284C127.112 83.4154 127.279 83.6631 127.825 84.6694C127.74 87.9899 127.656 91.3105 127.203 95.1964C124.039 97.7646 121.211 101.045 117.633 102.734C112.227 105.286 105.476 102.884 101.997 98.255C99.0267 94.3037 99.3456 87.6103 102.946 82.8791C106.94 77.6296 111.882 74.2017 119.99 76.1587C116.866 72.502 113.986 73.0146 111.257 74.0054C105.492 76.099 101.389 80.0646 99.0381 85.7643C96.0231 93.073 98.3253 99.7374 105.204 103.693C113.52 108.476 123.469 105.193 129.391 95.3278C131.398 90.9989 131.873 86.7435 128.684 82.368C128.571 82.1929 128.423 82.0546 128.026 81.3368C127.578 80.873 127.13 80.4092 126.39 79.4163C125.736 79.3518 125.082 79.2872 124.429 79.2226C124.812 79.8656 125.196 80.5084 125.837 81.5995C126.191 81.9627 126.545 82.326 127.003 83.1284ZM69.3637 101.635C70.0708 102.654 70.7779 103.674 71.4851 104.693C71.8616 104.525 72.2382 104.357 72.6147 104.189C69.9295 95.0723 68.8535 86.1247 72.991 77.0802C76.9963 68.3249 84.0978 62.778 91.695 57.3689C89.7022 57.4497 88.0482 57.9729 86.5982 58.838C71.8617 67.6309 65.872 82.1224 69.3637 101.635ZM89.3911 74.8752C81.5467 82.6871 79.3748 92.5473 85.3535 98.0356C82.3763 87.6115 85.7338 79.9604 92.7462 73.2168C91.8122 73.6086 90.8782 74.0004 89.3911 74.8752ZM116.337 95.2983C120.527 92.0307 120.708 89.8778 117.356 88.4898C116.826 89.9792 116.45 91.5708 115.652 92.9113C115.447 93.2567 113.107 92.7888 113.108 92.735C113.186 90.1198 113.413 87.509 113.623 84.8977C111.635 86.685 109.773 89.092 109.782 91.4915C109.794 94.4715 112.377 95.9045 116.337 95.2983ZM138.58 93.4499C137.04 98.6549 135.5 103.86 133.992 108.959C137.741 106.581 141.837 96.7094 140.51 92.7687C140.44 92.5606 139.263 92.7254 138.58 93.4499Z" fill="#1E1E1E"/>
<path d="M48.2124 57.9593C47.5536 58.8919 47.0699 60.093 46.849 61.3407C46.3602 64.1022 46.3122 66.9796 45.515 69.639C44.5171 72.968 41.5925 74.9677 38.6369 73.1798C36.958 72.1642 35.7202 68.2972 36.2736 66.253C36.9587 63.7225 39.7063 61.7504 41.5629 59.537C42.0434 59.7888 42.5239 60.0407 43.0043 60.2925C42.492 56.2093 41.9101 52.1326 41.5249 48.0374C41.4459 47.1976 41.9354 46.1447 42.504 45.4832C42.7274 45.2233 44.231 45.519 44.5672 45.9841C48.6303 51.6053 52.7276 57.2144 56.4458 63.0619C57.1974 64.2438 57.0622 67.0853 56.1665 67.9487C54.9785 69.0939 52.6579 69.1649 50.7861 69.4243C50.356 69.4838 49.7718 68.4312 49.2585 67.8903C50.4207 66.9196 51.5828 65.949 53.3079 64.5081C51.829 62.5802 50.1678 60.4146 48.2124 57.9593Z" fill="#2E2E2C"/>
<path d="M51.1188 111.585C47.9735 114.091 44.9215 114.497 42.4408 111.566C39.3555 107.921 40.8994 104.462 43.9692 101.216C40.8764 97.8887 37.729 94.759 34.9397 91.3375C34.1562 90.3763 34.425 88.5573 34.2112 87.1318C35.3685 87.7867 36.7548 88.2191 37.644 89.1345C41.8106 93.4239 46.014 97.7008 49.85 102.279C51.9532 104.789 53.9282 107.797 51.1188 111.585Z" fill="#2E2E2C"/>
<path d="M128.9 95.8743C123.469 105.193 113.52 108.476 105.204 103.693C98.3254 99.7374 96.0231 93.0729 99.0381 85.7643C101.389 80.0646 105.492 76.099 111.258 74.0054C113.986 73.0145 116.866 72.502 119.99 76.1587C111.882 74.2017 106.94 77.6296 102.946 82.8791C99.3456 87.6103 99.0268 94.3037 101.997 98.255C105.476 102.884 112.227 105.286 117.633 102.734C121.211 101.045 124.039 97.7645 127.708 95.2369C128.442 95.4764 128.671 95.6754 128.9 95.8743Z" fill="#C6C6BE"/>
<path d="M69.2703 101.226C65.872 82.1224 71.8617 67.6309 86.5981 58.838C88.0481 57.9729 89.7021 57.4497 91.695 57.3689C84.0977 62.778 76.9962 68.3248 72.991 77.0801C68.8534 86.1246 69.9295 95.0723 72.6147 104.189C72.2381 104.357 71.8616 104.525 71.485 104.693C70.7779 103.674 70.0708 102.654 69.2703 101.226Z" fill="#AFAFAB"/>
<path d="M89.6676 74.6337C90.8782 74.0004 91.8122 73.6086 92.7462 73.2168C85.7338 79.9604 82.3763 87.6115 85.3535 98.0356C79.3748 92.5473 81.5467 82.6871 89.6676 74.6337Z" fill="#AFAFAB"/>
<path d="M115.939 95.3785C112.377 95.9045 109.794 94.4714 109.782 91.4915C109.773 89.092 111.635 86.685 113.623 84.8977C113.413 87.509 113.186 90.1198 113.108 92.735C113.107 92.7888 115.447 93.2567 115.652 92.9113C116.45 91.5707 116.826 89.9792 117.356 88.4897C120.708 89.8777 120.527 92.0306 115.939 95.3785Z" fill="#AFAFAB"/>
<path d="M138.59 93.0832C139.262 92.7254 140.44 92.5606 140.51 92.7687C141.837 96.7094 137.741 106.581 133.991 108.959C135.5 103.86 137.04 98.6549 138.59 93.0832Z" fill="#AFAFAB"/>
<path d="M128.784 82.6588C131.873 86.7435 131.398 90.9989 129.145 95.601C128.671 95.6754 128.442 95.4764 127.892 94.9542C127.656 91.3104 127.74 87.9899 128.002 83.9855C128.38 83.0873 128.582 82.8731 128.784 82.6588Z" fill="#C6C6BE"/>
<path d="M125.58 81.1514C125.196 80.5084 124.812 79.8655 124.428 79.2226C125.082 79.2872 125.736 79.3517 126.251 79.9739C125.935 80.738 125.757 80.9447 125.58 81.1514Z" fill="#C6C6BE"/>
<path d="M126.899 82.6892C126.545 82.3259 126.191 81.9627 125.708 81.3754C125.757 80.9447 125.935 80.738 126.397 80.2384C127.13 80.4092 127.578 80.873 127.779 81.797C127.321 82.4012 127.11 82.5452 126.899 82.6892Z" fill="#C6C6BE"/>
<path d="M127.841 83.5866C127.279 83.6631 127.112 83.4154 126.951 82.9088C127.11 82.5452 127.321 82.4012 127.886 82.1052C128.423 82.0546 128.571 82.1929 128.734 82.5134C128.582 82.8731 128.38 83.0874 127.841 83.5866Z" fill="#C6C6BE"/>
</svg>
