<svg width="289" height="161" viewBox="0 0 289 161" fill="none" xmlns="http://www.w3.org/2000/svg">
<path d="M3.86595 19.4509C9.67366 18.2245 14.76 18.7804 19.17 22.6271C21.8142 24.9335 23.5626 24.5916 24.1073 20.7709C24.3381 19.1526 24.801 17.4527 25.6124 16.0531C28.1379 11.6967 33.695 11.712 36.6592 16.0561C37.6816 17.5545 38.3133 19.3149 39.1847 20.9224C39.9412 22.3181 40.7843 23.667 42.3099 26.2632C43.6131 23.2183 44.2522 21.2571 45.2579 19.5067C46.2688 17.7473 47.6139 14.8949 48.8678 14.8654C50.6922 14.8224 52.7541 16.6705 54.3555 18.1114C55.5036 19.1446 56.0638 20.8308 57.2324 22.8127C58.1088 21.3909 58.8063 20.5608 59.1798 19.6042C61.5082 13.6394 63.7228 12.6153 69.3714 15.4002C71.7322 16.5642 73.8594 18.2149 76.051 19.7057C80.6017 22.8012 84.6692 21.9152 87.3539 17.1978C89.7337 13.0163 93.3605 12.2385 97.9407 15.1358C100.555 16.7897 102.993 18.7235 105.529 20.5447C113.225 8.12301 114.447 7.95462 122.895 17.7242C125.975 14.8883 128.892 10.0556 132.184 9.785C135.381 9.52218 138.963 13.9395 142.989 16.7261C143.655 15.5991 144.746 14.0861 145.498 12.4199C148.236 6.34903 152.303 5.4808 157.129 10.0355C162.145 14.7701 162.145 14.7701 166.43 9.54318C170.095 5.07205 174.153 4.61636 178.463 8.39718C179.69 9.47372 180.498 11.028 181.95 12.9675C184.578 10.5187 186.611 8.91671 188.292 7.00534C193.922 0.603054 198.214 0.823392 202.908 7.90207C203.447 8.71493 204.049 9.48544 205.29 11.1965C207.15 8.8591 208.899 7.04928 210.184 4.95492C212.058 1.90139 214.243 -0.11008 218.141 0.00466591C221.956 0.117093 223.816 2.31534 225.069 5.44949C226.529 9.09677 228.464 9.16067 230.857 6.28982C231.815 5.13962 232.7 3.90347 233.792 2.89364C237.256 -0.309909 242.181 0.06741 244.362 4.1943C246.731 8.67782 249.539 8.09542 252.899 5.94241C254.295 5.04806 255.551 3.93649 256.877 2.93118C260.299 0.334743 263.802 -1.19205 267.676 2.11398C271.999 5.80185 273.195 10.9568 270.671 15.5161C269.341 17.9192 267.848 20.2318 265.955 23.3692C268.643 23.7958 270.605 23.6562 272.068 24.4431C274.365 25.6782 277.782 27.3234 278.057 29.1884C278.393 31.4665 276.293 34.3914 274.646 36.5853C273.273 38.4137 271.032 39.5906 268.179 41.8423C271.03 42.8625 272.491 43.4807 274.006 43.9108C279.825 45.5631 281.368 49.1358 278.453 54.4185C277.972 55.2895 277.362 56.091 276.791 56.9099C273.124 62.1671 273.279 62.6715 279.161 64.5219C285.05 66.3748 286.591 71.1488 282.811 76.0915C281.705 77.5382 279.975 78.6058 279.208 80.1775C278.741 81.1321 279.124 83.4414 279.885 83.9104C287.297 88.4799 287.533 90.2242 281.119 96.2148C280.771 96.5396 280.572 97.024 279.906 98.0442C281.277 98.8819 282.545 99.7333 283.881 100.459C289.114 103.304 289.932 107.446 285.758 111.681C283.559 113.913 282.405 115.838 283.774 119.107C287.179 127.238 286.414 130.974 281.234 135.597C275.946 140.317 271.444 137.312 266.987 134.032C264.445 142.002 261.454 145.61 253.116 136.99C252.732 137.166 252.152 137.244 251.91 137.571C246.709 144.601 246.768 144.53 239.173 139.406C238.339 138.843 235.864 139.28 235.216 140.097C228.436 148.644 228.499 148.689 221.093 140.217C220.912 140.01 220.496 140.009 219.81 139.791C219.272 140.624 218.608 141.494 218.109 142.449C215.329 147.773 212.626 148.211 208.646 143.942C204.531 139.529 202.183 139.592 198.445 144.217C194.096 149.598 192.125 149.977 186.67 145.547C183.323 142.829 181.376 143.31 179.232 146.913C175.633 152.962 172.665 153.383 167.432 148.47C164.214 145.448 162.088 144.79 159.205 148.998C155.287 154.715 152.411 154.896 146.725 150.907C145.244 149.868 143.729 148.878 142.28 147.899C135.089 155.426 135.089 155.426 123.705 150.095C123.095 150.973 122.423 151.869 121.826 152.813C118.767 157.649 115.15 158.421 110.527 155.2C103.39 150.229 102.786 150.305 97.2367 156.89C93.7502 161.027 90.1581 161.004 85.9884 156.284C83.677 153.668 82.1888 153.163 79.7583 156.119C74.7189 162.248 72.2609 162.171 67.2848 156.194C66.6535 155.436 66.2588 154.481 65.7545 153.617C65.1509 153.496 64.5473 153.375 63.9437 153.254C63.3045 154.435 62.8819 155.821 61.9892 156.761C57.8016 161.168 55.5084 161.279 51.2293 156.856C49.2221 154.782 47.8196 154.991 45.7252 156.522C39.0092 161.432 38.7056 161.21 32.4193 156.563C31.1865 155.652 28.2612 155.82 26.7918 156.664C22.2663 159.266 18.1333 162.795 12.8279 158.333C7.54878 153.893 9.70241 148.869 11.3815 143.704C11.8437 142.282 11.7299 139.87 10.8248 138.943C6.38283 134.394 6.14107 133.445 9.65834 128.023C10.3514 126.955 10.9349 125.815 11.6759 124.522C8.11848 122.327 3.41255 121.048 4.87239 115.806C5.55281 113.362 7.17564 111.082 8.74385 109.009C10.785 106.312 12.1493 104.433 8.15575 101.882C4.55602 99.5813 4.99391 95.5364 6.60771 91.9538C7.34676 90.3131 8.58238 88.8838 9.66866 87.4147C11.4879 84.9543 11.3955 83.1045 8.61845 81.2159C2.23055 76.8715 2.01463 74.1751 7.15169 68.4807C11.107 64.0965 11.041 63.5425 6.16197 60.1706C0.140702 56.0093 0.049973 51.8255 5.87847 47.089C10.9022 43.0065 10.9614 42.4716 6.31984 37.9463C2.94206 34.653 -0.790816 31.405 0.146684 26.1257C0.553147 23.8367 2.36165 21.7967 3.86595 19.4509ZM243.543 10.3882C239.618 2.82974 239.21 2.7734 233.493 9.00045C229.044 13.8465 225.012 13.2445 221.777 7.25113C219.211 2.49765 216.379 2.40555 213.46 6.98758C213.013 7.68911 212.639 8.43753 212.178 9.12954C207.721 15.8284 204.103 15.9192 199.455 9.45956C196.383 5.18948 194.963 5.13455 191.453 9.17526C190.689 10.055 190.027 11.0286 189.225 11.8699C184.825 16.485 181.588 16.5633 177.052 12.2097C173.356 8.66189 171.82 8.79336 168.729 12.9221C163.903 19.3709 161.181 19.5835 155.671 13.9426C151.606 9.78219 150.763 9.9689 148.357 15.5623C145.605 21.9598 141.041 22.5666 136.711 17.1638C135.458 15.6015 134.017 14.1903 132.536 12.5706C130.264 15.4687 128.734 17.8966 126.741 19.8538C123.632 22.9082 121.066 22.3365 118.489 18.9111C117.3 17.3306 115.409 16.2781 113.836 14.9862C112.84 16.414 111.619 17.7358 110.889 19.2888C108.326 24.747 105.556 25.5274 100.807 21.9743C98.9484 20.5837 97.1812 18.8564 95.0781 18.0908C93.886 17.657 91.4098 18.3776 90.6874 19.4049C85.2924 27.0763 80.5347 27.9004 72.9004 22.0952C65.2525 16.2798 65.2279 16.285 61.6023 24.5395C61.5356 24.6916 61.5404 24.91 61.4313 25.0032C60.104 26.1371 58.8655 27.9126 57.387 28.1458C56.3747 28.3054 54.7532 26.4964 53.8847 25.2362C52.5292 23.2692 51.5811 21.0215 50.29 18.5691C49.5444 19.4842 49.0957 19.8027 48.9783 20.2154C47.9235 23.924 47.1617 28.0883 42.3463 28.4763C37.5048 28.8664 36.8696 24.45 35.2257 21.318C35.1482 21.1704 35.1049 20.9892 34.9921 20.8784C33.5699 19.4834 32.1379 18.0983 30.7084 16.7107C29.7569 18.3078 28.3895 19.7935 27.9272 21.5215C26.1047 28.333 22.4574 29.4362 16.3863 25.4449C13.9011 23.811 10.6285 23.0418 7.61275 22.6399C4.50636 22.2259 2.58177 24.4141 3.8355 27.3184C5.15761 30.3814 7.27705 33.2379 9.55058 35.7254C15.2175 41.9256 15.2195 44.4333 8.90254 49.5175C4.29927 53.2226 4.31215 54.2072 9.0078 57.5603C15.2978 62.0521 15.587 64.5795 10.4773 70.403C6.46867 74.9718 6.4652 75.2838 11.4524 78.5622C15.2297 81.0452 15.7493 84.2668 13.7811 88.0393C13.0985 89.3476 11.9728 90.4195 11.0935 91.6313C8.69411 94.9384 8.17531 97.906 12.3425 100.381C15.9275 102.51 15.3352 105.632 13.6756 108.629C12.8021 110.207 11.4517 111.524 10.2913 112.938C7.81227 115.958 7.36006 118.322 11.7599 120.178C15.8629 121.909 16.4317 124.982 13.8988 128.683C12.7363 130.382 11.7853 132.225 10.7537 133.977C16.582 137.707 17.064 139.172 14.9388 145.398C14.456 146.812 13.4833 148.26 13.5879 149.627C13.7385 151.594 14.1142 154.231 15.4241 155.226C16.7177 156.21 19.4019 155.924 21.2738 155.429C23.1264 154.94 24.6487 152.835 26.4552 152.622C29.1324 152.307 32.8896 152.025 34.4827 153.531C37.886 156.749 40.2869 156.445 43.4445 153.71C47.1454 150.506 50.8002 149.978 54.0742 154.5C55.9001 157.022 57.5944 156.004 59.3825 154.207C64.6582 148.902 65.8075 148.853 70.4017 154.219C72.6838 156.885 74.2152 157.169 76.6342 154.244C81.576 148.267 82.9428 148.367 88.8655 154.009C90.7794 155.832 92.3654 156.671 94.6413 154.109C101.702 146.16 103.917 145.979 112.547 152.004C114.541 153.397 116.28 154.128 118.105 151.733C122.807 145.562 122.82 145.626 129.656 148.802C132.831 150.277 135.75 151.496 137.727 146.665C138.259 145.363 141.82 144.654 143.894 144.828C145.648 144.976 147.311 146.727 148.928 147.889C151.846 149.986 154.068 150.048 156.428 146.736C161.111 140.162 163.644 140.006 169.565 145.583C172.435 148.286 174.219 148.493 176.365 144.64C179.426 139.144 183.319 138.374 188.277 142.233C191.582 144.806 193.442 145.051 196.199 141.281C200.847 134.925 205.473 135.035 210.857 140.684C211.598 141.461 212.61 141.98 212.282 141.744C215.631 139.473 218.434 136.075 220.807 136.353C223.574 136.679 225.964 140.216 228.404 142.264C231.048 139.666 233.374 135.526 236.353 134.985C239.224 134.463 242.77 137.659 245.292 138.871C247.847 136.869 250.259 133.499 252.802 133.397C255.441 133.291 258.207 136.348 261.059 138.109C261.475 137.399 262.026 136.744 262.276 135.99C264.843 128.244 265.013 128.124 271.723 132.824C275.045 135.151 277.56 134.246 279.989 131.513C282.665 128.504 282.804 125.49 280.919 121.907C279.018 118.29 277.973 114.442 281.339 110.811C285.699 106.109 285.649 106.064 280.068 103.049C275.654 100.664 275.088 96.8684 278.64 93.4109C279.772 92.3092 280.93 91.234 282.3 89.9332C281.18 89.0293 280.632 88.3929 279.938 88.0562C272.858 84.6214 272.281 81.7561 277.608 76.2093C278.184 75.6092 278.821 75.0551 279.324 74.3991C281.958 70.969 281.39 69.1915 277.287 67.9033C269.419 65.4331 268.466 62.2924 273.421 55.1632C277.352 49.5073 277.156 48.9203 270.69 46.9688C264.849 45.2059 263.826 40.8277 268.291 36.5556C269.127 35.7555 270.239 35.2327 271.031 34.399C272.301 33.0611 273.411 31.5703 274.588 30.1442C272.897 29.4123 271.27 28.3374 269.504 28.0096C262.949 26.7929 261.354 23.614 264.698 17.9101C265.371 16.7621 266.115 15.6523 266.88 14.5619C269.385 10.9872 268.241 7.94241 265.435 5.25448C262.649 2.58578 260.433 4.93454 258.451 6.4866C254.699 9.42373 250.958 12.1073 245.045 11.2495C244.513 11.2162 243.981 11.1828 243.543 10.3882Z" fill="#2E2E2C"/>
<path d="M245.833 11.3953C250.958 12.1072 254.699 9.42372 258.451 6.48658C260.433 4.93452 262.648 2.58577 265.435 5.25447C268.241 7.94239 269.385 10.9872 266.88 14.5618C266.115 15.6523 265.371 16.7621 264.698 17.9101C261.354 23.614 262.949 26.7929 269.504 28.0096C271.27 28.3374 272.897 29.4122 274.588 30.1442C273.411 31.5703 272.301 33.061 271.031 34.3989C270.239 35.2327 269.127 35.7554 268.291 36.5556C263.826 40.8276 264.849 45.2059 270.69 46.9688C277.156 48.9202 277.352 49.5073 273.421 55.1632C268.466 62.2924 269.419 65.4331 277.287 67.9033C281.39 69.1915 281.958 70.9689 279.324 74.3991C278.821 75.0551 278.184 75.6092 277.608 76.2092C272.281 81.7561 272.857 84.6213 279.938 88.0562C280.632 88.3929 281.18 89.0292 282.3 89.9332C280.93 91.234 279.772 92.3092 278.64 93.4108C275.088 96.8684 275.654 100.664 280.068 103.049C285.649 106.064 285.698 106.109 281.339 110.811C277.973 114.442 279.018 118.29 280.919 121.907C282.804 125.49 282.665 128.504 279.989 131.513C277.56 134.245 275.045 135.151 271.723 132.824C265.013 128.124 264.843 128.244 262.276 135.99C262.026 136.744 261.475 137.399 261.059 138.109C258.207 136.348 255.441 133.291 252.802 133.397C250.259 133.499 247.847 136.869 245.292 138.871C242.77 137.659 239.224 134.463 236.353 134.985C233.374 135.526 231.048 139.666 228.404 142.264C225.964 140.216 223.574 136.679 220.807 136.353C218.434 136.075 215.631 139.473 212.282 141.744C212.61 141.98 211.598 141.461 210.857 140.684C205.473 135.035 200.847 134.925 196.199 141.281C193.442 145.051 191.582 144.806 188.277 142.233C183.319 138.374 179.426 139.144 176.365 144.64C174.219 148.493 172.435 148.286 169.565 145.583C163.644 140.006 161.111 140.162 156.428 146.736C154.068 150.048 151.846 149.986 148.928 147.889C147.311 146.727 145.648 144.976 143.894 144.828C141.82 144.654 138.259 145.363 137.727 146.665C135.75 151.496 132.831 150.277 129.656 148.802C122.82 145.626 122.807 145.562 118.104 151.733C116.28 154.128 114.541 153.397 112.547 152.004C103.917 145.979 101.702 146.16 94.6413 154.109C92.3654 156.671 90.7794 155.832 88.8655 154.009C82.9428 148.367 81.576 148.267 76.6342 154.244C74.2152 157.169 72.6838 156.885 70.4016 154.219C65.8075 148.853 64.6582 148.902 59.3825 154.207C57.5944 156.004 55.9001 157.022 54.0742 154.5C50.8002 149.978 47.1454 150.506 43.4445 153.71C40.2869 156.445 37.886 156.749 34.4827 153.531C32.8896 152.025 29.1324 152.307 26.4551 152.622C24.6487 152.834 23.1264 154.94 21.2738 155.429C19.4019 155.924 16.7177 156.21 15.4241 155.226C14.1142 154.231 13.7384 151.594 13.5879 149.627C13.4833 148.26 14.456 146.812 14.9388 145.398C17.064 139.172 16.5819 137.707 10.7537 133.977C11.7853 132.225 12.7362 130.382 13.8988 128.683C16.4317 124.982 15.8629 121.909 11.7599 120.178C7.36006 118.322 7.81227 115.958 10.2913 112.938C11.4517 111.524 12.8021 110.207 13.6756 108.629C15.3352 105.632 15.9275 102.51 12.3425 100.381C8.1753 97.906 8.6941 94.9384 11.0935 91.6313C11.9728 90.4195 13.0985 89.3476 13.781 88.0393C15.7493 84.2668 15.2297 81.0452 11.4524 78.5622C6.46519 75.2838 6.46867 74.9717 10.4773 70.403C15.587 64.5795 15.2978 62.0521 9.00779 57.5603C4.31214 54.2072 4.29926 53.2225 8.90254 49.5175C15.2195 44.4332 15.2174 41.9255 9.55058 35.7254C7.27705 33.2379 5.1576 30.3814 3.83549 27.3184C2.58177 24.4141 4.50636 22.2259 7.61274 22.6398C10.6285 23.0418 13.9011 23.811 16.3863 25.4449C22.4574 29.4362 26.1047 28.333 27.9272 21.5215C28.3895 19.7935 29.7569 18.3078 30.7084 16.7106C32.1379 18.0983 33.5699 19.4833 34.9921 20.8784C35.1049 20.9892 35.1482 21.1704 35.2257 21.3179C36.8696 24.45 37.5048 28.8663 42.3463 28.4763C47.1617 28.0883 47.9235 23.924 48.9783 20.2154C49.0957 19.8027 49.5444 19.4842 50.29 18.569C51.5811 21.0214 52.5292 23.2692 53.8847 25.2362C54.7532 26.4963 56.3747 28.3054 57.387 28.1458C58.8655 27.9126 60.104 26.137 61.4313 25.0032C61.5404 24.91 61.5356 24.6916 61.6023 24.5395C65.2279 16.285 65.2525 16.2797 72.9004 22.0952C80.5347 27.9003 85.2924 27.0763 90.6874 19.4049C91.4098 18.3776 93.886 17.657 95.0781 18.0908C97.1812 18.8563 98.9484 20.5837 100.807 21.9743C105.556 25.5274 108.326 24.747 110.889 19.2888C111.619 17.7358 112.84 16.414 113.836 14.9862C115.409 16.2781 117.3 17.3306 118.489 18.9111C121.066 22.3365 123.632 22.9082 126.741 19.8538C128.734 17.8966 130.264 15.4686 132.536 12.5706C134.017 14.1903 135.458 15.6015 136.711 17.1638C141.041 22.5666 145.605 21.9598 148.357 15.5623C150.763 9.96888 151.606 9.78218 155.671 13.9426C161.181 19.5835 163.903 19.3709 168.729 12.9221C171.82 8.79335 173.356 8.66188 177.052 12.2097C181.588 16.5633 184.825 16.485 189.225 11.8699C190.027 11.0286 190.689 10.0549 191.453 9.17524C194.963 5.13453 196.383 5.18946 199.455 9.45954C204.103 15.9191 207.721 15.8284 212.178 9.12953C212.639 8.43751 213.013 7.6891 213.46 6.98756C216.379 2.40553 219.211 2.49763 221.777 7.25111C225.012 13.2445 229.044 13.8464 233.493 9.00044C239.21 2.77339 239.618 2.82972 243.178 10.8885C240.221 13.5808 237.627 15.7727 235.034 17.9646C235.493 18.5004 235.951 19.0363 236.41 19.5722C239.551 16.8466 242.692 14.121 245.833 11.3953ZM141.749 39.3127C136.126 44.3026 130.936 49.9986 122.495 50.1317C121.851 50.1418 120.694 52.4198 120.718 53.6248C120.795 57.4304 121.687 61.2373 121.582 65.0247C121.436 70.278 124.81 71.7065 128.561 70.8613C132.739 69.9196 136.715 67.6839 140.511 65.5371C145.629 62.642 150.491 59.2937 156.146 56.749C156.567 57.895 157.263 59.0174 157.364 60.1908C157.905 66.5089 158.298 72.8396 158.425 79.8135C147.987 86.5473 137.4 93.0645 127.153 100.078C117.579 106.631 108.01 109.984 96.3482 105.329C85.6982 101.078 74.7781 102.522 65.1401 108.475C56.6964 113.69 48.8635 119.948 41.0587 126.121C37.0401 129.3 33.5249 133.17 30.096 137.007C29.0556 138.172 28.5231 140.381 28.8266 141.898C28.9724 142.627 31.5949 143.195 33.1145 143.243C36.1003 143.337 39.1072 143.11 42.0912 142.852C66.8008 140.717 91.5075 138.549 116.214 136.382C153.36 133.125 190.515 129.979 227.643 126.526C238.727 125.495 249.758 123.779 260.762 122.042C269.353 120.686 272.023 116.509 270.583 108.15C270.105 105.375 270.185 102.507 269.825 99.7058C269.083 93.9376 268.49 88.1298 267.328 82.442C266.058 76.2255 262.018 73.964 255.839 75.5768C253.769 76.117 251.698 76.8847 249.829 77.9147C242.261 82.0863 234.796 86.4447 227.245 90.647C222.016 93.5565 216.743 93.5182 211.595 90.3802C207.627 87.9617 203.704 85.4693 199.483 82.3145C196.675 74.6785 193.712 67.0949 191.12 59.3866C189.622 54.9334 190.201 50.8385 193.544 46.897C197.17 42.6231 200.076 37.7141 203.041 32.9243C203.736 31.8028 203.405 30.0466 203.546 28.5823C202.116 29.3161 200.526 29.854 199.313 30.8514C198.487 31.5311 198.291 32.9238 197.636 33.8753C195.391 37.1344 193.067 40.3395 191.319 42.7976C189.365 40.1325 188.244 36.9138 186.435 36.4642C181.667 35.2793 182.954 40.0516 182.12 43.2714C178.585 38.9591 175.708 35.1361 172.451 31.6705C171.484 30.6419 169.447 30.6184 167.901 30.1343C168.243 31.5842 168.17 33.3529 168.998 34.4289C172.64 39.1616 176.913 43.4496 180.182 48.4093C181.668 50.6637 182.807 55.1717 181.598 56.8155C177.185 62.8171 175.765 69.2803 176.417 76.3635C173.378 76.8981 170.815 77.3488 167.426 77.777C165.267 78.2753 163.108 78.7735 160.741 78.4455C160.053 68.1472 159.271 57.854 158.704 47.549C158.204 38.4744 154.052 35.4511 145.077 37.9663C144.148 38.2267 143.303 38.7884 141.749 39.3127ZM61.1519 81.348C54.9205 83.0422 48.6968 84.7655 42.4555 86.4224C36.3534 88.0423 30.2334 89.5946 24.1212 91.1766C24.3319 91.9113 24.5427 92.6461 24.7534 93.3808C39.6355 89.4489 54.5176 85.5171 69.3998 81.5852C69.2635 81.0153 69.1272 80.4454 68.991 79.8756C66.6446 80.2838 64.2983 80.6921 61.1519 81.348ZM218.339 47.1729C216.668 47.1729 214.997 47.1729 213.185 47.1729C213.185 50.259 213.185 53.2322 213.185 56.2011C216.047 55.6118 218.977 55.0086 222.161 54.353C222.069 53.8932 221.534 52.9005 221.79 52.1931C222.697 49.6799 222.071 48.3524 218.339 47.1729ZM73.1935 55.8361C77.0326 55.8361 80.8717 55.8361 84.7108 55.8361C84.7287 55.1934 84.7467 54.5508 84.7646 53.9082C75.6344 53.2627 66.5043 52.6173 57.3742 51.9718C57.2887 52.665 57.2032 53.3582 57.1177 54.0515C62.1675 54.6128 67.2173 55.1742 73.1935 55.8361ZM99.6799 68.0777C93.9416 69.7181 88.2032 71.3586 82.4648 72.999C82.6803 73.6834 82.8958 74.3677 83.1112 75.0521C91.7021 72.7003 100.293 70.3484 108.884 67.9966C108.701 67.2975 108.517 66.5984 108.334 65.8992C105.7 66.5285 103.067 67.1577 99.6799 68.0777ZM101.207 32.6439C100.643 34.3719 100.078 36.0999 99.6525 37.4049C101.679 38.8999 103.915 40.5492 106.073 42.1412C107.891 38.1366 112.638 33.7123 105.771 31.7931C103.845 32.3405 102.867 32.6183 101.207 32.6439ZM118.585 88.7763C113.218 92.8173 107.851 96.8582 102.483 100.899C102.879 101.411 103.275 101.923 103.67 102.435C110.37 97.6013 117.07 92.7677 123.77 87.9342C123.653 87.621 123.536 87.3079 123.419 86.9947C122.019 87.4681 120.62 87.9415 118.585 88.7763ZM48.9281 36.5152C56.2004 36.8255 63.4197 39.2458 70.7824 37.1965C63.8223 35.7116 56.8172 34.9062 49.7971 34.2662C49.3401 34.2246 48.7674 35.4533 48.9281 36.5152ZM257.002 30.1298C258.59 29.0458 260.179 27.9618 261.768 26.8778C261.461 26.4078 261.154 25.9379 260.848 25.4679C254.562 28.7106 248.276 31.9533 241.99 35.1959C242.303 35.8349 242.616 36.4737 242.93 37.1126C247.395 34.9012 251.86 32.6899 257.002 30.1298ZM243.937 51.9937C240.166 51.7232 236.394 51.4528 232.623 51.1824C232.583 51.8551 232.543 52.5278 232.502 53.2005C238.048 53.6829 243.593 54.1654 249.139 54.6478C249.204 53.915 249.27 53.1821 249.335 52.4492C247.828 52.315 246.321 52.1807 243.937 51.9937ZM89.9447 93.2199C92.4226 91.5588 94.9004 89.8978 97.3783 88.2368C97.0485 87.7243 96.7186 87.2119 96.3888 86.6993C91.8173 89.3951 87.2459 92.0909 82.6744 94.7868C82.9573 95.3242 83.2403 95.8616 83.5233 96.3991C85.4557 95.4643 87.3882 94.5295 89.9447 93.2199ZM30.0218 49.8165C29.1 50.0283 28.1783 50.2402 27.2565 50.452C27.309 50.8392 27.3616 51.2264 27.4141 51.6136C32.2917 51.6136 37.1693 51.6136 42.0469 51.6136C42.0581 51.0178 42.0693 50.422 42.0805 49.8262C38.3841 49.8262 34.6878 49.8262 30.0218 49.8165Z" fill="#F5F4EC"/>
<path d="M199.762 83.0098C203.704 85.4693 207.627 87.9617 211.595 90.3802C216.743 93.5182 222.016 93.5565 227.245 90.647C234.796 86.4447 242.261 82.0862 249.829 77.9147C251.698 76.8846 253.769 76.1169 255.839 75.5768C262.018 73.964 266.058 76.2255 267.328 82.442C268.49 88.1298 269.083 93.9376 269.825 99.7057C270.185 102.507 270.105 105.375 270.583 108.15C272.023 116.509 269.353 120.686 260.762 122.042C249.759 123.779 238.727 125.495 227.643 126.526C190.515 129.979 153.36 133.125 116.214 136.382C91.5076 138.549 66.8008 140.717 42.0913 142.852C39.1072 143.11 36.1003 143.336 33.1145 143.243C31.595 143.195 28.9724 142.627 28.8267 141.898C28.5231 140.381 29.0557 138.172 30.096 137.007C33.5249 133.17 37.0401 129.3 41.0587 126.121C48.8635 119.948 56.6964 113.69 65.1401 108.475C74.7781 102.522 85.6982 101.078 96.3482 105.329C108.01 109.984 117.579 106.631 127.153 100.078C137.4 93.0645 147.987 86.5473 158.86 79.4982C159.847 79.2125 160.398 79.2421 160.95 79.2717C163.108 78.7735 165.267 78.2753 168.015 78.0961C169.646 78.7596 170.784 79.5645 171.71 79.368C175.551 78.5526 178.097 79.7167 179.068 83.6392C180.304 83.0662 181.31 82.5999 182.343 82.4802C181.702 84.2593 181.033 85.6918 179.999 87.1152C178.69 86.9285 177.747 86.7509 176.765 86.1623C176.414 84.1687 176.102 82.5862 175.597 80.0193C170.178 81.3229 164.572 81.5988 160.075 83.9749C150.469 89.0504 141.045 94.6733 132.27 101.065C120.732 109.47 109.193 114.387 94.7438 108.795C84.4687 104.818 74.0483 106.697 65.1447 112.749C55.6937 119.174 47.0309 126.763 38.0874 133.924C36.4163 135.262 35.0447 136.974 32.997 139.062C37.3874 139.062 40.556 139.287 43.6838 139.025C66.3921 137.124 89.0946 135.15 111.794 133.147C133.158 131.262 154.515 129.293 175.879 127.398C192.281 125.943 208.71 124.76 225.085 123.048C236.821 121.821 248.53 120.17 260.15 118.13C262.79 117.667 266.869 114.988 267.051 113.027C267.478 108.447 265.942 103.683 265.251 98.6078C265.199 96.925 265.097 95.6285 265.133 93.9256C264.874 90.739 264.64 87.9233 264.047 85.1859C262.66 78.7893 259.969 77.1291 254.206 80.13C244.43 85.2207 234.97 90.9193 224.979 96.3774C221.617 96.4589 218.653 96.5254 215.414 96.3917C210.539 93.613 206.049 90.8057 201.309 88.5143C195.442 85.6775 189.367 83.2686 183.478 80.3799C184.533 79.3762 185.493 78.6672 186.829 77.9435C187.932 78.1125 188.658 78.2964 189.479 78.8043C192.97 80.4222 196.366 81.7159 199.762 83.0098Z" fill="#212921"/>
<path d="M182.316 82.1336C181.31 82.5999 180.304 83.0662 179.068 83.6392C178.097 79.7167 175.551 78.5526 171.71 79.368C170.784 79.5645 169.646 78.7596 168.429 78.1074C170.815 77.3488 173.378 76.8981 176.417 76.3635C175.765 69.2803 177.185 62.8171 181.598 56.8155C182.807 55.1717 181.668 50.6637 180.182 48.4093C176.913 43.4496 172.64 39.1616 168.998 34.4289C168.171 33.3529 168.243 31.5842 167.901 30.1343C169.447 30.6184 171.484 30.6418 172.451 31.6705C175.708 35.1361 178.585 38.9591 182.12 43.2714C182.954 40.0516 181.667 35.2793 186.435 36.4642C188.244 36.9138 189.365 40.1325 191.319 42.7976C193.067 40.3395 195.391 37.1344 197.636 33.8752C198.291 32.9238 198.487 31.5311 199.313 30.8514C200.526 29.854 202.116 29.3161 203.546 28.5823C203.405 30.0466 203.736 31.8028 203.041 32.9243C200.076 37.7141 197.17 42.6231 193.544 46.897C190.201 50.8385 189.622 54.9334 191.12 59.3866C193.712 67.0948 196.675 74.6785 199.622 82.6621C196.366 81.7159 192.97 80.4222 189.881 78.7767C190.583 78.2037 191.35 77.8694 191.322 77.777C189.724 72.5237 188.06 67.2906 186.233 61.5237C180.749 66.2169 182.166 71.5289 182.625 76.619C183.995 77.0981 185.224 77.5283 186.452 77.9583C185.493 78.6672 184.533 79.3762 183.278 80.6072C182.76 81.4642 182.538 81.7989 182.316 82.1336ZM183.213 43.5908C183.014 43.5052 182.816 43.4197 182.617 43.3342C182.668 43.5438 182.719 43.7534 183.213 43.5908Z" fill="#272525"/>
<path d="M155.463 56.1398C150.491 59.2936 145.629 62.642 140.511 65.5371C136.715 67.6839 132.739 69.9196 128.561 70.8613C124.81 71.7065 121.436 70.278 121.582 65.0247C121.687 61.2373 120.795 57.4304 120.718 53.6248C120.694 52.4197 121.851 50.1418 122.495 50.1317C130.936 49.9986 136.126 44.3026 142.227 39.5237C143.041 39.9464 143.376 40.158 143.518 40.6462C138.3 44.4837 134.94 50.8564 127.941 51.0375C122.381 51.1814 122.668 54.0565 123.714 57.9054C134.588 58.7878 138.722 46.5965 148.407 45.2846C140.149 50.4825 134.726 60.0883 123.75 60.5411C124.168 68.8975 127.22 70.7954 134.277 67.3029C136.186 66.3584 137.844 64.8807 139.55 63.5613C142.708 61.1196 145.657 58.3641 149.009 56.2357C150.813 55.0894 153.272 54.9716 155.458 54.6078C155.476 55.2638 155.47 55.7018 155.463 56.1398Z" fill="#4F4D4C"/>
<path d="M143.712 40.3696C143.376 40.1579 143.041 39.9463 142.562 39.4725C143.303 38.7884 144.148 38.2267 145.077 37.9663C154.052 35.4511 158.204 38.4744 158.704 47.549C159.271 57.854 160.053 68.1471 160.845 78.8586C160.398 79.2421 159.847 79.2125 159.018 79.1744C158.298 72.8396 157.905 66.5088 157.364 60.1908C157.263 59.0174 156.567 57.8949 155.805 56.4444C155.47 55.7018 155.476 55.2638 155.835 54.4552C155.946 52.6439 155.705 51.2031 155.469 49.4778C155.433 48.8164 155.392 48.4394 155.512 47.7068C157.182 40.7013 155.994 39.0719 149.487 39.2976C147.552 39.3647 145.636 39.9966 143.712 40.3696Z" fill="#2E2E2C"/>
<path d="M61.5519 81.2242C64.2983 80.6921 66.6446 80.2838 68.991 79.8755C69.1273 80.4454 69.2635 81.0153 69.3998 81.5852C54.5177 85.5171 39.6356 89.4489 24.7534 93.3808C24.5427 92.6461 24.3319 91.9113 24.1212 91.1766C30.2334 89.5946 36.3535 88.0423 42.4556 86.4224C48.6968 84.7655 54.9205 83.0422 61.5519 81.2242Z" fill="#4F4D4C"/>
<path d="M218.739 47.2495C222.071 48.3524 222.697 49.6799 221.79 52.1931C221.534 52.9005 222.069 53.8932 222.161 54.353C218.977 55.0086 216.047 55.6118 213.185 56.201C213.185 53.2322 213.185 50.259 213.185 47.1729C214.997 47.1729 216.668 47.1729 218.739 47.2495Z" fill="#4F4D4C"/>
<path d="M72.7303 55.7858C67.2174 55.1742 62.1676 54.6128 57.1178 54.0515C57.2033 53.3582 57.2888 52.665 57.3742 51.9717C66.5044 52.6172 75.6345 53.2627 84.7646 53.9081C84.7467 54.5508 84.7288 55.1934 84.7108 55.8361C80.8718 55.8361 77.0327 55.8361 72.7303 55.7858Z" fill="#5D5C5B"/>
<path d="M100.057 67.9323C103.067 67.1577 105.7 66.5284 108.334 65.8992C108.517 66.5984 108.701 67.2975 108.884 67.9966C100.293 70.3484 91.7021 72.7003 83.1112 75.0521C82.8958 74.3677 82.6803 73.6833 82.4648 72.999C88.2032 71.3586 93.9416 69.7181 100.057 67.9323Z" fill="#5D5C5B"/>
<path d="M101.548 32.7701C102.867 32.6183 103.845 32.3405 105.771 31.7931C112.638 33.7123 107.891 38.1366 106.073 42.1412C103.915 40.5492 101.679 38.8999 99.6525 37.4049C100.078 36.0999 100.643 34.3719 101.548 32.7701Z" fill="#2E2E2C"/>
<path d="M118.903 88.5956C120.62 87.9415 122.019 87.4681 123.419 86.9947C123.536 87.3079 123.653 87.621 123.77 87.9341C117.07 92.7677 110.37 97.6013 103.67 102.435C103.275 101.923 102.879 101.411 102.483 100.899C107.851 96.8582 113.218 92.8173 118.903 88.5956Z" fill="#4F4D4C"/>
<path d="M48.5884 36.3031C48.7674 35.4532 49.3402 34.2245 49.7971 34.2662C56.8173 34.9062 63.8224 35.7115 70.7825 37.1965C63.4197 39.2458 56.2004 36.8254 48.5884 36.3031Z" fill="#5D5C5B"/>
<path d="M256.664 30.3041C251.86 32.6899 247.395 34.9012 242.93 37.1125C242.616 36.4737 242.303 35.8348 241.99 35.1959C248.276 31.9532 254.562 28.7106 260.848 25.4679C261.154 25.9379 261.461 26.4078 261.768 26.8778C260.179 27.9618 258.59 29.0458 256.664 30.3041Z" fill="#5D5C5B"/>
<path d="M244.376 52.0201C246.321 52.1807 247.828 52.3149 249.335 52.4492C249.27 53.1821 249.204 53.915 249.139 54.6478C243.593 54.1654 238.048 53.6829 232.502 53.2005C232.543 52.5278 232.583 51.8551 232.623 51.1824C236.394 51.4528 240.166 51.7232 244.376 52.0201Z" fill="#4F4D4C"/>
<path d="M89.6327 93.4073C87.3882 94.5295 85.4557 95.4643 83.5233 96.399C83.2403 95.8616 82.9574 95.3242 82.6744 94.7867C87.2459 92.0909 91.8174 89.3951 96.3888 86.6993C96.7187 87.2119 97.0485 87.7243 97.3783 88.2368C94.9005 89.8978 92.4226 91.5588 89.6327 93.4073Z" fill="#5D5C5B"/>
<path d="M30.5067 49.8214C34.6878 49.8262 38.3842 49.8262 42.0806 49.8262C42.0694 50.422 42.0582 51.0178 42.047 51.6136C37.1694 51.6136 32.2918 51.6136 27.4142 51.6136C27.3616 51.2264 27.3091 50.8392 27.2566 50.452C28.1783 50.2402 29.1001 50.0283 30.5067 49.8214Z" fill="#4F4D4C"/>
<path d="M265.2 98.994C265.942 103.683 267.478 108.447 267.051 113.027C266.869 114.988 262.79 117.667 260.15 118.13C248.53 120.17 236.821 121.821 225.085 123.048C208.71 124.76 192.281 125.943 175.879 127.398C154.515 129.293 133.158 131.262 111.794 133.147C89.0945 135.15 66.3921 137.124 43.6838 139.025C40.556 139.287 37.3874 139.062 32.9969 139.062C35.0447 136.974 36.4163 135.262 38.0874 133.924C47.0309 126.763 55.6937 119.174 65.1447 112.749C74.0483 106.697 84.4687 104.818 94.7438 108.795C109.193 114.387 120.732 109.47 132.27 101.065C141.045 94.6733 150.469 89.0504 160.075 83.9749C164.572 81.5988 170.178 81.3229 175.597 80.0193C176.102 82.5862 176.414 84.1687 176.287 86.2813C160.228 87.6501 126.692 105.071 124.216 113.451C132.69 108.082 141.113 102.285 149.978 97.2682C157.607 92.951 165.637 87.8381 174.711 89.3549C184.197 90.9408 193.353 94.509 202.653 97.2108C198.318 97.6493 194.211 96.6052 190.139 96.7265C182.728 96.9474 175.318 97.6982 167.958 98.6328C166.625 98.8022 165.538 100.908 164.337 102.12C165.56 103.239 166.61 104.851 168.049 105.358C170.022 106.055 172.29 105.913 174.444 106.449C174.439 107.19 174.421 107.612 174.019 108.063C170.088 109.134 164.929 109.049 164.919 113.821C164.91 118.114 169.911 118.162 172.828 117.834C184.484 116.522 196.226 115.268 207.641 112.686C222.995 109.213 238.073 106.729 253.472 112.13C256.069 113.041 259.088 112.75 261.912 113.015C261.918 112.644 261.924 112.273 261.93 111.903C256.884 110.432 251.839 108.961 246.842 107.504C253.362 104.482 259.281 101.738 265.2 98.994ZM148.724 125.101C142.954 124.523 137.16 124.113 131.417 123.332C120.991 121.913 110.573 120.749 100.27 123.812C98.6102 124.306 97.3216 126.046 95.8616 127.209C97.4147 128.246 98.9825 130.193 100.518 130.167C108.268 130.041 116.01 129.401 123.754 128.942C115.785 123.52 107.203 131.019 98.238 127.006C108.396 123.041 117.868 124.024 127.465 125.077C136.688 126.088 145.98 126.563 155.256 126.909C157.388 126.988 159.814 125.953 161.689 124.772C165.416 122.423 165.251 118.69 161.136 117.219C158.16 116.156 154.473 115.752 151.422 116.449C137.182 119.701 123.051 117.785 108.821 116.628C92.8772 115.331 76.7678 113.983 62.4117 123.65C58.0134 126.612 53.6 129.552 49.1936 132.501C49.5604 133.045 49.9272 133.588 50.294 134.131C51.5843 133.347 52.9936 132.708 54.1471 131.759C68.8411 119.66 85.8245 116.609 104.313 118.324C120.432 119.819 136.579 123.516 152.808 118.481C155.945 117.508 159.734 117.496 163.104 122.434C158.042 123.436 153.842 124.267 148.724 125.101Z" fill="#73B879"/>
<path d="M265.251 98.6078C259.281 101.738 253.362 104.482 246.842 107.504C251.839 108.961 256.884 110.432 261.93 111.903C261.924 112.273 261.918 112.644 261.912 113.015C259.088 112.75 256.069 113.041 253.472 112.13C238.073 106.729 222.995 109.213 207.641 112.686C196.226 115.268 184.484 116.522 172.828 117.834C169.911 118.162 164.91 118.114 164.919 113.821C164.929 109.049 170.088 109.134 174.46 108.093C183.701 107.587 192.116 107.08 200.531 106.572C200.494 105.973 200.456 105.374 200.419 104.775C191.757 105.227 183.094 105.679 174.432 106.131C172.29 105.913 170.022 106.055 168.049 105.358C166.61 104.851 165.56 103.239 164.336 102.12C165.538 100.908 166.625 98.8022 167.958 98.6328C175.318 97.6982 182.728 96.9474 190.139 96.7265C194.211 96.6052 198.318 97.6493 202.653 97.2108C193.353 94.509 184.197 90.9408 174.711 89.3549C165.637 87.8381 157.607 92.951 149.978 97.2682C141.113 102.285 132.689 108.082 124.216 113.451C126.692 105.071 160.227 87.6501 176.327 86.6924C177.747 86.7509 178.69 86.9285 180.186 87.4246C190.437 90.815 200.106 93.9865 209.861 96.8674C211.623 97.3876 213.737 96.7142 215.688 96.5919C218.653 96.5254 221.617 96.4589 225.245 96.6899C231.185 96.0002 236.643 95.5635 241.697 93.8997C249.648 91.282 257.306 89.4056 264.995 94.332C265.097 95.6285 265.199 96.925 265.251 98.6078ZM203.081 100.997C190.929 98.4853 178.808 96.8276 166.912 102.701C172.384 103.671 177.865 103.733 183.344 103.654C189.157 103.571 194.97 103.218 200.778 103.309C201.915 103.327 203.029 104.833 204.154 105.653C203.094 106.502 202.145 107.82 200.951 108.102C198.389 108.707 195.706 108.867 193.062 109.049C186.606 109.495 180.124 109.661 173.696 110.343C171.438 110.583 169.305 112 167.115 112.88C167.338 113.653 167.56 114.427 167.783 115.2C188.723 116.705 208.281 107.828 228.77 105.81C220.495 104.236 212.221 102.661 203.081 100.997ZM260.987 98.2182C263.803 94.4531 260.243 94.0473 258.329 94.197C252.776 94.6313 247.016 94.9219 241.807 96.6698C234.091 99.259 226.408 100.603 218.347 99.9948C216.059 99.8221 213.782 99.4952 211.5 99.239C217.643 101.52 223.898 103.232 230.247 103.722C240.626 104.523 251.241 105.552 260.987 98.2182ZM205.717 98.303C205.588 98.3973 205.459 98.4915 205.331 98.5858C205.415 98.6842 205.498 98.8659 205.584 98.868C206.443 98.8894 207.302 98.881 208.16 98.881C208.162 98.7209 208.163 98.5609 208.164 98.4009C207.538 98.3551 206.913 98.3094 205.717 98.303Z" fill="#BCEAC9"/>
<path d="M265.133 93.9256C257.306 89.4056 249.648 91.282 241.697 93.8997C236.643 95.5635 231.185 96.0002 225.643 96.6749C234.97 90.9193 244.43 85.2207 254.206 80.13C259.969 77.1291 262.66 78.7893 264.047 85.1859C264.64 87.9233 264.874 90.739 265.133 93.9256Z" fill="#73B879"/>
<path d="M215.414 96.3916C213.737 96.7142 211.623 97.3876 209.861 96.8674C200.106 93.9865 190.437 90.815 180.551 87.4337C181.033 85.6918 181.702 84.2593 182.343 82.4802C182.538 81.799 182.76 81.4642 183.182 80.9022C189.367 83.2686 195.442 85.6775 201.309 88.5143C206.049 90.8057 210.539 93.613 215.414 96.3916Z" fill="#73B879"/>
<path d="M186.829 77.9435C185.224 77.5283 183.995 77.0981 182.625 76.619C182.166 71.5289 180.749 66.2169 186.233 61.5237C188.06 67.2906 189.724 72.5237 191.322 77.777C191.35 77.8694 190.583 78.2037 189.786 78.4526C188.658 78.2964 187.932 78.1125 186.829 77.9435Z" fill="#E9E8E0"/>
<path d="M182.991 43.7769C182.719 43.7534 182.668 43.5438 182.617 43.3342C182.816 43.4197 183.014 43.5052 182.991 43.7769Z" fill="#F5F4EC"/>
<path d="M143.518 40.6462C145.637 39.9966 147.552 39.3647 149.487 39.2976C155.994 39.072 157.182 40.7014 155.121 47.7847C151.563 49.42 148.312 50.2279 145.601 51.9078C140.413 55.1235 135.523 58.8231 130.547 62.3753C130.29 62.559 130.389 63.2423 130.323 63.6931C130.603 64.0766 130.883 64.4601 131.163 64.8437C135.231 61.993 139.189 58.9663 143.398 56.3431C147.28 53.9243 151.431 51.9387 155.463 49.7623C155.705 51.2031 155.946 52.6439 155.811 54.2372C153.272 54.9716 150.813 55.0894 149.009 56.2357C145.657 58.3641 142.708 61.1196 139.55 63.5613C137.844 64.8807 136.186 66.3584 134.277 67.3029C127.22 70.7954 124.168 68.8975 123.75 60.5411C134.726 60.0883 140.149 50.4825 148.407 45.2846C138.722 46.5965 134.588 58.7878 123.714 57.9054C122.668 54.0565 122.381 51.1814 127.941 51.0375C134.94 50.8564 138.3 44.4837 143.518 40.6462Z" fill="#EEEBE6"/>
<path d="M155.469 49.4778C151.431 51.9387 147.28 53.9243 143.398 56.3431C139.189 58.9663 135.231 61.993 131.163 64.8437C130.883 64.4601 130.603 64.0766 130.323 63.6931C130.389 63.2423 130.29 62.559 130.547 62.3753C135.523 58.8231 140.413 55.1235 145.601 51.9078C148.312 50.2279 151.563 49.42 154.96 48.1404C155.392 48.4395 155.433 48.8164 155.469 49.4778Z" fill="#4F4D4C"/>
<path d="M149.183 125.1C153.842 124.267 158.042 123.436 163.104 122.434C159.734 117.496 155.945 117.508 152.808 118.481C136.579 123.516 120.433 119.819 104.313 118.324C85.8246 116.609 68.8411 119.66 54.1472 131.759C52.9937 132.708 51.5844 133.347 50.294 134.131C49.9272 133.588 49.5604 133.045 49.1936 132.501C53.6001 129.552 58.0135 126.612 62.4118 123.65C76.7678 113.983 92.8772 115.331 108.821 116.628C123.051 117.785 137.182 119.701 151.422 116.449C154.473 115.752 158.16 116.156 161.136 117.219C165.251 118.69 165.416 122.423 161.689 124.772C159.814 125.953 157.388 126.988 155.256 126.909C145.98 126.563 136.688 126.088 127.465 125.077C117.868 124.024 108.396 123.041 98.238 127.006C107.203 131.019 115.786 123.52 123.754 128.942C116.01 129.401 108.268 130.041 100.518 130.167C98.9826 130.193 97.4147 128.246 95.8617 127.209C97.3216 126.046 98.6103 124.306 100.27 123.812C110.573 120.749 120.991 121.913 131.417 123.332C137.16 124.113 142.954 124.523 149.183 125.1Z" fill="#BCEAC9"/>
<path d="M174.444 106.449C183.094 105.679 191.757 105.227 200.419 104.775C200.456 105.374 200.494 105.973 200.531 106.572C192.116 107.08 183.701 107.587 174.844 108.065C174.421 107.612 174.439 107.19 174.444 106.449Z" fill="#AFAFAB"/>
<path d="M203.514 101.042C212.221 102.661 220.495 104.236 228.77 105.81C208.281 107.828 188.723 116.705 167.783 115.2C167.56 114.427 167.338 113.653 167.115 112.88C169.305 112 171.438 110.583 173.696 110.343C180.124 109.661 186.606 109.495 193.062 109.049C195.706 108.867 198.389 108.707 200.951 108.102C202.145 107.821 203.094 106.502 204.154 105.653C203.029 104.833 201.915 103.327 200.778 103.309C194.97 103.218 189.157 103.571 183.344 103.654C177.865 103.733 172.384 103.671 166.912 102.701C178.808 96.8276 190.929 98.4853 203.514 101.042Z" fill="#73B879"/>
<path d="M260.714 98.4719C251.241 105.552 240.626 104.523 230.247 103.722C223.898 103.232 217.643 101.52 211.5 99.239C213.782 99.4953 216.059 99.8221 218.347 99.9948C226.408 100.603 234.091 99.2591 241.807 96.6698C247.016 94.9219 252.776 94.6313 258.329 94.197C260.243 94.0473 263.803 94.4531 260.714 98.4719Z" fill="#73B879"/>
<path d="M206.002 98.2833C206.913 98.3094 207.538 98.3551 208.164 98.4009C208.163 98.5609 208.162 98.7209 208.16 98.881C207.302 98.881 206.443 98.8894 205.584 98.868C205.498 98.8659 205.415 98.6842 205.331 98.5858C205.459 98.4915 205.588 98.3973 206.002 98.2833Z" fill="#73B879"/>
</svg>
